%FSLAX25Y25*%
%MOIN*%
G70*
G01*
G75*
G04 Layer_Physical_Order=1*
G04 Layer_Color=3229647*
G04:AMPARAMS|DCode=10|XSize=40mil|YSize=40mil|CornerRadius=20mil|HoleSize=0mil|Usage=FLASHONLY|Rotation=0.000|XOffset=0mil|YOffset=0mil|HoleType=Round|Shape=RoundedRectangle|*
%AMROUNDEDRECTD10*
21,1,0.04000,0.00000,0,0,0.0*
21,1,0.00000,0.04000,0,0,0.0*
1,1,0.04000,0.00000,0.00000*
1,1,0.04000,0.00000,0.00000*
1,1,0.04000,0.00000,0.00000*
1,1,0.04000,0.00000,0.00000*
%
%ADD10ROUNDEDRECTD10*%
%ADD11R,0.03200X0.01200*%
%ADD12R,0.01200X0.03200*%
%ADD13R,0.04800X0.03200*%
%ADD14R,0.03200X0.04800*%
%ADD15R,0.03600X0.02800*%
%ADD16R,0.05512X0.04331*%
%ADD17R,0.04331X0.05512*%
%ADD18R,0.02800X0.03600*%
%ADD19R,0.07500X0.05600*%
%ADD20C,0.01000*%
%ADD21C,0.03000*%
%ADD22C,0.01200*%
%ADD23C,0.00800*%
%ADD24C,0.02000*%
%ADD25R,0.18000X0.18000*%
%ADD26C,0.06000*%
%ADD27C,0.05906*%
%ADD28R,0.05906X0.05906*%
%ADD29C,0.07400*%
%ADD30C,0.13500*%
%ADD31C,0.06600*%
%ADD32C,0.05512*%
%ADD33C,0.02400*%
%ADD34C,0.05000*%
%ADD35C,0.02300*%
G36*
X445000Y105000D02*
X312002D01*
X311724Y105416D01*
X312079Y106273D01*
X312175Y107000D01*
X302825D01*
X302921Y106273D01*
X303276Y105416D01*
X302998Y105000D01*
X292002D01*
X291724Y105416D01*
X292079Y106273D01*
X292175Y107000D01*
X282825D01*
X282921Y106273D01*
X283276Y105416D01*
X282998Y105000D01*
X272002D01*
X271724Y105416D01*
X272079Y106273D01*
X272175Y107000D01*
X262825D01*
X262921Y106273D01*
X263276Y105416D01*
X262998Y105000D01*
X130000D01*
Y270000D01*
X445000D01*
Y105000D01*
D02*
G37*
%LPC*%
G36*
X370500Y123921D02*
Y120500D01*
X373921D01*
X373851Y121032D01*
X373453Y121993D01*
X372819Y122819D01*
X371993Y123453D01*
X371032Y123851D01*
X370500Y123921D01*
D02*
G37*
G36*
X369500D02*
X368968Y123851D01*
X368007Y123453D01*
X367181Y122819D01*
X366547Y121993D01*
X366149Y121032D01*
X366079Y120500D01*
X369500D01*
Y123921D01*
D02*
G37*
G36*
X241100Y131537D02*
X239978Y131389D01*
X238931Y130956D01*
X238033Y130267D01*
X237344Y129369D01*
X237333Y129341D01*
X234700D01*
X233881Y129178D01*
X233186Y128714D01*
X227236Y122764D01*
X226772Y122069D01*
X226609Y121250D01*
Y115335D01*
X226216Y115034D01*
X225647Y114292D01*
X225289Y113427D01*
X225167Y112500D01*
X225289Y111573D01*
X225647Y110708D01*
X226216Y109966D01*
X226958Y109397D01*
X227823Y109039D01*
X228750Y108917D01*
X229677Y109039D01*
X230542Y109397D01*
X231284Y109966D01*
X231853Y110708D01*
X232211Y111573D01*
X232333Y112500D01*
X232211Y113427D01*
X231853Y114292D01*
X231284Y115034D01*
X230891Y115335D01*
Y120363D01*
X235587Y125059D01*
X237333D01*
X237344Y125031D01*
X238033Y124133D01*
X238931Y123444D01*
X239978Y123011D01*
X241100Y122863D01*
X242222Y123011D01*
X243269Y123444D01*
X244167Y124133D01*
X244856Y125031D01*
X245289Y126077D01*
X245437Y127200D01*
X245289Y128323D01*
X244856Y129369D01*
X244167Y130267D01*
X243269Y130956D01*
X242222Y131389D01*
X241100Y131537D01*
D02*
G37*
G36*
X333900D02*
X332778Y131389D01*
X331731Y130956D01*
X330833Y130267D01*
X330144Y129369D01*
X329711Y128323D01*
X329563Y127200D01*
X329711Y126077D01*
X330144Y125031D01*
X330833Y124133D01*
X331731Y123444D01*
X332778Y123011D01*
X333900Y122863D01*
X335022Y123011D01*
X336069Y123444D01*
X336967Y124133D01*
X337656Y125031D01*
X338089Y126077D01*
X338237Y127200D01*
X338089Y128323D01*
X337656Y129369D01*
X336967Y130267D01*
X336069Y130956D01*
X335022Y131389D01*
X333900Y131537D01*
D02*
G37*
G36*
X258900D02*
X257778Y131389D01*
X256731Y130956D01*
X255833Y130267D01*
X255144Y129369D01*
X254711Y128323D01*
X254563Y127200D01*
X254711Y126077D01*
X255144Y125031D01*
X255833Y124133D01*
X256731Y123444D01*
X257778Y123011D01*
X258900Y122863D01*
X260022Y123011D01*
X261069Y123444D01*
X261967Y124133D01*
X262656Y125031D01*
X263089Y126077D01*
X263237Y127200D01*
X263089Y128323D01*
X262656Y129369D01*
X261967Y130267D01*
X261069Y130956D01*
X260022Y131389D01*
X258900Y131537D01*
D02*
G37*
G36*
X287500Y121837D02*
X286378Y121689D01*
X285331Y121256D01*
X284433Y120567D01*
X283744Y119669D01*
X283311Y118623D01*
X283163Y117500D01*
X283311Y116377D01*
X283744Y115331D01*
X284433Y114433D01*
X285331Y113744D01*
X286378Y113311D01*
X287500Y113163D01*
X288622Y113311D01*
X289669Y113744D01*
X290567Y114433D01*
X291256Y115331D01*
X291689Y116377D01*
X291837Y117500D01*
X291689Y118623D01*
X291256Y119669D01*
X290567Y120567D01*
X289669Y121256D01*
X288622Y121689D01*
X287500Y121837D01*
D02*
G37*
G36*
X267500D02*
X266377Y121689D01*
X265331Y121256D01*
X264433Y120567D01*
X263744Y119669D01*
X263311Y118623D01*
X263163Y117500D01*
X263311Y116377D01*
X263744Y115331D01*
X264433Y114433D01*
X265331Y113744D01*
X266377Y113311D01*
X267500Y113163D01*
X268622Y113311D01*
X269669Y113744D01*
X270567Y114433D01*
X271256Y115331D01*
X271689Y116377D01*
X271837Y117500D01*
X271689Y118623D01*
X271256Y119669D01*
X270567Y120567D01*
X269669Y121256D01*
X268622Y121689D01*
X267500Y121837D01*
D02*
G37*
G36*
X369500Y119500D02*
X366079D01*
X366149Y118968D01*
X366547Y118007D01*
X367181Y117181D01*
X368007Y116547D01*
X368968Y116149D01*
X369500Y116079D01*
Y119500D01*
D02*
G37*
G36*
X360000Y123583D02*
X359073Y123461D01*
X358208Y123103D01*
X357466Y122534D01*
X356897Y121792D01*
X356539Y120927D01*
X356417Y120000D01*
X356539Y119073D01*
X356897Y118208D01*
X357466Y117466D01*
X358208Y116897D01*
X359073Y116539D01*
X360000Y116417D01*
X360927Y116539D01*
X361792Y116897D01*
X362534Y117466D01*
X363103Y118208D01*
X363461Y119073D01*
X363583Y120000D01*
X363461Y120927D01*
X363103Y121792D01*
X362534Y122534D01*
X361792Y123103D01*
X360927Y123461D01*
X360000Y123583D01*
D02*
G37*
G36*
X373921Y119500D02*
X370500D01*
Y116079D01*
X371032Y116149D01*
X371993Y116547D01*
X372819Y117181D01*
X373453Y118007D01*
X373851Y118968D01*
X373921Y119500D01*
D02*
G37*
G36*
X174700Y145437D02*
X173577Y145289D01*
X172531Y144856D01*
X171633Y144167D01*
X170944Y143269D01*
X170511Y142222D01*
X170363Y141100D01*
X170511Y139978D01*
X170944Y138931D01*
X171633Y138033D01*
X172531Y137344D01*
X173577Y136911D01*
X174700Y136763D01*
X175822Y136911D01*
X176869Y137344D01*
X177767Y138033D01*
X178456Y138931D01*
X178889Y139978D01*
X179037Y141100D01*
X178889Y142222D01*
X178456Y143269D01*
X177767Y144167D01*
X176869Y144856D01*
X175822Y145289D01*
X174700Y145437D01*
D02*
G37*
G36*
X400300Y163237D02*
X399178Y163089D01*
X398131Y162656D01*
X397233Y161967D01*
X396544Y161069D01*
X396111Y160022D01*
X395963Y158900D01*
X396111Y157778D01*
X396544Y156731D01*
X397233Y155833D01*
X398131Y155144D01*
X399178Y154711D01*
X400300Y154563D01*
X401423Y154711D01*
X402469Y155144D01*
X403367Y155833D01*
X404056Y156731D01*
X404489Y157778D01*
X404637Y158900D01*
X404489Y160022D01*
X404056Y161069D01*
X403367Y161967D01*
X402469Y162656D01*
X401423Y163089D01*
X400300Y163237D01*
D02*
G37*
G36*
X174700D02*
X173577Y163089D01*
X172531Y162656D01*
X171633Y161967D01*
X170944Y161069D01*
X170511Y160022D01*
X170363Y158900D01*
X170511Y157778D01*
X170944Y156731D01*
X171633Y155833D01*
X172531Y155144D01*
X173577Y154711D01*
X174700Y154563D01*
X175822Y154711D01*
X176869Y155144D01*
X177767Y155833D01*
X178456Y156731D01*
X178889Y157778D01*
X179037Y158900D01*
X178889Y160022D01*
X178456Y161069D01*
X177767Y161967D01*
X176869Y162656D01*
X175822Y163089D01*
X174700Y163237D01*
D02*
G37*
G36*
X263500Y158500D02*
X261856D01*
X261928Y158142D01*
X262414Y157414D01*
X263142Y156928D01*
X263500Y156856D01*
Y158500D01*
D02*
G37*
G36*
Y161144D02*
X263142Y161072D01*
X262414Y160586D01*
X261928Y159858D01*
X261856Y159500D01*
X263500D01*
Y161144D01*
D02*
G37*
G36*
X266144Y158500D02*
X264500D01*
Y156856D01*
X264858Y156928D01*
X265586Y157414D01*
X266072Y158142D01*
X266144Y158500D01*
D02*
G37*
G36*
X400300Y145437D02*
X399178Y145289D01*
X398131Y144856D01*
X397233Y144167D01*
X396544Y143269D01*
X396533Y143241D01*
X378467D01*
X378456Y143269D01*
X377767Y144167D01*
X376869Y144856D01*
X375822Y145289D01*
X374700Y145437D01*
X373577Y145289D01*
X372531Y144856D01*
X371633Y144167D01*
X370944Y143269D01*
X370933Y143241D01*
X366100D01*
X365281Y143078D01*
X364586Y142614D01*
X348486Y126514D01*
X348022Y125819D01*
X347859Y125000D01*
Y122835D01*
X347466Y122534D01*
X347165Y122141D01*
X339750D01*
X338931Y121978D01*
X338236Y121514D01*
X333236Y116514D01*
X332772Y115819D01*
X332609Y115000D01*
X332772Y114181D01*
X333236Y113486D01*
X333931Y113022D01*
X334750Y112859D01*
X335569Y113022D01*
X336264Y113486D01*
X340637Y117859D01*
X347165D01*
X347466Y117466D01*
X348208Y116897D01*
X349073Y116539D01*
X350000Y116417D01*
X350927Y116539D01*
X351792Y116897D01*
X352534Y117466D01*
X353103Y118208D01*
X353461Y119073D01*
X353583Y120000D01*
X353461Y120927D01*
X353103Y121792D01*
X352534Y122534D01*
X352141Y122835D01*
Y124113D01*
X366987Y138959D01*
X370933D01*
X370944Y138931D01*
X371633Y138033D01*
X372531Y137344D01*
X373577Y136911D01*
X374700Y136763D01*
X375822Y136911D01*
X376869Y137344D01*
X377767Y138033D01*
X378456Y138931D01*
X378467Y138959D01*
X396533D01*
X396544Y138931D01*
X397233Y138033D01*
X398131Y137344D01*
X399178Y136911D01*
X400300Y136763D01*
X401423Y136911D01*
X402469Y137344D01*
X403367Y138033D01*
X404056Y138931D01*
X404489Y139978D01*
X404637Y141100D01*
X404489Y142222D01*
X404056Y143269D01*
X403367Y144167D01*
X402469Y144856D01*
X401423Y145289D01*
X400300Y145437D01*
D02*
G37*
G36*
X150000Y159496D02*
X148147Y159313D01*
X146366Y158773D01*
X144725Y157895D01*
X143286Y156714D01*
X142105Y155275D01*
X141227Y153634D01*
X140687Y151853D01*
X140504Y150000D01*
X140687Y148147D01*
X141227Y146366D01*
X142105Y144725D01*
X143286Y143286D01*
X144725Y142105D01*
X146366Y141227D01*
X148147Y140687D01*
X150000Y140504D01*
X151853Y140687D01*
X153634Y141227D01*
X155275Y142105D01*
X156714Y143286D01*
X157895Y144725D01*
X158773Y146366D01*
X159313Y148147D01*
X159496Y150000D01*
X159313Y151853D01*
X158773Y153634D01*
X157895Y155275D01*
X156714Y156714D01*
X155275Y157895D01*
X153634Y158773D01*
X151853Y159313D01*
X150000Y159496D01*
D02*
G37*
G36*
X302500Y150885D02*
X301624Y150769D01*
X300808Y150431D01*
X300107Y149893D01*
X299569Y149192D01*
X299231Y148376D01*
X299115Y147500D01*
X299231Y146624D01*
X299569Y145808D01*
X300107Y145106D01*
X300808Y144569D01*
X301624Y144230D01*
X302500Y144115D01*
X303376Y144230D01*
X304192Y144569D01*
X304893Y145106D01*
X305431Y145808D01*
X305769Y146624D01*
X305885Y147500D01*
X305769Y148376D01*
X305431Y149192D01*
X304893Y149893D01*
X304192Y150431D01*
X303376Y150769D01*
X302500Y150885D01*
D02*
G37*
G36*
X333900Y157137D02*
X332778Y156989D01*
X331731Y156556D01*
X330833Y155867D01*
X330144Y154969D01*
X329711Y153922D01*
X329563Y152800D01*
X329711Y151678D01*
X330144Y150631D01*
X330833Y149733D01*
X331731Y149044D01*
X332778Y148611D01*
X333900Y148463D01*
X335022Y148611D01*
X336069Y149044D01*
X336967Y149733D01*
X337656Y150631D01*
X338089Y151678D01*
X338237Y152800D01*
X338089Y153922D01*
X337656Y154969D01*
X336967Y155867D01*
X336069Y156556D01*
X335022Y156989D01*
X333900Y157137D01*
D02*
G37*
G36*
X258900D02*
X257778Y156989D01*
X256731Y156556D01*
X255833Y155867D01*
X255144Y154969D01*
X254711Y153922D01*
X254563Y152800D01*
X254711Y151678D01*
X255144Y150631D01*
X255833Y149733D01*
X256731Y149044D01*
X257778Y148611D01*
X258900Y148463D01*
X260022Y148611D01*
X261069Y149044D01*
X261967Y149733D01*
X262656Y150631D01*
X263089Y151678D01*
X263237Y152800D01*
X263089Y153922D01*
X262656Y154969D01*
X261967Y155867D01*
X261069Y156556D01*
X260022Y156989D01*
X258900Y157137D01*
D02*
G37*
G36*
X287000Y112175D02*
X286273Y112079D01*
X285130Y111605D01*
X284148Y110852D01*
X283395Y109870D01*
X282921Y108727D01*
X282825Y108000D01*
X287000D01*
Y112175D01*
D02*
G37*
G36*
X268000D02*
Y108000D01*
X272175D01*
X272079Y108727D01*
X271605Y109870D01*
X270852Y110852D01*
X269870Y111605D01*
X268727Y112079D01*
X268000Y112175D01*
D02*
G37*
G36*
X288000D02*
Y108000D01*
X292175D01*
X292079Y108727D01*
X291605Y109870D01*
X290852Y110852D01*
X289870Y111605D01*
X288727Y112079D01*
X288000Y112175D01*
D02*
G37*
G36*
X308000D02*
Y108000D01*
X312175D01*
X312079Y108727D01*
X311606Y109870D01*
X310852Y110852D01*
X309870Y111605D01*
X308727Y112079D01*
X308000Y112175D01*
D02*
G37*
G36*
X307000D02*
X306273Y112079D01*
X305130Y111605D01*
X304148Y110852D01*
X303395Y109870D01*
X302921Y108727D01*
X302825Y108000D01*
X307000D01*
Y112175D01*
D02*
G37*
G36*
X360000Y113583D02*
X359073Y113461D01*
X358208Y113103D01*
X357466Y112534D01*
X356897Y111792D01*
X356539Y110927D01*
X356417Y110000D01*
X356539Y109073D01*
X356897Y108208D01*
X357466Y107466D01*
X358208Y106897D01*
X359073Y106539D01*
X360000Y106417D01*
X360927Y106539D01*
X361792Y106897D01*
X362534Y107466D01*
X363103Y108208D01*
X363461Y109073D01*
X363583Y110000D01*
X363461Y110927D01*
X363103Y111792D01*
X362534Y112534D01*
X361792Y113103D01*
X360927Y113461D01*
X360000Y113583D01*
D02*
G37*
G36*
X435000Y124496D02*
X433147Y124313D01*
X431366Y123773D01*
X429725Y122895D01*
X428286Y121714D01*
X427105Y120275D01*
X426227Y118634D01*
X425687Y116852D01*
X425504Y115000D01*
X425687Y113147D01*
X426227Y111366D01*
X427105Y109724D01*
X428286Y108285D01*
X429725Y107105D01*
X431366Y106227D01*
X433147Y105687D01*
X435000Y105504D01*
X436853Y105687D01*
X438634Y106227D01*
X440275Y107105D01*
X441714Y108285D01*
X442895Y109724D01*
X443773Y111366D01*
X444313Y113147D01*
X444496Y115000D01*
X444313Y116852D01*
X443773Y118634D01*
X442895Y120275D01*
X441714Y121714D01*
X440275Y122895D01*
X438634Y123773D01*
X436853Y124313D01*
X435000Y124496D01*
D02*
G37*
G36*
X370000Y113583D02*
X369073Y113461D01*
X368208Y113103D01*
X367466Y112534D01*
X366897Y111792D01*
X366539Y110927D01*
X366417Y110000D01*
X366539Y109073D01*
X366897Y108208D01*
X367466Y107466D01*
X368208Y106897D01*
X369073Y106539D01*
X370000Y106417D01*
X370927Y106539D01*
X371792Y106897D01*
X372534Y107466D01*
X373103Y108208D01*
X373461Y109073D01*
X373583Y110000D01*
X373461Y110927D01*
X373103Y111792D01*
X372534Y112534D01*
X371792Y113103D01*
X370927Y113461D01*
X370000Y113583D01*
D02*
G37*
G36*
X267000Y112175D02*
X266273Y112079D01*
X265130Y111605D01*
X264148Y110852D01*
X263394Y109870D01*
X262921Y108727D01*
X262825Y108000D01*
X267000D01*
Y112175D01*
D02*
G37*
G36*
X353553Y113553D02*
X346447D01*
Y106447D01*
X353553D01*
Y113553D01*
D02*
G37*
G36*
X218250Y112000D02*
X214829D01*
X214899Y111468D01*
X215297Y110507D01*
X215931Y109681D01*
X216757Y109047D01*
X217718Y108649D01*
X218250Y108579D01*
Y112000D01*
D02*
G37*
G36*
X142303Y116053D02*
X135197D01*
Y108947D01*
X142303D01*
Y116053D01*
D02*
G37*
G36*
X188750Y116083D02*
X187823Y115961D01*
X186958Y115603D01*
X186216Y115034D01*
X185647Y114292D01*
X185289Y113427D01*
X185167Y112500D01*
X185289Y111573D01*
X185647Y110708D01*
X186216Y109966D01*
X186958Y109397D01*
X187823Y109039D01*
X188750Y108917D01*
X189677Y109039D01*
X190542Y109397D01*
X191284Y109966D01*
X191853Y110708D01*
X192211Y111573D01*
X192333Y112500D01*
X192211Y113427D01*
X191853Y114292D01*
X191284Y115034D01*
X190542Y115603D01*
X189677Y115961D01*
X188750Y116083D01*
D02*
G37*
G36*
X414000Y117622D02*
X413321Y117533D01*
X412689Y117271D01*
X412146Y116854D01*
X411729Y116311D01*
X411467Y115679D01*
X411378Y115000D01*
X411467Y114321D01*
X411729Y113689D01*
X412146Y113146D01*
X412689Y112729D01*
X413321Y112467D01*
X414000Y112378D01*
X414679Y112467D01*
X415311Y112729D01*
X415854Y113146D01*
X416271Y113689D01*
X416533Y114321D01*
X416622Y115000D01*
X416533Y115679D01*
X416271Y116311D01*
X415854Y116854D01*
X415311Y117271D01*
X414679Y117533D01*
X414000Y117622D01*
D02*
G37*
G36*
X219250Y116421D02*
Y113000D01*
X222671D01*
X222601Y113532D01*
X222203Y114493D01*
X221569Y115319D01*
X220743Y115953D01*
X219782Y116351D01*
X219250Y116421D01*
D02*
G37*
G36*
X218250D02*
X217718Y116351D01*
X216757Y115953D01*
X215931Y115319D01*
X215297Y114493D01*
X214899Y113532D01*
X214829Y113000D01*
X218250D01*
Y116421D01*
D02*
G37*
G36*
X148750Y116083D02*
X147823Y115961D01*
X146958Y115603D01*
X146216Y115034D01*
X145647Y114292D01*
X145289Y113427D01*
X145167Y112500D01*
X145289Y111573D01*
X145647Y110708D01*
X146216Y109966D01*
X146958Y109397D01*
X147823Y109039D01*
X148750Y108917D01*
X149677Y109039D01*
X150542Y109397D01*
X151284Y109966D01*
X151853Y110708D01*
X152211Y111573D01*
X152333Y112500D01*
X152211Y113427D01*
X151853Y114292D01*
X151284Y115034D01*
X150542Y115603D01*
X149677Y115961D01*
X148750Y116083D01*
D02*
G37*
G36*
X222671Y112000D02*
X219250D01*
Y108579D01*
X219782Y108649D01*
X220743Y109047D01*
X221569Y109681D01*
X222203Y110507D01*
X222601Y111468D01*
X222671Y112000D01*
D02*
G37*
G36*
X158750Y116083D02*
X157823Y115961D01*
X156958Y115603D01*
X156216Y115034D01*
X155647Y114292D01*
X155289Y113427D01*
X155167Y112500D01*
X155289Y111573D01*
X155647Y110708D01*
X156216Y109966D01*
X156958Y109397D01*
X157823Y109039D01*
X158750Y108917D01*
X159677Y109039D01*
X160542Y109397D01*
X161284Y109966D01*
X161853Y110708D01*
X162211Y111573D01*
X162333Y112500D01*
X162211Y113427D01*
X161853Y114292D01*
X161284Y115034D01*
X160542Y115603D01*
X159677Y115961D01*
X158750Y116083D01*
D02*
G37*
G36*
X178750D02*
X177823Y115961D01*
X176958Y115603D01*
X176216Y115034D01*
X175647Y114292D01*
X175289Y113427D01*
X175167Y112500D01*
X175289Y111573D01*
X175647Y110708D01*
X176216Y109966D01*
X176958Y109397D01*
X177823Y109039D01*
X178750Y108917D01*
X179677Y109039D01*
X180542Y109397D01*
X181284Y109966D01*
X181853Y110708D01*
X182211Y111573D01*
X182333Y112500D01*
X182211Y113427D01*
X181853Y114292D01*
X181284Y115034D01*
X180542Y115603D01*
X179677Y115961D01*
X178750Y116083D01*
D02*
G37*
G36*
X168750D02*
X167823Y115961D01*
X166958Y115603D01*
X166216Y115034D01*
X165647Y114292D01*
X165289Y113427D01*
X165167Y112500D01*
X165289Y111573D01*
X165647Y110708D01*
X166216Y109966D01*
X166958Y109397D01*
X167823Y109039D01*
X168750Y108917D01*
X169677Y109039D01*
X170542Y109397D01*
X171284Y109966D01*
X171853Y110708D01*
X172211Y111573D01*
X172333Y112500D01*
X172211Y113427D01*
X171853Y114292D01*
X171284Y115034D01*
X170542Y115603D01*
X169677Y115961D01*
X168750Y116083D01*
D02*
G37*
G36*
X264500Y161144D02*
Y159500D01*
X266144D01*
X266072Y159858D01*
X265586Y160586D01*
X264858Y161072D01*
X264500Y161144D01*
D02*
G37*
G36*
X286850Y240500D02*
X278308D01*
X278389Y239878D01*
X278823Y238831D01*
X279512Y237933D01*
X280410Y237244D01*
X280677Y237134D01*
Y236633D01*
X280612Y236607D01*
X279797Y235981D01*
X279306Y235341D01*
X261950D01*
X261131Y235178D01*
X260436Y234714D01*
X259410Y233688D01*
X255606D01*
Y234287D01*
X256006D01*
Y236953D01*
X248494D01*
Y234287D01*
X248894D01*
Y228782D01*
X255606D01*
Y229406D01*
X260297D01*
X261117Y229569D01*
X261811Y230033D01*
X261811Y230033D01*
X261811Y230033D01*
X262837Y231059D01*
X279306D01*
X279797Y230418D01*
X280612Y229793D01*
X281561Y229400D01*
X282579Y229266D01*
X283597Y229400D01*
X284546Y229793D01*
X285360Y230418D01*
X285985Y231233D01*
X286378Y232182D01*
X286512Y233200D01*
X286378Y234218D01*
X285985Y235167D01*
X285360Y235981D01*
X284546Y236607D01*
X284481Y236633D01*
Y237134D01*
X284747Y237244D01*
X285646Y237933D01*
X286335Y238831D01*
X286768Y239878D01*
X286850Y240500D01*
D02*
G37*
G36*
X400300Y238237D02*
X399178Y238089D01*
X398131Y237656D01*
X397233Y236967D01*
X396544Y236069D01*
X396111Y235022D01*
X395963Y233900D01*
X396111Y232778D01*
X396544Y231731D01*
X397233Y230833D01*
X398131Y230144D01*
X399178Y229711D01*
X400300Y229563D01*
X401423Y229711D01*
X402469Y230144D01*
X403367Y230833D01*
X404056Y231731D01*
X404489Y232778D01*
X404637Y233900D01*
X404489Y235022D01*
X404056Y236069D01*
X403367Y236967D01*
X402469Y237656D01*
X401423Y238089D01*
X400300Y238237D01*
D02*
G37*
G36*
X292500Y244934D02*
X291482Y244800D01*
X290533Y244407D01*
X289719Y243781D01*
X289093Y242967D01*
X288700Y242018D01*
X288566Y241000D01*
X288700Y239982D01*
X289093Y239033D01*
X289719Y238218D01*
X290533Y237593D01*
X291121Y237350D01*
Y236850D01*
X290533Y236607D01*
X289719Y235981D01*
X289093Y235167D01*
X288700Y234218D01*
X288566Y233200D01*
X288700Y232182D01*
X289093Y231233D01*
X289719Y230418D01*
X290517Y229806D01*
X290420Y229520D01*
X290342Y229332D01*
X287711D01*
X287711Y229332D01*
X287282Y229247D01*
X286918Y229004D01*
X286918Y229004D01*
X282207Y224293D01*
X281964Y223929D01*
X281878Y223500D01*
X281878Y223500D01*
Y217455D01*
X281417Y217264D01*
X274487Y224193D01*
X274123Y224436D01*
X273694Y224522D01*
X273694Y224521D01*
X207600D01*
X207600Y224522D01*
X207171Y224436D01*
X206807Y224193D01*
X206807Y224193D01*
X202469Y219855D01*
X202469Y219856D01*
X201423Y220289D01*
X200300Y220437D01*
X199178Y220289D01*
X198131Y219856D01*
X197233Y219167D01*
X196544Y218269D01*
X196111Y217222D01*
X195963Y216100D01*
X196111Y214978D01*
X196544Y213931D01*
X197233Y213033D01*
X198131Y212344D01*
X199178Y211911D01*
X200300Y211763D01*
X201423Y211911D01*
X202469Y212344D01*
X203367Y213033D01*
X204056Y213931D01*
X204489Y214978D01*
X204637Y216100D01*
X204489Y217222D01*
X204056Y218269D01*
X204055Y218269D01*
X208065Y222278D01*
X215039D01*
X215230Y221816D01*
X173135Y179722D01*
X166990D01*
X166989Y179722D01*
X166556Y180769D01*
X165867Y181667D01*
X164969Y182356D01*
X163923Y182789D01*
X162800Y182937D01*
X161678Y182789D01*
X160631Y182356D01*
X159733Y181667D01*
X159044Y180769D01*
X158611Y179722D01*
X158463Y178600D01*
X158611Y177478D01*
X159044Y176431D01*
X159733Y175533D01*
X160631Y174844D01*
X161678Y174411D01*
X162800Y174263D01*
X163923Y174411D01*
X164969Y174844D01*
X165867Y175533D01*
X166556Y176431D01*
X166989Y177478D01*
X166990Y177478D01*
X173600D01*
X173600Y177478D01*
X174029Y177564D01*
X174393Y177807D01*
X216865Y220279D01*
X222789D01*
X222980Y219816D01*
X186707Y183543D01*
X186464Y183179D01*
X186378Y182750D01*
X186378Y182750D01*
Y153900D01*
X186378Y153900D01*
X186464Y153471D01*
X186707Y153107D01*
X196545Y143269D01*
X196544Y143269D01*
X196111Y142222D01*
X195963Y141100D01*
X196111Y139978D01*
X196544Y138931D01*
X197233Y138033D01*
X198131Y137344D01*
X199178Y136911D01*
X200300Y136763D01*
X201423Y136911D01*
X202469Y137344D01*
X203367Y138033D01*
X204056Y138931D01*
X204489Y139978D01*
X204637Y141100D01*
X204489Y142222D01*
X204056Y143269D01*
X203367Y144167D01*
X202469Y144856D01*
X201423Y145289D01*
X200300Y145437D01*
X199178Y145289D01*
X198131Y144856D01*
X198131Y144855D01*
X188622Y154365D01*
Y182285D01*
X224615Y218279D01*
X234789D01*
X234980Y217816D01*
X227707Y210543D01*
X227464Y210179D01*
X227378Y209750D01*
X227379Y209750D01*
Y187900D01*
X227378Y187900D01*
X227464Y187471D01*
X227707Y187107D01*
X234045Y180769D01*
X234044Y180769D01*
X233611Y179722D01*
X233463Y178600D01*
X233611Y177478D01*
X234044Y176431D01*
X234733Y175533D01*
X235631Y174844D01*
X236678Y174411D01*
X237800Y174263D01*
X238923Y174411D01*
X239969Y174844D01*
X240867Y175533D01*
X241556Y176431D01*
X241989Y177478D01*
X242137Y178600D01*
X241989Y179722D01*
X241556Y180769D01*
X240867Y181667D01*
X239969Y182356D01*
X238923Y182789D01*
X237800Y182937D01*
X236678Y182789D01*
X235631Y182356D01*
X235631Y182355D01*
X229622Y188365D01*
Y209285D01*
X236715Y216378D01*
X252652D01*
X252797Y215900D01*
X252529Y215721D01*
X250358Y213550D01*
X245500D01*
Y209150D01*
X251500D01*
Y211808D01*
X252934Y213242D01*
X253310Y212913D01*
X253042Y212563D01*
X252730Y211809D01*
X252623Y211000D01*
X252730Y210191D01*
X253042Y209437D01*
X253539Y208789D01*
X254187Y208292D01*
X254941Y207980D01*
X255750Y207873D01*
X256559Y207980D01*
X257313Y208292D01*
X257961Y208789D01*
X258406Y209369D01*
X259644D01*
Y208213D01*
X259244D01*
Y205578D01*
X251900D01*
Y206807D01*
X249000D01*
Y204207D01*
Y201607D01*
X251577D01*
X251665Y201500D01*
X251804Y200798D01*
X252202Y200202D01*
X252798Y199804D01*
X253500Y199665D01*
X254202Y199804D01*
X254798Y200202D01*
X254886Y200334D01*
X255385Y200310D01*
X255530Y200039D01*
X255304Y199702D01*
X255165Y199000D01*
X255304Y198298D01*
X255702Y197702D01*
X256008Y197498D01*
X255863Y197020D01*
X254984D01*
X254798Y197298D01*
X254202Y197696D01*
X253500Y197835D01*
X252798Y197696D01*
X252202Y197298D01*
X251804Y196702D01*
X251665Y196000D01*
X251804Y195298D01*
X252202Y194702D01*
X252798Y194304D01*
X253500Y194165D01*
X254202Y194304D01*
X254798Y194702D01*
X254886Y194834D01*
X255385Y194810D01*
X255530Y194539D01*
X255304Y194202D01*
X255165Y193500D01*
X255304Y192798D01*
X255530Y192461D01*
X255385Y192190D01*
X254886Y192166D01*
X254798Y192298D01*
X254202Y192696D01*
X253500Y192835D01*
X252798Y192696D01*
X252202Y192298D01*
X251804Y191702D01*
X251665Y191000D01*
X251804Y190298D01*
X252202Y189702D01*
X252798Y189304D01*
X253500Y189165D01*
X254202Y189304D01*
X254798Y189702D01*
X254886Y189834D01*
X255385Y189810D01*
X255530Y189539D01*
X255304Y189202D01*
X255165Y188500D01*
X255304Y187798D01*
X255702Y187202D01*
X255711Y187197D01*
X255566Y186718D01*
X255144D01*
Y181213D01*
X254744D01*
Y178547D01*
X262256D01*
Y181213D01*
X261856D01*
Y185414D01*
X263922Y187480D01*
X265000D01*
X265390Y187558D01*
X265390Y187558D01*
X265390Y187558D01*
X265711Y187697D01*
D01*
D01*
X265954Y187333D01*
X266318Y187090D01*
X266747Y187004D01*
X267000D01*
Y186526D01*
X267400D01*
Y184958D01*
X267776D01*
Y182208D01*
X267486Y182014D01*
X263986Y178514D01*
X263522Y177819D01*
X263359Y177000D01*
Y172765D01*
X263289Y172711D01*
X263235Y172641D01*
X258800D01*
X257981Y172478D01*
X257286Y172014D01*
X242250Y156978D01*
X242222Y156989D01*
X241100Y157137D01*
X239978Y156989D01*
X238931Y156556D01*
X238033Y155867D01*
X237344Y154969D01*
X237333Y154941D01*
X233087D01*
X227614Y160414D01*
X226919Y160878D01*
X226100Y161041D01*
X204067D01*
X204056Y161069D01*
X203367Y161967D01*
X202469Y162656D01*
X201423Y163089D01*
X200300Y163237D01*
X199178Y163089D01*
X198131Y162656D01*
X197233Y161967D01*
X196544Y161069D01*
X196111Y160022D01*
X195963Y158900D01*
X196111Y157778D01*
X196544Y156731D01*
X197233Y155833D01*
X198131Y155144D01*
X199178Y154711D01*
X200300Y154563D01*
X201423Y154711D01*
X202469Y155144D01*
X203367Y155833D01*
X204056Y156731D01*
X204067Y156759D01*
X225213D01*
X230686Y151286D01*
X231381Y150822D01*
X231381Y150822D01*
X231381Y150822D01*
D01*
X231381Y150822D01*
X231381Y150822D01*
X232200Y150659D01*
X237333D01*
X237344Y150631D01*
X238033Y149733D01*
X238931Y149044D01*
X239978Y148611D01*
X241100Y148463D01*
X242222Y148611D01*
X243269Y149044D01*
X244167Y149733D01*
X244856Y150631D01*
X245289Y151678D01*
X245437Y152800D01*
X245289Y153922D01*
X245278Y153950D01*
X259687Y168359D01*
X263235D01*
X263289Y168289D01*
X263937Y167792D01*
X264691Y167480D01*
X265500Y167373D01*
X266309Y167480D01*
X267063Y167792D01*
X267711Y168289D01*
X268208Y168937D01*
X268520Y169691D01*
X268627Y170500D01*
X268520Y171309D01*
X268208Y172063D01*
X267711Y172711D01*
X267641Y172765D01*
Y176113D01*
X268853Y177325D01*
X269294Y177090D01*
X269276Y177000D01*
Y156000D01*
X269276Y156000D01*
X269276D01*
X269370Y155532D01*
X269635Y155135D01*
X273545Y151225D01*
X273324Y150776D01*
X272500Y150885D01*
X271624Y150769D01*
X270808Y150431D01*
X270107Y149893D01*
X269569Y149192D01*
X269231Y148376D01*
X269115Y147500D01*
X269231Y146624D01*
X269569Y145808D01*
X270107Y145106D01*
X270122Y145095D01*
X269961Y144622D01*
X229750D01*
X229750Y144622D01*
X229321Y144536D01*
X228957Y144293D01*
X200348Y115684D01*
X199677Y115961D01*
X198750Y116083D01*
X197823Y115961D01*
X196958Y115603D01*
X196216Y115034D01*
X195647Y114292D01*
X195289Y113427D01*
X195167Y112500D01*
X195289Y111573D01*
X195647Y110708D01*
X196216Y109966D01*
X196958Y109397D01*
X197823Y109039D01*
X198750Y108917D01*
X199677Y109039D01*
X200542Y109397D01*
X201284Y109966D01*
X201853Y110708D01*
X202211Y111573D01*
X202333Y112500D01*
X202211Y113427D01*
X201934Y114098D01*
X230215Y142378D01*
X270613D01*
X270773Y141905D01*
X270107Y141393D01*
X269569Y140692D01*
X269231Y139876D01*
X269115Y139000D01*
X269231Y138124D01*
X269569Y137308D01*
X270107Y136607D01*
X270773Y136095D01*
X270613Y135622D01*
X230750D01*
X230750Y135622D01*
X230321Y135536D01*
X229957Y135293D01*
X229957Y135293D01*
X210348Y115684D01*
X209677Y115961D01*
X208750Y116083D01*
X207823Y115961D01*
X206958Y115603D01*
X206216Y115034D01*
X205647Y114292D01*
X205289Y113427D01*
X205167Y112500D01*
X205289Y111573D01*
X205647Y110708D01*
X206216Y109966D01*
X206958Y109397D01*
X207823Y109039D01*
X208750Y108917D01*
X209677Y109039D01*
X210542Y109397D01*
X211284Y109966D01*
X211853Y110708D01*
X212211Y111573D01*
X212333Y112500D01*
X212211Y113427D01*
X211934Y114098D01*
X231215Y133378D01*
X270613D01*
X270773Y132905D01*
X270107Y132394D01*
X269569Y131692D01*
X269231Y130876D01*
X269115Y130000D01*
X269231Y129124D01*
X269569Y128308D01*
X270107Y127606D01*
X270808Y127069D01*
X271624Y126731D01*
X272500Y126615D01*
X273376Y126731D01*
X274192Y127069D01*
X274893Y127606D01*
X275431Y128308D01*
X275769Y129124D01*
X275885Y130000D01*
X275769Y130876D01*
X275431Y131692D01*
X274893Y132394D01*
X274227Y132905D01*
X274388Y133378D01*
X286535D01*
X298407Y121507D01*
X298407Y121507D01*
X298771Y121264D01*
X299200Y121178D01*
X299200Y121178D01*
X304453D01*
X304613Y120705D01*
X304433Y120567D01*
X303744Y119669D01*
X303311Y118623D01*
X303163Y117500D01*
X303311Y116377D01*
X303744Y115331D01*
X304433Y114433D01*
X305331Y113744D01*
X306378Y113311D01*
X307500Y113163D01*
X308623Y113311D01*
X309669Y113744D01*
X310567Y114433D01*
X311256Y115331D01*
X311689Y116377D01*
X311837Y117500D01*
X311689Y118623D01*
X311256Y119669D01*
X310567Y120567D01*
X310387Y120705D01*
X310547Y121178D01*
X319371D01*
X319371Y121178D01*
X319800Y121264D01*
X320164Y121507D01*
X353293Y154636D01*
X353293Y154636D01*
X353536Y155000D01*
X353536Y155000D01*
X353536Y155000D01*
X353622Y155429D01*
X353622Y155429D01*
Y158585D01*
X353798Y158702D01*
X354196Y159298D01*
X354335Y160000D01*
X354196Y160702D01*
X353798Y161298D01*
X353202Y161696D01*
X352500Y161835D01*
X351798Y161696D01*
X351202Y161298D01*
X350804Y160702D01*
X350665Y160000D01*
X350804Y159298D01*
X351202Y158702D01*
X351378Y158585D01*
Y155894D01*
X320295Y124810D01*
X319880Y125088D01*
X320289Y126077D01*
X320437Y127200D01*
X320289Y128323D01*
X319856Y129369D01*
X319167Y130267D01*
X318269Y130956D01*
X317222Y131389D01*
X316100Y131537D01*
X314978Y131389D01*
X313931Y130956D01*
X313033Y130267D01*
X312344Y129369D01*
X311911Y128323D01*
X311763Y127200D01*
X311911Y126077D01*
X312344Y125031D01*
X313033Y124133D01*
X313344Y123895D01*
X313183Y123422D01*
X299665D01*
X287793Y135293D01*
X287429Y135536D01*
X287000Y135622D01*
X287000Y135622D01*
X274388D01*
X274227Y136095D01*
X274893Y136607D01*
X275431Y137308D01*
X275769Y138124D01*
X275885Y139000D01*
X275769Y139876D01*
X275431Y140692D01*
X274893Y141393D01*
X274227Y141905D01*
X274388Y142378D01*
X281535D01*
X299207Y124707D01*
X299207Y124707D01*
X299571Y124464D01*
X299571Y124464D01*
X299571Y124464D01*
D01*
X299571Y124464D01*
X299571Y124464D01*
X300000Y124378D01*
X305500D01*
X305500Y124378D01*
X305929Y124464D01*
X306293Y124707D01*
X326465Y144878D01*
X336000D01*
X336000Y144878D01*
X336429Y144964D01*
X336793Y145207D01*
X349793Y158207D01*
X349793Y158207D01*
X350036Y158571D01*
X350036Y158571D01*
X350036Y158571D01*
X350122Y159000D01*
X350121Y159000D01*
Y161035D01*
X352292Y163206D01*
X352500Y163165D01*
X353202Y163304D01*
X353798Y163702D01*
X354196Y164298D01*
X354335Y165000D01*
X354196Y165702D01*
X353798Y166298D01*
X353202Y166696D01*
X352500Y166835D01*
X351798Y166696D01*
X351202Y166298D01*
X350804Y165702D01*
X350665Y165000D01*
X350706Y164792D01*
X348207Y162293D01*
X347964Y161929D01*
X347878Y161500D01*
X347879Y161500D01*
Y159465D01*
X335535Y147122D01*
X326000D01*
X326000Y147122D01*
X325571Y147036D01*
X325207Y146793D01*
X325207Y146793D01*
X305035Y126622D01*
X304387D01*
X304227Y127095D01*
X304893Y127606D01*
X305431Y128308D01*
X305769Y129124D01*
X305885Y130000D01*
X305769Y130876D01*
X305431Y131692D01*
X304893Y132394D01*
X304192Y132931D01*
X303376Y133270D01*
X302500Y133385D01*
X301624Y133270D01*
X300951Y132991D01*
X296020Y137922D01*
Y164500D01*
X295942Y164890D01*
X295721Y165221D01*
X290645Y170297D01*
X290880Y170738D01*
X291250Y170665D01*
X291952Y170804D01*
X292548Y171202D01*
X292946Y171798D01*
X293085Y172500D01*
X292946Y173202D01*
X292548Y173798D01*
X292270Y173984D01*
Y174544D01*
X292711Y174780D01*
X293048Y174554D01*
X293750Y174415D01*
X294452Y174554D01*
X295048Y174952D01*
X295446Y175548D01*
X295585Y176250D01*
X295512Y176620D01*
X295809Y176779D01*
X296211Y176481D01*
X296165Y176250D01*
X296304Y175548D01*
X296702Y174952D01*
X297298Y174554D01*
X298000Y174415D01*
X298702Y174554D01*
X299298Y174952D01*
X299696Y175548D01*
X299835Y176250D01*
X299696Y176952D01*
X299298Y177548D01*
X298702Y177946D01*
X298000Y178085D01*
X297672Y178020D01*
X295721Y179971D01*
X295390Y180192D01*
X295000Y180270D01*
X294172D01*
X294038Y180404D01*
X294042Y180414D01*
X294042D01*
X294042Y180414D01*
Y184250D01*
X294500D01*
X294254Y184495D01*
X294446Y184958D01*
X298101D01*
X298480Y184578D01*
Y183484D01*
X298202Y183298D01*
X297804Y182702D01*
X297665Y182000D01*
X297804Y181298D01*
X298202Y180702D01*
X298798Y180304D01*
X299500Y180165D01*
X300202Y180304D01*
X300798Y180702D01*
X301196Y181298D01*
X301335Y182000D01*
X301196Y182702D01*
X300798Y183298D01*
X300520Y183484D01*
Y185000D01*
X300442Y185390D01*
X300221Y185721D01*
X299297Y186644D01*
X299489Y187106D01*
X301202D01*
X302937Y185371D01*
Y179500D01*
X301757D01*
Y173500D01*
X304558D01*
X305980Y172078D01*
X305915Y171750D01*
X306054Y171048D01*
X306452Y170452D01*
X307048Y170054D01*
X307750Y169915D01*
X308452Y170054D01*
X309048Y170452D01*
X309446Y171048D01*
X309585Y171750D01*
X309446Y172452D01*
X309048Y173048D01*
X309212Y173294D01*
D01*
X309293Y173414D01*
D01*
X309350Y173500D01*
X313300D01*
Y175277D01*
X317243D01*
X324046Y168474D01*
X314586Y159014D01*
X314122Y158319D01*
X313959Y157500D01*
Y156567D01*
X313931Y156556D01*
X313033Y155867D01*
X312344Y154969D01*
X311911Y153922D01*
X311763Y152800D01*
X311911Y151678D01*
X312344Y150631D01*
X313033Y149733D01*
X313931Y149044D01*
X314978Y148611D01*
X316100Y148463D01*
X317222Y148611D01*
X318269Y149044D01*
X319167Y149733D01*
X319856Y150631D01*
X320289Y151678D01*
X320437Y152800D01*
X320289Y153922D01*
X319856Y154969D01*
X319167Y155867D01*
X318522Y156362D01*
X318489Y156861D01*
X327939Y166311D01*
X327939Y166311D01*
X336050Y174422D01*
X336077Y174411D01*
X337200Y174263D01*
X338322Y174411D01*
X339369Y174844D01*
X340267Y175533D01*
X340956Y176431D01*
X340967Y176459D01*
X359033D01*
X359044Y176431D01*
X359733Y175533D01*
X360631Y174844D01*
X361678Y174411D01*
X362800Y174263D01*
X363923Y174411D01*
X364969Y174844D01*
X365867Y175533D01*
X366556Y176431D01*
X366989Y177478D01*
X367137Y178600D01*
X366989Y179722D01*
X366556Y180769D01*
X365867Y181667D01*
X364969Y182356D01*
X363923Y182789D01*
X362800Y182937D01*
X361678Y182789D01*
X360631Y182356D01*
X359733Y181667D01*
X359044Y180769D01*
X359033Y180741D01*
X340967D01*
X340956Y180769D01*
X340267Y181667D01*
X339369Y182356D01*
X338322Y182789D01*
X337200Y182937D01*
X336077Y182789D01*
X335031Y182356D01*
X334133Y181667D01*
X333444Y180769D01*
X333011Y179722D01*
X332863Y178600D01*
X333011Y177478D01*
X333022Y177450D01*
X326026Y170454D01*
X325526D01*
X318615Y177365D01*
X318218Y177630D01*
X317750Y177724D01*
X313300D01*
Y179500D01*
X308900D01*
Y173677D01*
X308876Y173664D01*
X308876D01*
X308459Y173441D01*
X308452Y173446D01*
X307750Y173585D01*
X307422Y173520D01*
X306157Y174785D01*
Y179500D01*
X304976D01*
Y185793D01*
X304952Y185914D01*
X305270Y186300D01*
X306878D01*
Y185400D01*
X305941D01*
Y180600D01*
X309941D01*
Y185400D01*
X309121D01*
Y186300D01*
X313650D01*
Y193100D01*
D01*
Y193100D01*
X313929Y193378D01*
X321250D01*
X321250Y193378D01*
X321679Y193464D01*
X322043Y193707D01*
X324161Y195824D01*
X331011D01*
Y202624D01*
X325681D01*
Y203350D01*
X326559D01*
Y208150D01*
X322559D01*
Y203350D01*
X323438D01*
Y202624D01*
X322311D01*
Y197148D01*
X320785Y195622D01*
X313650D01*
Y195824D01*
X313650D01*
Y202624D01*
X306111D01*
X305920Y203086D01*
X311081Y208248D01*
X311500Y208165D01*
X312202Y208304D01*
X312798Y208702D01*
X313196Y209298D01*
X313335Y210000D01*
X313196Y210702D01*
X312798Y211298D01*
X312202Y211696D01*
X311500Y211835D01*
X310798Y211696D01*
X310202Y211298D01*
X309804Y210702D01*
X309750Y210429D01*
X309250D01*
X309196Y210702D01*
X308798Y211298D01*
X308202Y211696D01*
X307500Y211835D01*
X306798Y211696D01*
X306202Y211298D01*
X305804Y210702D01*
X305750Y210429D01*
X305250D01*
X305196Y210702D01*
X304798Y211298D01*
X304202Y211696D01*
X303500Y211835D01*
X303118Y212149D01*
Y215000D01*
X299953D01*
Y215500D01*
X299453D01*
Y219256D01*
X298364D01*
X298128Y219697D01*
X298196Y219798D01*
X298335Y220500D01*
X298196Y221202D01*
X298038Y221438D01*
X298274Y221879D01*
X315785D01*
X336079Y201585D01*
Y200589D01*
X336077Y200589D01*
X335031Y200156D01*
X334133Y199467D01*
X333444Y198569D01*
X333011Y197522D01*
X332863Y196400D01*
X333011Y195278D01*
X333444Y194231D01*
X334133Y193333D01*
X335031Y192644D01*
X336077Y192211D01*
X337200Y192063D01*
X338322Y192211D01*
X339369Y192644D01*
X340267Y193333D01*
X340956Y194231D01*
X341389Y195278D01*
X341537Y196400D01*
X341389Y197522D01*
X340956Y198569D01*
X340267Y199467D01*
X339369Y200156D01*
X338322Y200589D01*
X338321Y200589D01*
Y202050D01*
X338236Y202479D01*
X337993Y202843D01*
X337993Y202843D01*
X317420Y223416D01*
X317611Y223878D01*
X325035D01*
X373579Y175335D01*
Y163090D01*
X373577Y163089D01*
X372531Y162656D01*
X371633Y161967D01*
X370944Y161069D01*
X370511Y160022D01*
X370363Y158900D01*
X370511Y157778D01*
X370944Y156731D01*
X371633Y155833D01*
X372531Y155144D01*
X373577Y154711D01*
X374700Y154563D01*
X375822Y154711D01*
X376869Y155144D01*
X377767Y155833D01*
X378456Y156731D01*
X378889Y157778D01*
X379037Y158900D01*
X378889Y160022D01*
X378456Y161069D01*
X377767Y161967D01*
X376869Y162656D01*
X375822Y163089D01*
X375821Y163090D01*
Y175800D01*
X375822Y175800D01*
X375736Y176229D01*
X375493Y176593D01*
X375493Y176593D01*
X327070Y225016D01*
X327261Y225478D01*
X342935D01*
X372807Y195607D01*
X372807Y195607D01*
X373171Y195364D01*
X373171Y195364D01*
X373171Y195364D01*
D01*
X373171Y195364D01*
X373171Y195364D01*
X373600Y195278D01*
X373600Y195278D01*
X408011D01*
X408011Y195278D01*
X408444Y194231D01*
X409133Y193333D01*
X410032Y192644D01*
X411077Y192211D01*
X412200Y192063D01*
X413322Y192211D01*
X414368Y192644D01*
X415267Y193333D01*
X415956Y194231D01*
X416389Y195278D01*
X416537Y196400D01*
X416389Y197522D01*
X415956Y198569D01*
X415267Y199467D01*
X414368Y200156D01*
X413322Y200589D01*
X412200Y200737D01*
X411077Y200589D01*
X410032Y200156D01*
X409133Y199467D01*
X408444Y198569D01*
X408011Y197522D01*
X408011Y197522D01*
X374065D01*
X344193Y227393D01*
X343829Y227636D01*
X343400Y227722D01*
X343400Y227722D01*
X327461D01*
X327270Y228184D01*
X331865Y232779D01*
X370511D01*
X370511Y232778D01*
X370944Y231731D01*
X371633Y230833D01*
X372531Y230144D01*
X373577Y229711D01*
X374700Y229563D01*
X375822Y229711D01*
X376869Y230144D01*
X377767Y230833D01*
X378456Y231731D01*
X378889Y232778D01*
X379037Y233900D01*
X378889Y235022D01*
X378456Y236069D01*
X377767Y236967D01*
X376869Y237656D01*
X375822Y238089D01*
X374700Y238237D01*
X373577Y238089D01*
X372531Y237656D01*
X371633Y236967D01*
X370944Y236069D01*
X370511Y235022D01*
X370511Y235021D01*
X331400D01*
X330971Y234936D01*
X330607Y234693D01*
X330607Y234693D01*
X325246Y229332D01*
X294658D01*
X294580Y229520D01*
X294483Y229806D01*
X295282Y230418D01*
X295907Y231233D01*
X296300Y232182D01*
X296434Y233200D01*
X296300Y234218D01*
X295907Y235167D01*
X295282Y235981D01*
X294467Y236607D01*
X293879Y236850D01*
Y237350D01*
X294467Y237593D01*
X295282Y238218D01*
X295907Y239033D01*
X296300Y239982D01*
X296434Y241000D01*
X296300Y242018D01*
X295907Y242967D01*
X295282Y243781D01*
X294467Y244407D01*
X293518Y244800D01*
X292500Y244934D01*
D02*
G37*
G36*
X140000Y243622D02*
X139321Y243533D01*
X138689Y243271D01*
X138146Y242854D01*
X137729Y242311D01*
X137467Y241679D01*
X137378Y241000D01*
X137467Y240321D01*
X137729Y239689D01*
X138146Y239146D01*
X138689Y238729D01*
X139321Y238467D01*
X140000Y238378D01*
X140679Y238467D01*
X141311Y238729D01*
X141854Y239146D01*
X142271Y239689D01*
X142533Y240321D01*
X142622Y241000D01*
X142533Y241679D01*
X142271Y242311D01*
X141854Y242854D01*
X141311Y243271D01*
X140679Y243533D01*
X140000Y243622D01*
D02*
G37*
G36*
X256006Y240618D02*
X252750D01*
Y237953D01*
X256006D01*
Y240618D01*
D02*
G37*
G36*
X251750D02*
X248494D01*
Y237953D01*
X251750D01*
Y240618D01*
D02*
G37*
G36*
X321800Y208550D02*
X319900D01*
Y206250D01*
X321800D01*
Y208550D01*
D02*
G37*
G36*
X318900D02*
X317000D01*
Y206250D01*
X318900D01*
Y208550D01*
D02*
G37*
G36*
X237000Y210622D02*
X236321Y210533D01*
X235689Y210271D01*
X235146Y209854D01*
X234729Y209311D01*
X234467Y208679D01*
X234378Y208000D01*
X234467Y207321D01*
X234729Y206689D01*
X235146Y206146D01*
X235689Y205729D01*
X236321Y205467D01*
X237000Y205378D01*
X237679Y205467D01*
X238311Y205729D01*
X238854Y206146D01*
X239271Y206689D01*
X239533Y207321D01*
X239622Y208000D01*
X239533Y208679D01*
X239271Y209311D01*
X238854Y209854D01*
X238311Y210271D01*
X237679Y210533D01*
X237000Y210622D01*
D02*
G37*
G36*
X364500Y269141D02*
X233400D01*
X232581Y268978D01*
X231886Y268514D01*
X201450Y238078D01*
X201423Y238089D01*
X200300Y238237D01*
X199178Y238089D01*
X198131Y237656D01*
X197233Y236967D01*
X196544Y236069D01*
X196533Y236041D01*
X178467D01*
X178456Y236069D01*
X177767Y236967D01*
X176869Y237656D01*
X175822Y238089D01*
X174700Y238237D01*
X173577Y238089D01*
X172531Y237656D01*
X171633Y236967D01*
X170944Y236069D01*
X170511Y235022D01*
X170458Y234622D01*
X170393Y234524D01*
X170269Y233900D01*
X170393Y233276D01*
X170458Y233178D01*
X170511Y232778D01*
X170522Y232750D01*
X148486Y210714D01*
X148022Y210019D01*
X147859Y209200D01*
Y199887D01*
X146513Y198541D01*
X140967D01*
X140956Y198569D01*
X140267Y199467D01*
X139369Y200156D01*
X138322Y200589D01*
X137200Y200737D01*
X136077Y200589D01*
X135031Y200156D01*
X134133Y199467D01*
X133444Y198569D01*
X133011Y197522D01*
X132863Y196400D01*
X133011Y195278D01*
X133444Y194231D01*
X134133Y193333D01*
X135031Y192644D01*
X136077Y192211D01*
X137200Y192063D01*
X138322Y192211D01*
X139369Y192644D01*
X140267Y193333D01*
X140956Y194231D01*
X140967Y194259D01*
X147400D01*
X148219Y194422D01*
X148914Y194886D01*
X148914Y194886D01*
X148914Y194886D01*
X149750Y195722D01*
X150250D01*
X151086Y194886D01*
X151781Y194422D01*
X152600Y194259D01*
X159033D01*
X159044Y194231D01*
X159733Y193333D01*
X160631Y192644D01*
X161678Y192211D01*
X162800Y192063D01*
X163923Y192211D01*
X164969Y192644D01*
X165867Y193333D01*
X166556Y194231D01*
X166989Y195278D01*
X167137Y196400D01*
X166989Y197522D01*
X166556Y198569D01*
X165867Y199467D01*
X164969Y200156D01*
X163923Y200589D01*
X162800Y200737D01*
X161678Y200589D01*
X160631Y200156D01*
X159733Y199467D01*
X159044Y198569D01*
X159033Y198541D01*
X153487D01*
X152141Y199887D01*
Y208313D01*
X173550Y229722D01*
X173577Y229711D01*
X174700Y229563D01*
X175822Y229711D01*
X176869Y230144D01*
X177767Y230833D01*
X178456Y231731D01*
X178467Y231759D01*
X196533D01*
X196544Y231731D01*
X197233Y230833D01*
X198131Y230144D01*
X199178Y229711D01*
X200300Y229563D01*
X201423Y229711D01*
X202469Y230144D01*
X203367Y230833D01*
X204056Y231731D01*
X204489Y232778D01*
X204637Y233900D01*
X204489Y235022D01*
X204478Y235050D01*
X234287Y264859D01*
X363613D01*
X385859Y242613D01*
Y218241D01*
X378467D01*
X378456Y218269D01*
X377767Y219167D01*
X376869Y219856D01*
X375822Y220289D01*
X374700Y220437D01*
X373577Y220289D01*
X372531Y219856D01*
X371633Y219167D01*
X370944Y218269D01*
X370511Y217222D01*
X370363Y216100D01*
X370511Y214978D01*
X370944Y213931D01*
X371633Y213033D01*
X372531Y212344D01*
X373577Y211911D01*
X374700Y211763D01*
X375822Y211911D01*
X376869Y212344D01*
X377767Y213033D01*
X378456Y213931D01*
X378467Y213959D01*
X396533D01*
X396544Y213931D01*
X397233Y213033D01*
X398131Y212344D01*
X399178Y211911D01*
X400300Y211763D01*
X401423Y211911D01*
X402469Y212344D01*
X403367Y213033D01*
X404056Y213931D01*
X404067Y213959D01*
X405613D01*
X425072Y194500D01*
X413350Y182778D01*
X413322Y182789D01*
X412200Y182937D01*
X411077Y182789D01*
X410032Y182356D01*
X409133Y181667D01*
X408444Y180769D01*
X408011Y179722D01*
X407863Y178600D01*
X408011Y177478D01*
X408444Y176431D01*
X409133Y175533D01*
X410032Y174844D01*
X411077Y174411D01*
X412200Y174263D01*
X413322Y174411D01*
X414368Y174844D01*
X415267Y175533D01*
X415956Y176431D01*
X416389Y177478D01*
X416537Y178600D01*
X416389Y179722D01*
X416378Y179750D01*
X427850Y191222D01*
X428350D01*
X435659Y183913D01*
Y182367D01*
X435632Y182356D01*
X434733Y181667D01*
X434044Y180769D01*
X433611Y179722D01*
X433463Y178600D01*
X433611Y177478D01*
X434044Y176431D01*
X434733Y175533D01*
X435632Y174844D01*
X436678Y174411D01*
X437800Y174263D01*
X438923Y174411D01*
X439968Y174844D01*
X440867Y175533D01*
X441556Y176431D01*
X441989Y177478D01*
X442137Y178600D01*
X441989Y179722D01*
X441556Y180769D01*
X440867Y181667D01*
X439968Y182356D01*
X439941Y182367D01*
Y184800D01*
X439778Y185619D01*
X439314Y186314D01*
X429189Y196439D01*
X429189Y196439D01*
X408014Y217614D01*
X407319Y218078D01*
X406500Y218241D01*
X404067D01*
X404056Y218269D01*
X403367Y219167D01*
X402469Y219856D01*
X401423Y220289D01*
X400300Y220437D01*
X399178Y220289D01*
X398131Y219856D01*
X397233Y219167D01*
X396544Y218269D01*
X396533Y218241D01*
X390141D01*
Y243500D01*
X389978Y244319D01*
X389514Y245014D01*
X366014Y268514D01*
X365319Y268978D01*
X364500Y269141D01*
D02*
G37*
G36*
X303118Y219256D02*
X300453D01*
Y216000D01*
X303118D01*
Y219256D01*
D02*
G37*
G36*
X174700Y220437D02*
X173577Y220289D01*
X172531Y219856D01*
X171633Y219167D01*
X170944Y218269D01*
X170511Y217222D01*
X170363Y216100D01*
X170511Y214978D01*
X170944Y213931D01*
X171633Y213033D01*
X172531Y212344D01*
X173577Y211911D01*
X174700Y211763D01*
X175822Y211911D01*
X176869Y212344D01*
X177767Y213033D01*
X178456Y213931D01*
X178889Y214978D01*
X179037Y216100D01*
X178889Y217222D01*
X178456Y218269D01*
X177767Y219167D01*
X176869Y219856D01*
X175822Y220289D01*
X174700Y220437D01*
D02*
G37*
G36*
X263300Y259438D02*
X262281Y259338D01*
X260820Y258895D01*
X259473Y258175D01*
X258293Y257207D01*
X257325Y256027D01*
X256605Y254680D01*
X256162Y253219D01*
X256062Y252200D01*
X263300D01*
Y259438D01*
D02*
G37*
G36*
X435000Y269496D02*
X433147Y269313D01*
X431366Y268773D01*
X429725Y267895D01*
X428286Y266715D01*
X427105Y265276D01*
X426227Y263634D01*
X425687Y261853D01*
X425504Y260000D01*
X425687Y258148D01*
X426227Y256366D01*
X427105Y254725D01*
X428286Y253286D01*
X429725Y252105D01*
X431366Y251227D01*
X433147Y250687D01*
X435000Y250504D01*
X436853Y250687D01*
X438634Y251227D01*
X440275Y252105D01*
X441714Y253286D01*
X442895Y254725D01*
X443773Y256366D01*
X444313Y258148D01*
X444496Y260000D01*
X444313Y261853D01*
X443773Y263634D01*
X442895Y265276D01*
X441714Y266715D01*
X440275Y267895D01*
X438634Y268773D01*
X436853Y269313D01*
X435000Y269496D01*
D02*
G37*
G36*
X140000D02*
X138147Y269313D01*
X136366Y268773D01*
X134724Y267895D01*
X133285Y266715D01*
X132105Y265276D01*
X131227Y263634D01*
X130687Y261853D01*
X130504Y260000D01*
X130687Y258148D01*
X131227Y256366D01*
X132105Y254725D01*
X133285Y253286D01*
X134724Y252105D01*
X136366Y251227D01*
X138147Y250687D01*
X140000Y250504D01*
X141852Y250687D01*
X143634Y251227D01*
X145275Y252105D01*
X146714Y253286D01*
X147895Y254725D01*
X148773Y256366D01*
X149313Y258148D01*
X149496Y260000D01*
X149313Y261853D01*
X148773Y263634D01*
X147895Y265276D01*
X146714Y266715D01*
X145275Y267895D01*
X143634Y268773D01*
X141852Y269313D01*
X140000Y269496D01*
D02*
G37*
G36*
X311700Y259438D02*
Y252200D01*
X318938D01*
X318838Y253219D01*
X318395Y254680D01*
X317675Y256027D01*
X316707Y257207D01*
X315527Y258175D01*
X314180Y258895D01*
X312719Y259338D01*
X311700Y259438D01*
D02*
G37*
G36*
X310700D02*
X309681Y259338D01*
X308220Y258895D01*
X306873Y258175D01*
X305693Y257207D01*
X304725Y256027D01*
X304005Y254680D01*
X303562Y253219D01*
X303462Y252200D01*
X310700D01*
Y259438D01*
D02*
G37*
G36*
X264300D02*
Y252200D01*
X271538D01*
X271438Y253219D01*
X270995Y254680D01*
X270275Y256027D01*
X269307Y257207D01*
X268127Y258175D01*
X266780Y258895D01*
X265319Y259338D01*
X264300Y259438D01*
D02*
G37*
G36*
X263300Y251200D02*
X256062D01*
X256162Y250181D01*
X256605Y248720D01*
X257325Y247374D01*
X258293Y246193D01*
X259473Y245225D01*
X260820Y244505D01*
X262281Y244062D01*
X263300Y243962D01*
Y251200D01*
D02*
G37*
G36*
X283079Y245271D02*
Y241500D01*
X286850D01*
X286768Y242123D01*
X286335Y243169D01*
X285646Y244067D01*
X284747Y244756D01*
X283701Y245189D01*
X283079Y245271D01*
D02*
G37*
G36*
X282079D02*
X281456Y245189D01*
X280410Y244756D01*
X279512Y244067D01*
X278823Y243169D01*
X278389Y242123D01*
X278308Y241500D01*
X282079D01*
Y245271D01*
D02*
G37*
G36*
X318938Y251200D02*
X311700D01*
Y243962D01*
X312719Y244062D01*
X314180Y244505D01*
X315527Y245225D01*
X316707Y246193D01*
X317675Y247374D01*
X318395Y248720D01*
X318838Y250181D01*
X318938Y251200D01*
D02*
G37*
G36*
X310700D02*
X303462D01*
X303562Y250181D01*
X304005Y248720D01*
X304725Y247374D01*
X305693Y246193D01*
X306873Y245225D01*
X308220Y244505D01*
X309681Y244062D01*
X310700Y243962D01*
Y251200D01*
D02*
G37*
G36*
X271538D02*
X264300D01*
Y243962D01*
X265319Y244062D01*
X266780Y244505D01*
X268127Y245225D01*
X269307Y246193D01*
X270275Y247374D01*
X270995Y248720D01*
X271438Y250181D01*
X271538Y251200D01*
D02*
G37*
G36*
X315500Y182500D02*
X313600D01*
Y180200D01*
X315500D01*
Y182500D01*
D02*
G37*
G36*
X312600D02*
X310700D01*
Y180200D01*
X312600D01*
Y182500D01*
D02*
G37*
G36*
X315500Y185800D02*
X313600D01*
Y183500D01*
X315500D01*
Y185800D01*
D02*
G37*
G36*
X312600D02*
X310700D01*
Y183500D01*
X312600D01*
Y185800D01*
D02*
G37*
G36*
X262256Y177547D02*
X259000D01*
Y174882D01*
X262256D01*
Y177547D01*
D02*
G37*
G36*
X137200Y182937D02*
X136077Y182789D01*
X135031Y182356D01*
X134133Y181667D01*
X133444Y180769D01*
X133011Y179722D01*
X132863Y178600D01*
X133011Y177478D01*
X133444Y176431D01*
X134133Y175533D01*
X135031Y174844D01*
X136077Y174411D01*
X137200Y174263D01*
X138322Y174411D01*
X139369Y174844D01*
X140267Y175533D01*
X140956Y176431D01*
X141389Y177478D01*
X141537Y178600D01*
X141389Y179722D01*
X140956Y180769D01*
X140267Y181667D01*
X139369Y182356D01*
X138322Y182789D01*
X137200Y182937D01*
D02*
G37*
G36*
X352500Y171835D02*
X351798Y171696D01*
X351202Y171298D01*
X351085Y171122D01*
X342500D01*
X342500Y171122D01*
X342071Y171036D01*
X341707Y170793D01*
X311035Y140122D01*
X305668D01*
X305431Y140692D01*
X304893Y141393D01*
X304192Y141931D01*
X303376Y142270D01*
X302500Y142385D01*
X301624Y142270D01*
X300808Y141931D01*
X300107Y141393D01*
X299569Y140692D01*
X299231Y139876D01*
X299115Y139000D01*
X299231Y138124D01*
X299569Y137308D01*
X300107Y136607D01*
X300808Y136069D01*
X301624Y135731D01*
X302500Y135615D01*
X303376Y135731D01*
X304192Y136069D01*
X304893Y136607D01*
X305431Y137308D01*
X305668Y137878D01*
X311500D01*
X311500Y137878D01*
X311929Y137964D01*
X312293Y138207D01*
X342965Y168878D01*
X351085D01*
X351202Y168702D01*
X351798Y168304D01*
X352500Y168165D01*
X353202Y168304D01*
X353798Y168702D01*
X354196Y169298D01*
X354335Y170000D01*
X354196Y170702D01*
X353798Y171298D01*
X353202Y171696D01*
X352500Y171835D01*
D02*
G37*
G36*
X258000Y177547D02*
X254744D01*
Y174882D01*
X258000D01*
Y177547D01*
D02*
G37*
G36*
X212200Y182937D02*
X211077Y182789D01*
X210031Y182356D01*
X209133Y181667D01*
X208444Y180769D01*
X208011Y179722D01*
X207863Y178600D01*
X208011Y177478D01*
X208444Y176431D01*
X209133Y175533D01*
X210031Y174844D01*
X211077Y174411D01*
X212200Y174263D01*
X213322Y174411D01*
X214369Y174844D01*
X215267Y175533D01*
X215956Y176431D01*
X216389Y177478D01*
X216537Y178600D01*
X216389Y179722D01*
X215956Y180769D01*
X215267Y181667D01*
X214369Y182356D01*
X213322Y182789D01*
X212200Y182937D01*
D02*
G37*
G36*
X318900Y205250D02*
X317000D01*
Y202950D01*
X318900D01*
Y205250D01*
D02*
G37*
G36*
X248000Y203707D02*
X245100D01*
Y201607D01*
X248000D01*
Y203707D01*
D02*
G37*
G36*
X321800Y205250D02*
X319900D01*
Y202950D01*
X321800D01*
Y205250D01*
D02*
G37*
G36*
X248000Y206807D02*
X245100D01*
Y204707D01*
X248000D01*
Y206807D01*
D02*
G37*
G36*
X437800Y200737D02*
X436678Y200589D01*
X435632Y200156D01*
X434733Y199467D01*
X434044Y198569D01*
X433611Y197522D01*
X433463Y196400D01*
X433611Y195278D01*
X434044Y194231D01*
X434733Y193333D01*
X435632Y192644D01*
X436678Y192211D01*
X437800Y192063D01*
X438923Y192211D01*
X439968Y192644D01*
X440867Y193333D01*
X441556Y194231D01*
X441989Y195278D01*
X442137Y196400D01*
X441989Y197522D01*
X441556Y198569D01*
X440867Y199467D01*
X439968Y200156D01*
X438923Y200589D01*
X437800Y200737D01*
D02*
G37*
G36*
X212200D02*
X211077Y200589D01*
X210031Y200156D01*
X209133Y199467D01*
X208444Y198569D01*
X208011Y197522D01*
X207863Y196400D01*
X208011Y195278D01*
X208444Y194231D01*
X209133Y193333D01*
X210031Y192644D01*
X211077Y192211D01*
X212200Y192063D01*
X213322Y192211D01*
X214369Y192644D01*
X215267Y193333D01*
X215956Y194231D01*
X216389Y195278D01*
X216537Y196400D01*
X216389Y197522D01*
X215956Y198569D01*
X215267Y199467D01*
X214369Y200156D01*
X213322Y200589D01*
X212200Y200737D01*
D02*
G37*
G36*
X331011Y193100D02*
X322311D01*
Y186300D01*
X331011D01*
Y193100D01*
D02*
G37*
G36*
X362800Y200737D02*
X361678Y200589D01*
X360631Y200156D01*
X359733Y199467D01*
X359044Y198569D01*
X358611Y197522D01*
X358463Y196400D01*
X358611Y195278D01*
X359044Y194231D01*
X359733Y193333D01*
X360631Y192644D01*
X361678Y192211D01*
X362800Y192063D01*
X363923Y192211D01*
X364969Y192644D01*
X365867Y193333D01*
X366556Y194231D01*
X366989Y195278D01*
X367137Y196400D01*
X366989Y197522D01*
X366556Y198569D01*
X365867Y199467D01*
X364969Y200156D01*
X363923Y200589D01*
X362800Y200737D01*
D02*
G37*
G36*
X237800D02*
X236678Y200589D01*
X235631Y200156D01*
X234733Y199467D01*
X234044Y198569D01*
X233611Y197522D01*
X233463Y196400D01*
X233611Y195278D01*
X234044Y194231D01*
X234733Y193333D01*
X235631Y192644D01*
X236678Y192211D01*
X237800Y192063D01*
X238923Y192211D01*
X239969Y192644D01*
X240867Y193333D01*
X241556Y194231D01*
X241989Y195278D01*
X242137Y196400D01*
X241989Y197522D01*
X241556Y198569D01*
X240867Y199467D01*
X239969Y200156D01*
X238923Y200589D01*
X237800Y200737D01*
D02*
G37*
%LPD*%
G36*
X272350Y176466D02*
Y174100D01*
X277150D01*
Y176050D01*
X277566Y176328D01*
X277850Y176211D01*
Y174100D01*
X282479D01*
Y172941D01*
X277850D01*
Y168941D01*
X278878D01*
Y167665D01*
X278702Y167548D01*
X278304Y166952D01*
X278165Y166250D01*
X278304Y165548D01*
X278702Y164952D01*
X279028Y164734D01*
X278883Y164256D01*
X278297D01*
Y160500D01*
X277797D01*
Y160000D01*
X274632D01*
Y156744D01*
X275989D01*
X276225Y156303D01*
X275928Y155858D01*
X275856Y155500D01*
X280144D01*
X280072Y155858D01*
X279775Y156303D01*
X280011Y156744D01*
X280963D01*
Y156842D01*
X281457Y156915D01*
X281533Y156666D01*
X281414Y156586D01*
X280928Y155858D01*
X280856Y155500D01*
X285144D01*
X285072Y155858D01*
X284586Y156586D01*
X284467Y156666D01*
X284612Y157144D01*
X286468D01*
Y162755D01*
X286967Y162788D01*
X286980Y162691D01*
X287292Y161937D01*
X287789Y161289D01*
X288437Y160792D01*
X288776Y160651D01*
Y151507D01*
X287993Y150724D01*
X277507D01*
X271724Y156507D01*
Y176276D01*
X272139Y176554D01*
X272350Y176466D01*
D02*
G37*
%LPC*%
G36*
X277150Y172941D02*
X272350D01*
Y168941D01*
X273879D01*
Y167665D01*
X273702Y167548D01*
X273304Y166952D01*
X273165Y166250D01*
X273304Y165548D01*
X273702Y164952D01*
X274298Y164554D01*
X274632Y164488D01*
Y164256D01*
Y164256D01*
X274632Y162564D01*
X274632Y162564D01*
X274632D01*
Y161000D01*
X277297D01*
Y164256D01*
X276117D01*
X275972Y164734D01*
X276298Y164952D01*
X276696Y165548D01*
X276835Y166250D01*
X276696Y166952D01*
X276298Y167548D01*
X276121Y167665D01*
Y168941D01*
X277150D01*
Y172941D01*
D02*
G37*
G36*
X280144Y154500D02*
X278500D01*
Y152856D01*
X278858Y152928D01*
X279586Y153414D01*
X280072Y154142D01*
X280144Y154500D01*
D02*
G37*
G36*
X277500D02*
X275856D01*
X275928Y154142D01*
X276414Y153414D01*
X277142Y152928D01*
X277500Y152856D01*
Y154500D01*
D02*
G37*
G36*
X285144D02*
X283500D01*
Y152856D01*
X283858Y152928D01*
X284586Y153414D01*
X285072Y154142D01*
X285144Y154500D01*
D02*
G37*
G36*
X282500D02*
X280856D01*
X280928Y154142D01*
X281414Y153414D01*
X282142Y152928D01*
X282500Y152856D01*
Y154500D01*
D02*
G37*
%LPD*%
D10*
X237000Y208000D02*
D03*
X140000Y241000D02*
D03*
X414000Y115000D02*
D03*
D11*
X296386Y202000D02*
D03*
Y205900D02*
D03*
Y203900D02*
D03*
Y200000D02*
D03*
X269600Y186158D02*
D03*
Y188126D02*
D03*
Y190094D02*
D03*
Y192063D02*
D03*
Y194032D02*
D03*
Y196000D02*
D03*
Y198000D02*
D03*
Y200000D02*
D03*
Y202000D02*
D03*
Y203900D02*
D03*
Y205900D02*
D03*
X296386Y198000D02*
D03*
Y196000D02*
D03*
Y194032D02*
D03*
Y192063D02*
D03*
Y190094D02*
D03*
Y188126D02*
D03*
Y186158D02*
D03*
D12*
X273100Y209400D02*
D03*
X275100D02*
D03*
X277000D02*
D03*
X279000D02*
D03*
X281000D02*
D03*
X283000D02*
D03*
X284968D02*
D03*
X286937D02*
D03*
X288906D02*
D03*
X290874D02*
D03*
X292843D02*
D03*
Y182614D02*
D03*
X290874D02*
D03*
X288906D02*
D03*
X286937D02*
D03*
X284968D02*
D03*
X283000D02*
D03*
X281000D02*
D03*
X279000D02*
D03*
X277000D02*
D03*
X275100D02*
D03*
X273100D02*
D03*
D13*
X248500Y211350D02*
D03*
Y204207D02*
D03*
D14*
X311100Y176500D02*
D03*
X303957D02*
D03*
D15*
X274750Y176100D02*
D03*
Y170941D02*
D03*
X280250Y176100D02*
D03*
Y170941D02*
D03*
D16*
X258500Y178047D02*
D03*
Y183953D02*
D03*
X263000Y205047D02*
D03*
Y210953D02*
D03*
X252250Y237453D02*
D03*
Y231547D02*
D03*
D17*
X277797Y160500D02*
D03*
X283703D02*
D03*
X299953Y215500D02*
D03*
X294047D02*
D03*
D18*
X319400Y205750D02*
D03*
X324559D02*
D03*
X313100Y183000D02*
D03*
X307941D02*
D03*
D19*
X326661Y189700D02*
D03*
X309300D02*
D03*
Y199224D02*
D03*
X326661D02*
D03*
D20*
X269600Y188126D02*
X278626D01*
X281000Y190500D01*
Y182614D02*
Y190500D01*
X264147Y203900D02*
X269600D01*
X263000Y205047D02*
X264147Y203900D01*
X266747Y188126D02*
X269600D01*
Y203900D02*
X276600D01*
X291000Y204000D02*
X292843Y205842D01*
Y209400D01*
X290063Y192063D02*
X296386D01*
X290874Y212827D02*
X294047Y216000D01*
Y219047D01*
X295500Y220500D01*
X296500D01*
X299953Y214453D02*
Y216000D01*
X294900Y209400D02*
X299953Y214453D01*
X292843Y209400D02*
X294900D01*
X298953Y216500D02*
X299453Y216000D01*
X298173Y196000D02*
X298541Y195632D01*
X296386Y196000D02*
X298173D01*
X298541Y195632D02*
X304631D01*
X305763Y194500D02*
X321250D01*
X304631Y195632D02*
X305763Y194500D01*
X307559Y189559D02*
Y190441D01*
X303969Y194032D02*
X307559Y190441D01*
X296386Y194032D02*
X303969D01*
X280874Y182740D02*
X281000Y182614D01*
X349000Y161500D02*
X352500Y165000D01*
X349000Y159000D02*
Y161500D01*
X336000Y146000D02*
X349000Y159000D01*
X326000Y146000D02*
X336000D01*
X305500Y125500D02*
X326000Y146000D01*
X352500Y155429D02*
Y160000D01*
X319371Y122300D02*
X352500Y155429D01*
X300000Y125500D02*
X305500D01*
X282000Y143500D02*
X300000Y125500D01*
X229750Y143500D02*
X282000D01*
X287000Y134500D02*
X299200Y122300D01*
X230750Y134500D02*
X287000D01*
X208750Y112500D02*
X230750Y134500D01*
X198750Y112500D02*
X229750Y143500D01*
X299200Y122300D02*
X319371D01*
X342500Y170000D02*
X352500D01*
X311500Y139000D02*
X342500Y170000D01*
X302500Y139000D02*
X311500D01*
X275000Y170559D02*
X275441Y171000D01*
X280000Y169941D02*
X281059Y171000D01*
X300250Y206750D02*
X303500Y210000D01*
X300250Y205500D02*
Y206750D01*
X298650Y203900D02*
X300250Y205500D01*
X311247Y210000D02*
X311500D01*
X301247Y200000D02*
X311247Y210000D01*
X296386Y200000D02*
X301247D01*
X302500Y198000D02*
X303000Y198500D01*
X296386Y198000D02*
X302500D01*
X296386Y203900D02*
X298650D01*
X296386Y202000D02*
X299500D01*
X307500Y210000D01*
X262409Y204457D02*
X263000Y205047D01*
X250250Y204457D02*
X262409D01*
X279650Y176100D02*
X281000D01*
X279000Y176750D02*
X279650Y176100D01*
X279000Y176750D02*
Y182614D01*
X280000Y166250D02*
Y169941D01*
X275000Y166250D02*
Y170559D01*
X324724Y197974D02*
Y199224D01*
X324559Y199390D02*
X324724Y199224D01*
X324559Y199390D02*
Y205750D01*
X321250Y194500D02*
X324724Y197974D01*
X331400Y233900D02*
X374700D01*
X325711Y228211D02*
X331400Y233900D01*
X287711Y228211D02*
X325711D01*
X373600Y196400D02*
X412200D01*
X343400Y226600D02*
X373600Y196400D01*
X289693Y226600D02*
X343400D01*
X374700Y158900D02*
Y175800D01*
X325500Y225000D02*
X374700Y175800D01*
X290922Y225000D02*
X325500D01*
X286937Y221015D02*
X290922Y225000D01*
X284968Y221875D02*
X289693Y226600D01*
X283000Y223500D02*
X287711Y228211D01*
X337200Y196400D02*
Y202050D01*
X316250Y223000D02*
X337200Y202050D01*
X291750Y223000D02*
X316250D01*
X288906Y220156D02*
X291750Y223000D01*
X162800Y178600D02*
X173600D01*
X216400Y221400D01*
X272865D01*
X187500Y153900D02*
X200300Y141100D01*
X187500Y153900D02*
Y182750D01*
X224150Y219400D01*
X272037D01*
X228500Y187900D02*
X237800Y178600D01*
X228500Y187900D02*
Y209750D01*
X236250Y217500D01*
X200300Y216100D02*
X207600Y223400D01*
X273694D01*
X236250Y217500D02*
X271250D01*
X273694Y223400D02*
X281000Y216094D01*
X272865Y221400D02*
X279000Y215265D01*
X272037Y219400D02*
X277000Y214437D01*
X271250Y217500D02*
X275100Y213650D01*
X281000Y209400D02*
Y216094D01*
X279000Y209400D02*
Y215265D01*
X277000Y209400D02*
Y214437D01*
X275100Y209400D02*
Y213650D01*
X283000Y209400D02*
Y223500D01*
X284968Y209400D02*
Y221875D01*
X286937Y209400D02*
Y221015D01*
X288906Y209400D02*
Y220156D01*
X290874Y209400D02*
Y212827D01*
X269600Y205900D02*
Y208400D01*
X267047Y210953D02*
X269600Y208400D01*
X263000Y210953D02*
X267047D01*
X277000Y177600D02*
Y182614D01*
X275500Y176100D02*
X277000Y177600D01*
X275441Y171000D02*
X275500Y170941D01*
X298953Y216500D02*
Y217453D01*
X293047Y217000D02*
Y217047D01*
X308000Y183000D02*
Y190000D01*
X307559Y189559D02*
X308000Y190000D01*
D21*
X388000Y216100D02*
X400300D01*
X374700D02*
X388000D01*
Y243500D01*
X364500Y267000D02*
X388000Y243500D01*
X233400Y267000D02*
X364500D01*
X200300Y233900D02*
X233400Y267000D01*
X265500Y170500D02*
Y177000D01*
X258800Y170500D02*
X265500D01*
X241100Y152800D02*
X258800Y170500D01*
X265500Y177000D02*
X269000Y180500D01*
X232200Y152800D02*
X241100D01*
X226100Y158900D02*
X232200Y152800D01*
X200300Y158900D02*
X226100D01*
X374700Y141100D02*
X400300D01*
X350000Y120000D02*
Y125000D01*
X366100Y141100D01*
X374700D01*
X339750Y120000D02*
X350000D01*
X334750Y115000D02*
X339750Y120000D01*
X228750Y112500D02*
Y121250D01*
X234700Y127200D01*
X241100D01*
X427675Y194925D02*
X437800Y184800D01*
X406500Y216100D02*
X427675Y194925D01*
Y194075D02*
Y194925D01*
X412200Y178600D02*
X427675Y194075D01*
X400300Y216100D02*
X406500D01*
X437800Y178600D02*
Y184800D01*
X326425Y167825D02*
X337200Y178600D01*
X316100Y157500D02*
X326425Y167825D01*
X337200Y178600D02*
X362800D01*
X316100Y152800D02*
Y157500D01*
X147400Y196400D02*
X150000Y199000D01*
X137200Y196400D02*
X147400D01*
X152600D02*
X162800D01*
X150000Y199000D02*
X152600Y196400D01*
X150000Y199000D02*
Y209200D01*
X174700Y233900D01*
X200300D01*
X252250Y231547D02*
X260297D01*
X261950Y233200D01*
X282579D01*
D22*
X290000Y151000D02*
Y163500D01*
X288500Y149500D02*
X290000Y151000D01*
X277000Y149500D02*
X288500D01*
X270500Y156000D02*
X277000Y149500D01*
X270500Y156000D02*
Y177000D01*
X272500Y179000D01*
X274000D01*
X275100Y180100D01*
Y182614D01*
X299500Y190500D02*
X302000D01*
X299095Y190094D02*
X299500Y190500D01*
X296386Y190094D02*
X299095D01*
X269000Y185557D02*
X269600Y186158D01*
X269000Y180500D02*
Y185557D01*
X317750Y176500D02*
X326425Y167825D01*
X311100Y176500D02*
X317750D01*
X284968Y180327D02*
X285750Y179546D01*
Y167750D02*
Y179546D01*
Y167750D02*
X290000Y163500D01*
X283000Y179750D02*
X283703Y179047D01*
Y160500D02*
Y179047D01*
X284968Y180327D02*
Y182614D01*
X283000Y179750D02*
Y182614D01*
D23*
X263500Y188500D02*
X265000D01*
X260726Y185726D02*
X263500Y188500D01*
X253500Y201500D02*
X266000D01*
X266500Y202000D01*
X269600D01*
X257000Y199000D02*
X262000D01*
X263000Y200000D01*
X269600D01*
X253500Y196000D02*
X261000D01*
X263000Y198000D01*
X269600D01*
X257000Y193500D02*
X261000D01*
X263500Y196000D01*
X269600D01*
X253500Y191000D02*
X261000D01*
X264032Y194032D01*
X269600D01*
X257000Y188500D02*
X261000D01*
X264563Y192063D01*
X269600D01*
X265000Y188500D02*
X266595Y190094D01*
X269600D01*
X303957Y175543D02*
X307750Y171750D01*
X303957Y175543D02*
Y176500D01*
X248500Y211350D02*
X249600D01*
X253250Y215000D01*
X270000D01*
X296386Y206886D02*
X299500Y210000D01*
X296386Y205900D02*
Y206886D01*
X299500Y182000D02*
Y185000D01*
X298342Y186158D02*
X299500Y185000D01*
X296386Y186158D02*
X298342D01*
X303957Y176500D02*
Y185793D01*
X301624Y188126D02*
X303957Y185793D01*
X296386Y188126D02*
X301624D01*
X295000Y179250D02*
X298000Y176250D01*
X293750Y179250D02*
X295000D01*
X292843Y180157D02*
X293750Y179250D01*
X292843Y180157D02*
Y182614D01*
X290874Y179126D02*
X293750Y176250D01*
X290874Y179126D02*
Y182614D01*
X291250Y172500D02*
Y174750D01*
X288906Y177094D02*
X291250Y174750D01*
X288906Y177094D02*
Y182614D01*
X287350Y172150D02*
Y180208D01*
X270000Y215000D02*
X273100Y211900D01*
Y209400D02*
Y211900D01*
X295000Y137500D02*
Y164500D01*
X287350Y172150D02*
X295000Y164500D01*
Y137500D02*
X302500Y130000D01*
X286937Y180621D02*
X287350Y180208D01*
X286937Y180621D02*
Y182614D01*
D24*
X171900Y233900D02*
X174700D01*
X262953Y211000D02*
X263000Y210953D01*
X255750Y211000D02*
X262953D01*
D25*
X283000Y196500D02*
D03*
D26*
X435000Y260000D02*
D03*
Y115000D02*
D03*
X150000Y150000D02*
D03*
X140000Y260000D02*
D03*
D27*
X158750Y112500D02*
D03*
X228750D02*
D03*
X218750D02*
D03*
X208750D02*
D03*
X198750D02*
D03*
X188750D02*
D03*
X178750D02*
D03*
X168750D02*
D03*
X148750D02*
D03*
X360000Y110000D02*
D03*
X370000D02*
D03*
X350000Y120000D02*
D03*
X360000D02*
D03*
X370000D02*
D03*
D28*
X138750Y112500D02*
D03*
X350000Y110000D02*
D03*
D29*
X137200Y196400D02*
D03*
X162800D02*
D03*
X137200Y178600D02*
D03*
X162800D02*
D03*
X174700Y233900D02*
D03*
X200300D02*
D03*
X174700Y216100D02*
D03*
X200300D02*
D03*
X174700Y158900D02*
D03*
X200300D02*
D03*
X174700Y141100D02*
D03*
X200300D02*
D03*
X212200Y196400D02*
D03*
X237800D02*
D03*
X212200Y178600D02*
D03*
X237800D02*
D03*
X437800D02*
D03*
X412200D02*
D03*
X437800Y196400D02*
D03*
X412200D02*
D03*
X400300Y141100D02*
D03*
X374700D02*
D03*
X400300Y158900D02*
D03*
X374700D02*
D03*
X400300Y216100D02*
D03*
X374700D02*
D03*
X400300Y233900D02*
D03*
X374700D02*
D03*
X362800Y178600D02*
D03*
X337200D02*
D03*
X362800Y196400D02*
D03*
X337200D02*
D03*
X316100Y127200D02*
D03*
Y152800D02*
D03*
X333900Y127200D02*
D03*
Y152800D02*
D03*
X241100Y127200D02*
D03*
Y152800D02*
D03*
X258900Y127200D02*
D03*
Y152800D02*
D03*
X267500Y107500D02*
D03*
Y117500D02*
D03*
X287500Y107500D02*
D03*
Y117500D02*
D03*
X307500Y107500D02*
D03*
Y117500D02*
D03*
D30*
X311200Y251700D02*
D03*
X263800D02*
D03*
D31*
X282579Y241000D02*
D03*
X292500D02*
D03*
Y233200D02*
D03*
X282579D02*
D03*
D32*
X302500Y130000D02*
D03*
X272500D02*
D03*
X302500Y139000D02*
D03*
X272500D02*
D03*
X302500Y147500D02*
D03*
X272500D02*
D03*
D33*
X296500Y220500D02*
D03*
X264000Y159000D02*
D03*
X283000Y155000D02*
D03*
X278000D02*
D03*
X302000Y190500D02*
D03*
X352500Y160000D02*
D03*
Y165000D02*
D03*
Y170000D02*
D03*
X299500Y210000D02*
D03*
X303500D02*
D03*
X307500D02*
D03*
X253500Y191000D02*
D03*
X257000Y199000D02*
D03*
Y188500D02*
D03*
X253500Y196000D02*
D03*
Y201500D02*
D03*
X257000Y193500D02*
D03*
X307750Y171750D02*
D03*
X302500Y198000D02*
D03*
X293750Y176250D02*
D03*
X298000D02*
D03*
X291250Y172500D02*
D03*
X280000Y166250D02*
D03*
X275000D02*
D03*
X299500Y182000D02*
D03*
X311500Y210000D02*
D03*
D34*
X265500Y170500D02*
D03*
X255750Y211000D02*
D03*
X290000Y163500D02*
D03*
D35*
X334750Y115000D02*
D03*
M02*
