%FSLAX25Y25*%
%MOIN*%
G70*
G01*
G75*
G04 Layer_Color=32896*
G04:AMPARAMS|DCode=10|XSize=40mil|YSize=40mil|CornerRadius=20mil|HoleSize=0mil|Usage=FLASHONLY|Rotation=0.000|XOffset=0mil|YOffset=0mil|HoleType=Round|Shape=RoundedRectangle|*
%AMROUNDEDRECTD10*
21,1,0.04000,0.00000,0,0,0.0*
21,1,0.00000,0.04000,0,0,0.0*
1,1,0.04000,0.00000,0.00000*
1,1,0.04000,0.00000,0.00000*
1,1,0.04000,0.00000,0.00000*
1,1,0.04000,0.00000,0.00000*
%
%ADD10ROUNDEDRECTD10*%
%ADD11R,0.03200X0.01200*%
%ADD12R,0.01200X0.03200*%
%ADD13R,0.04800X0.03200*%
%ADD14R,0.03200X0.04800*%
%ADD15R,0.03600X0.02800*%
%ADD16R,0.05512X0.04331*%
%ADD17R,0.04331X0.05512*%
%ADD18R,0.02800X0.03600*%
%ADD19R,0.07500X0.05600*%
%ADD20C,0.01000*%
%ADD21C,0.03000*%
%ADD22C,0.01200*%
%ADD23C,0.00800*%
%ADD24C,0.02000*%
%ADD25R,0.18000X0.18000*%
%ADD26C,0.06000*%
%ADD27C,0.05906*%
%ADD28R,0.05906X0.05906*%
%ADD29C,0.07400*%
%ADD30C,0.13500*%
%ADD31C,0.06600*%
%ADD32C,0.05512*%
%ADD33C,0.02400*%
%ADD34C,0.05000*%
%ADD35C,0.02300*%
%ADD36C,0.00000*%
%ADD37C,0.00787*%
%ADD38C,0.00600*%
%ADD39C,0.01600*%
%ADD40R,0.02800X0.01600*%
%ADD41C,0.05000*%
%ADD42R,0.18000X0.17500*%
G04:AMPARAMS|DCode=43|XSize=48mil|YSize=48mil|CornerRadius=24mil|HoleSize=0mil|Usage=FLASHONLY|Rotation=0.000|XOffset=0mil|YOffset=0mil|HoleType=Round|Shape=RoundedRectangle|*
%AMROUNDEDRECTD43*
21,1,0.04800,0.00000,0,0,0.0*
21,1,0.00000,0.04800,0,0,0.0*
1,1,0.04800,0.00000,0.00000*
1,1,0.04800,0.00000,0.00000*
1,1,0.04800,0.00000,0.00000*
1,1,0.04800,0.00000,0.00000*
%
%ADD43ROUNDEDRECTD43*%
%ADD44R,0.04000X0.02000*%
%ADD45R,0.02000X0.04000*%
%ADD46R,0.05600X0.04000*%
%ADD47R,0.04000X0.05600*%
%ADD48R,0.04400X0.03600*%
%ADD49R,0.06312X0.05131*%
%ADD50R,0.05131X0.06312*%
%ADD51R,0.03600X0.04400*%
%ADD52R,0.08300X0.06400*%
%ADD53C,0.06800*%
%ADD54C,0.06706*%
%ADD55R,0.06706X0.06706*%
%ADD56C,0.08200*%
%ADD57C,0.14300*%
%ADD58C,0.06312*%
%ADD59C,0.03100*%
%ADD60C,0.03200*%
%ADD61C,0.05800*%
G36*
X388263Y131686D02*
X388701D01*
Y131249D01*
X389138D01*
Y130811D01*
X390013D01*
Y130374D01*
X390451D01*
Y129936D01*
Y129499D01*
X390888D01*
Y129061D01*
X391326D01*
Y128624D01*
X391763D01*
Y128186D01*
X392201D01*
Y127749D01*
X392638D01*
Y127311D01*
X393076D01*
Y126873D01*
X393513D01*
Y126436D01*
X393951D01*
Y125998D01*
X394389D01*
Y125561D01*
X394826D01*
Y125123D01*
X395264D01*
Y124686D01*
X395701D01*
Y124248D01*
X396139D01*
Y123811D01*
X396576D01*
Y123373D01*
X397014D01*
Y122936D01*
X397451D01*
Y122498D01*
X397889D01*
Y122061D01*
X398326D01*
Y121623D01*
X398764D01*
Y121185D01*
X403577D01*
Y121623D01*
Y122061D01*
X404014D01*
Y122498D01*
X406202D01*
Y122061D01*
X407077D01*
Y121623D01*
X407515D01*
Y121185D01*
Y120748D01*
Y120310D01*
Y119873D01*
Y119435D01*
X407077D01*
Y118998D01*
X404014D01*
Y119435D01*
X403577D01*
Y119873D01*
X397889D01*
Y120310D01*
X397451D01*
Y120748D01*
X397014D01*
Y121185D01*
X396576D01*
Y121623D01*
X396139D01*
Y122061D01*
Y122498D01*
X395701D01*
Y122936D01*
X395264D01*
Y123373D01*
X394826D01*
Y123811D01*
X394389D01*
Y124248D01*
X393951D01*
Y124686D01*
X393513D01*
Y125123D01*
X393076D01*
Y125561D01*
X392638D01*
Y125998D01*
X392201D01*
Y126436D01*
X391763D01*
Y126873D01*
X391326D01*
Y127311D01*
X390888D01*
Y127749D01*
X390451D01*
Y128186D01*
X390013D01*
Y128624D01*
X389576D01*
Y129061D01*
X388701D01*
Y128624D01*
X387388D01*
Y128186D01*
X386075D01*
Y128624D01*
X385638D01*
Y129061D01*
X385200D01*
Y129499D01*
Y129936D01*
Y130374D01*
Y130811D01*
Y131249D01*
X385638D01*
Y131686D01*
X386513D01*
Y132124D01*
X388263D01*
Y131686D01*
D02*
G37*
G36*
X169930Y123811D02*
X170368D01*
Y123373D01*
X177806D01*
Y123811D01*
X179993D01*
Y123373D01*
X180431D01*
Y122936D01*
Y122498D01*
Y122061D01*
X179993D01*
Y121623D01*
X179556D01*
Y121185D01*
X177806D01*
Y121623D01*
X177368D01*
Y122061D01*
X169930D01*
Y121623D01*
X169492D01*
Y122061D01*
X169055D01*
Y121623D01*
X168617D01*
Y122061D01*
X167305D01*
Y122498D01*
X166867D01*
Y122936D01*
Y123373D01*
Y123811D01*
X167305D01*
Y124248D01*
X169930D01*
Y123811D01*
D02*
G37*
G36*
X370761Y119873D02*
Y119435D01*
Y118998D01*
Y118560D01*
Y118123D01*
Y117685D01*
Y117247D01*
Y116810D01*
Y116373D01*
Y115935D01*
Y115497D01*
Y115060D01*
Y114622D01*
Y114185D01*
Y113747D01*
Y113310D01*
Y112872D01*
Y112435D01*
Y111997D01*
Y111559D01*
Y111122D01*
Y110684D01*
Y110247D01*
Y109809D01*
Y109372D01*
Y108934D01*
Y108497D01*
Y108059D01*
Y107622D01*
X367261D01*
Y108059D01*
Y108497D01*
Y108934D01*
Y109372D01*
Y109809D01*
Y110247D01*
Y110684D01*
Y111122D01*
Y111559D01*
Y111997D01*
Y112435D01*
X362011D01*
Y111997D01*
Y111559D01*
Y111122D01*
Y110684D01*
Y110247D01*
Y109809D01*
Y109372D01*
Y108934D01*
Y108497D01*
Y108059D01*
Y107622D01*
X358073D01*
Y108059D01*
Y108497D01*
Y108934D01*
Y109372D01*
Y109809D01*
Y110247D01*
Y110684D01*
Y111122D01*
Y111559D01*
Y111997D01*
Y112435D01*
Y112872D01*
Y113310D01*
Y113747D01*
Y114185D01*
Y114622D01*
Y115060D01*
Y115497D01*
Y115935D01*
Y116373D01*
Y116810D01*
Y117247D01*
Y117685D01*
Y118123D01*
Y118560D01*
Y118998D01*
Y119435D01*
Y119873D01*
Y120310D01*
X362011D01*
Y119873D01*
Y119435D01*
Y118998D01*
Y118560D01*
Y118123D01*
Y117685D01*
Y117247D01*
Y116810D01*
Y116373D01*
Y115935D01*
X367261D01*
Y116373D01*
Y116810D01*
Y117247D01*
Y117685D01*
Y118123D01*
Y118560D01*
Y118998D01*
Y119435D01*
Y119873D01*
Y120310D01*
X370761D01*
Y119873D01*
D02*
G37*
G36*
X198370D02*
Y119435D01*
Y118998D01*
Y118560D01*
Y118123D01*
Y117685D01*
Y117247D01*
Y116810D01*
Y116373D01*
Y115935D01*
Y115497D01*
Y115060D01*
Y114622D01*
Y114185D01*
Y113747D01*
Y113310D01*
Y112872D01*
Y112435D01*
Y111997D01*
Y111559D01*
Y111122D01*
Y110684D01*
Y110247D01*
Y109809D01*
Y109372D01*
Y108934D01*
Y108497D01*
Y108059D01*
Y107622D01*
X194870D01*
Y108059D01*
Y108497D01*
Y108934D01*
Y109372D01*
Y109809D01*
Y110247D01*
Y110684D01*
Y111122D01*
Y111559D01*
Y111997D01*
X189182D01*
Y111559D01*
Y111122D01*
Y110684D01*
Y110247D01*
Y109809D01*
Y109372D01*
Y108934D01*
Y108497D01*
Y108059D01*
Y107622D01*
X185681D01*
Y108059D01*
Y108497D01*
Y108934D01*
Y109372D01*
Y109809D01*
Y110247D01*
Y110684D01*
Y111122D01*
Y111559D01*
Y111997D01*
Y112435D01*
Y112872D01*
Y113310D01*
Y113747D01*
Y114185D01*
Y114622D01*
Y115060D01*
Y115497D01*
X190494D01*
Y115935D01*
Y116373D01*
Y116810D01*
X186119D01*
Y117247D01*
Y117685D01*
Y118123D01*
Y118560D01*
Y118998D01*
Y119435D01*
Y119873D01*
X193120D01*
Y119435D01*
X193557D01*
Y118998D01*
X193120D01*
Y118560D01*
Y118123D01*
Y117685D01*
Y117247D01*
Y116810D01*
Y116373D01*
X193557D01*
Y115935D01*
Y115497D01*
X194870D01*
Y115935D01*
Y116373D01*
Y116810D01*
Y117247D01*
Y117685D01*
Y118123D01*
Y118560D01*
Y118998D01*
Y119435D01*
Y119873D01*
Y120310D01*
X198370D01*
Y119873D01*
D02*
G37*
G36*
X262689D02*
Y119435D01*
Y118998D01*
Y118560D01*
Y118123D01*
Y117685D01*
Y117247D01*
Y116810D01*
Y116373D01*
Y115935D01*
Y115497D01*
Y115060D01*
Y114622D01*
Y114185D01*
Y113747D01*
Y113310D01*
Y112872D01*
Y112435D01*
Y111997D01*
Y111559D01*
Y111122D01*
Y110684D01*
Y110247D01*
Y109809D01*
Y109372D01*
Y108934D01*
Y108497D01*
Y108059D01*
Y107622D01*
X259626D01*
Y108059D01*
Y108497D01*
Y108934D01*
Y109372D01*
Y109809D01*
Y110247D01*
Y110684D01*
Y111122D01*
Y111559D01*
Y111997D01*
Y112435D01*
X253500D01*
Y111997D01*
Y111559D01*
Y111122D01*
Y110684D01*
Y110247D01*
Y109809D01*
Y109372D01*
Y108934D01*
Y108497D01*
Y108059D01*
X250437D01*
Y108497D01*
Y108934D01*
Y109372D01*
Y109809D01*
Y110247D01*
Y110684D01*
Y111122D01*
Y111559D01*
Y111997D01*
Y112435D01*
Y112872D01*
Y113310D01*
Y113747D01*
Y114185D01*
Y114622D01*
Y115060D01*
Y115497D01*
Y115935D01*
Y116373D01*
Y116810D01*
Y117247D01*
Y117685D01*
Y118123D01*
Y118560D01*
Y118998D01*
Y119435D01*
Y119873D01*
Y120310D01*
X253500D01*
Y119873D01*
Y119435D01*
Y118998D01*
Y118560D01*
Y118123D01*
Y117685D01*
Y117247D01*
Y116810D01*
Y116373D01*
Y115935D01*
Y115497D01*
X259626D01*
Y115935D01*
Y116373D01*
Y116810D01*
Y117247D01*
Y117685D01*
Y118123D01*
Y118560D01*
Y118998D01*
Y119435D01*
Y119873D01*
Y120310D01*
X262689D01*
Y119873D01*
D02*
G37*
G36*
X287629Y150938D02*
Y150501D01*
Y150063D01*
Y149626D01*
Y149188D01*
Y148750D01*
Y148313D01*
Y147875D01*
Y147438D01*
Y147000D01*
Y146563D01*
Y146125D01*
Y145688D01*
Y145250D01*
Y144813D01*
Y144375D01*
Y143938D01*
Y143500D01*
X267502D01*
Y143062D01*
Y142625D01*
Y142187D01*
Y141750D01*
Y141312D01*
Y140875D01*
X287629D01*
Y140437D01*
Y140000D01*
Y139562D01*
Y139125D01*
Y138687D01*
Y138250D01*
Y137812D01*
Y137374D01*
Y136937D01*
Y136499D01*
Y136062D01*
Y135624D01*
Y135187D01*
Y134749D01*
Y134312D01*
Y133874D01*
Y133437D01*
Y132999D01*
Y132562D01*
Y132124D01*
Y131686D01*
Y131249D01*
Y130811D01*
Y130374D01*
Y129936D01*
Y129499D01*
Y129061D01*
Y128624D01*
Y128186D01*
Y127749D01*
Y127311D01*
Y126873D01*
Y126436D01*
Y125998D01*
Y125561D01*
Y125123D01*
Y124686D01*
Y124248D01*
Y123811D01*
Y123373D01*
X259626D01*
Y123811D01*
Y124248D01*
Y124686D01*
Y125123D01*
Y125561D01*
Y125998D01*
Y126436D01*
Y126873D01*
Y127311D01*
Y127749D01*
Y128186D01*
Y128624D01*
Y129061D01*
Y129499D01*
Y129936D01*
Y130374D01*
Y130811D01*
X280190D01*
Y131249D01*
Y131686D01*
Y132124D01*
Y132562D01*
Y132999D01*
Y133437D01*
X260064D01*
Y133874D01*
Y134312D01*
Y134749D01*
Y135187D01*
Y135624D01*
Y136062D01*
Y136499D01*
Y136937D01*
Y137374D01*
Y137812D01*
Y138250D01*
Y138687D01*
Y139125D01*
Y139562D01*
Y140000D01*
Y140437D01*
Y140875D01*
Y141312D01*
Y141750D01*
Y142187D01*
Y142625D01*
Y143062D01*
Y143500D01*
X259626D01*
Y143938D01*
Y144375D01*
Y144813D01*
Y145250D01*
Y145688D01*
Y146125D01*
Y146563D01*
Y147000D01*
Y147438D01*
Y147875D01*
Y148313D01*
Y148750D01*
Y149188D01*
Y149626D01*
Y150063D01*
Y150501D01*
Y150938D01*
Y151376D01*
X287629D01*
Y150938D01*
D02*
G37*
G36*
X393951Y131686D02*
X394389D01*
Y131249D01*
Y130811D01*
Y130374D01*
Y129936D01*
Y129499D01*
X394826D01*
Y129061D01*
X395264D01*
Y128624D01*
Y128186D01*
X395701D01*
Y127749D01*
X396139D01*
Y127311D01*
X396576D01*
Y126873D01*
X397014D01*
Y126436D01*
X399639D01*
Y126873D01*
Y127311D01*
Y127749D01*
X400077D01*
Y128186D01*
X401389D01*
Y127749D01*
X401827D01*
Y127311D01*
X402264D01*
Y126873D01*
X402702D01*
Y126436D01*
Y125998D01*
Y125561D01*
Y125123D01*
Y124686D01*
X402264D01*
Y124248D01*
X400514D01*
Y124686D01*
X400077D01*
Y125123D01*
X396139D01*
Y125561D01*
X395701D01*
Y125998D01*
Y126436D01*
X395264D01*
Y126873D01*
X394826D01*
Y127311D01*
X394389D01*
Y127749D01*
X393951D01*
Y128186D01*
Y128624D01*
X391763D01*
Y129061D01*
X391326D01*
Y129499D01*
Y129936D01*
X390888D01*
Y130374D01*
Y130811D01*
Y131249D01*
X391326D01*
Y131686D01*
X392638D01*
Y132124D01*
X393951D01*
Y131686D01*
D02*
G37*
G36*
X257876Y150938D02*
Y150501D01*
Y150063D01*
Y149626D01*
Y149188D01*
Y148750D01*
Y148313D01*
Y147875D01*
Y147438D01*
Y147000D01*
Y146563D01*
Y146125D01*
Y145688D01*
Y145250D01*
Y144813D01*
Y144375D01*
Y143938D01*
Y143500D01*
Y143062D01*
Y142625D01*
Y142187D01*
Y141750D01*
Y141312D01*
Y140875D01*
Y140437D01*
Y140000D01*
Y139562D01*
Y139125D01*
Y138687D01*
Y138250D01*
Y137812D01*
Y137374D01*
Y136937D01*
Y136499D01*
Y136062D01*
Y135624D01*
Y135187D01*
Y134749D01*
Y134312D01*
Y133874D01*
Y133437D01*
Y132999D01*
Y132562D01*
Y132124D01*
Y131686D01*
Y131249D01*
Y130811D01*
Y130374D01*
Y129936D01*
Y129499D01*
Y129061D01*
Y128624D01*
Y128186D01*
Y127749D01*
Y127311D01*
Y126873D01*
Y126436D01*
Y125998D01*
Y125561D01*
Y125123D01*
Y124686D01*
Y124248D01*
Y123811D01*
Y123373D01*
X229873D01*
Y123811D01*
Y124248D01*
Y124686D01*
Y125123D01*
Y125561D01*
Y125998D01*
Y126436D01*
Y126873D01*
Y127311D01*
Y127749D01*
Y128186D01*
Y128624D01*
Y129061D01*
Y129499D01*
Y129936D01*
Y130374D01*
Y130811D01*
Y131249D01*
Y131686D01*
Y132124D01*
Y132562D01*
Y132999D01*
Y133437D01*
Y133874D01*
Y134312D01*
Y134749D01*
Y135187D01*
Y135624D01*
Y136062D01*
Y136499D01*
Y136937D01*
Y137374D01*
Y137812D01*
Y138250D01*
Y138687D01*
Y139125D01*
Y139562D01*
Y140000D01*
Y140437D01*
Y140875D01*
Y141312D01*
Y141750D01*
Y142187D01*
Y142625D01*
Y143062D01*
Y143500D01*
Y143938D01*
Y144375D01*
Y144813D01*
Y145250D01*
Y145688D01*
Y146125D01*
Y146563D01*
Y147000D01*
Y147438D01*
Y147875D01*
Y148313D01*
Y148750D01*
Y149188D01*
Y149626D01*
Y150063D01*
Y150501D01*
Y150938D01*
Y151376D01*
X257876D01*
Y150938D01*
D02*
G37*
G36*
X354572D02*
Y150501D01*
Y150063D01*
Y149626D01*
Y149188D01*
Y148750D01*
Y148313D01*
Y147875D01*
Y147438D01*
Y147000D01*
Y146563D01*
Y146125D01*
Y145688D01*
Y145250D01*
Y144813D01*
Y144375D01*
Y143938D01*
Y143500D01*
X348009D01*
Y143062D01*
X344509D01*
Y142625D01*
Y142187D01*
Y141750D01*
Y141312D01*
Y140875D01*
Y140437D01*
Y140000D01*
Y139562D01*
Y139125D01*
Y138687D01*
Y138250D01*
Y137812D01*
Y137374D01*
Y136937D01*
Y136499D01*
Y136062D01*
Y135624D01*
Y135187D01*
Y134749D01*
Y134312D01*
Y133874D01*
Y133437D01*
Y132999D01*
Y132562D01*
Y132124D01*
Y131686D01*
Y131249D01*
Y130811D01*
Y130374D01*
Y129936D01*
Y129499D01*
Y129061D01*
Y128624D01*
Y128186D01*
Y127749D01*
Y127311D01*
Y126873D01*
Y126436D01*
Y125998D01*
Y125561D01*
Y125123D01*
Y124686D01*
Y124248D01*
Y123811D01*
Y123373D01*
X344071D01*
Y122936D01*
X336633D01*
Y123373D01*
Y123811D01*
Y124248D01*
Y124686D01*
Y125123D01*
Y125561D01*
Y125998D01*
Y126436D01*
Y126873D01*
Y127311D01*
Y127749D01*
Y128186D01*
Y128624D01*
Y129061D01*
Y129499D01*
Y129936D01*
Y130374D01*
Y130811D01*
Y131249D01*
Y131686D01*
Y132124D01*
Y132562D01*
Y132999D01*
Y133437D01*
Y133874D01*
Y134312D01*
Y134749D01*
Y135187D01*
Y135624D01*
Y136062D01*
Y136499D01*
Y136937D01*
Y137374D01*
Y137812D01*
Y138250D01*
Y138687D01*
Y139125D01*
Y139562D01*
Y140000D01*
Y140437D01*
Y140875D01*
Y141312D01*
Y141750D01*
Y142187D01*
Y142625D01*
Y143062D01*
Y143500D01*
X326132D01*
Y143938D01*
Y144375D01*
Y144813D01*
Y145250D01*
Y145688D01*
Y146125D01*
Y146563D01*
Y147000D01*
Y147438D01*
Y147875D01*
Y148313D01*
Y148750D01*
Y149188D01*
Y149626D01*
Y150063D01*
Y150501D01*
Y150938D01*
Y151376D01*
X354572D01*
Y150938D01*
D02*
G37*
G36*
X228123D02*
Y150501D01*
Y150063D01*
Y149626D01*
Y149188D01*
Y148750D01*
Y148313D01*
Y147875D01*
Y147438D01*
Y147000D01*
Y146563D01*
Y146125D01*
Y145688D01*
Y145250D01*
Y144813D01*
Y144375D01*
Y143938D01*
Y143500D01*
X222872D01*
Y143062D01*
Y142625D01*
Y142187D01*
Y141750D01*
Y141312D01*
Y140875D01*
Y140437D01*
Y140000D01*
Y139562D01*
Y139125D01*
Y138687D01*
Y138250D01*
Y137812D01*
Y137374D01*
Y136937D01*
Y136499D01*
Y136062D01*
Y135624D01*
Y135187D01*
Y134749D01*
Y134312D01*
Y133874D01*
Y133437D01*
Y132999D01*
Y132562D01*
Y132124D01*
Y131686D01*
Y131249D01*
Y130811D01*
Y130374D01*
Y129936D01*
Y129499D01*
Y129061D01*
Y128624D01*
Y128186D01*
Y127749D01*
Y127311D01*
Y126873D01*
Y126436D01*
Y125998D01*
Y125561D01*
Y125123D01*
Y124686D01*
Y124248D01*
Y123811D01*
Y123373D01*
X215872D01*
Y123811D01*
Y124248D01*
Y124686D01*
Y125123D01*
Y125561D01*
Y125998D01*
Y126436D01*
Y126873D01*
Y127311D01*
Y127749D01*
Y128186D01*
Y128624D01*
Y129061D01*
Y129499D01*
Y129936D01*
Y130374D01*
Y130811D01*
Y131249D01*
Y131686D01*
Y132124D01*
Y132562D01*
Y132999D01*
Y133437D01*
Y133874D01*
Y134312D01*
Y134749D01*
Y135187D01*
Y135624D01*
Y136062D01*
Y136499D01*
Y136937D01*
Y137374D01*
Y137812D01*
Y138250D01*
Y138687D01*
Y139125D01*
Y139562D01*
Y140000D01*
Y140437D01*
Y140875D01*
Y141312D01*
Y141750D01*
Y142187D01*
Y142625D01*
Y143062D01*
Y143500D01*
X215434D01*
Y143938D01*
Y144375D01*
Y144813D01*
Y145250D01*
Y145688D01*
Y146125D01*
Y146563D01*
Y147000D01*
Y147438D01*
Y147875D01*
Y148313D01*
Y148750D01*
Y149188D01*
Y149626D01*
Y150063D01*
Y150501D01*
Y150938D01*
Y151376D01*
X228123D01*
Y150938D01*
D02*
G37*
G36*
X242562Y119873D02*
Y119435D01*
Y118998D01*
Y118560D01*
Y118123D01*
Y117685D01*
Y117247D01*
Y116810D01*
Y116373D01*
Y115935D01*
Y115497D01*
Y115060D01*
Y114622D01*
Y114185D01*
Y113747D01*
Y113310D01*
Y112872D01*
Y112435D01*
Y111997D01*
Y111559D01*
Y111122D01*
Y110684D01*
Y110247D01*
Y109809D01*
Y109372D01*
Y108934D01*
Y108497D01*
Y108059D01*
Y107622D01*
X228123D01*
Y108059D01*
Y108497D01*
Y108934D01*
Y109372D01*
Y109809D01*
Y110247D01*
Y110684D01*
Y111122D01*
Y111559D01*
Y111997D01*
Y112435D01*
Y112872D01*
Y113310D01*
Y113747D01*
Y114185D01*
Y114622D01*
Y115060D01*
Y115497D01*
Y115935D01*
Y116373D01*
Y116810D01*
Y117247D01*
Y117685D01*
Y118123D01*
Y118560D01*
Y118998D01*
Y119435D01*
Y119873D01*
Y120310D01*
X231186D01*
Y119873D01*
Y119435D01*
Y118998D01*
Y118560D01*
Y118123D01*
Y117685D01*
Y117247D01*
Y116810D01*
Y116373D01*
Y115935D01*
Y115497D01*
Y115060D01*
Y114622D01*
Y114185D01*
Y113747D01*
Y113310D01*
Y112872D01*
Y112435D01*
Y111997D01*
Y111559D01*
Y111122D01*
X233811D01*
Y111559D01*
Y111997D01*
Y112435D01*
Y112872D01*
Y113310D01*
Y113747D01*
Y114185D01*
Y114622D01*
Y115060D01*
Y115497D01*
Y115935D01*
Y116373D01*
Y116810D01*
Y117247D01*
Y117685D01*
Y118123D01*
Y118560D01*
Y118998D01*
Y119435D01*
Y119873D01*
Y120310D01*
X236874D01*
Y119873D01*
Y119435D01*
Y118998D01*
Y118560D01*
Y118123D01*
Y117685D01*
Y117247D01*
Y116810D01*
Y116373D01*
Y115935D01*
Y115497D01*
Y115060D01*
Y114622D01*
Y114185D01*
Y113747D01*
Y113310D01*
Y112872D01*
Y112435D01*
Y111997D01*
Y111559D01*
Y111122D01*
X239499D01*
Y111559D01*
Y111997D01*
Y112435D01*
Y112872D01*
Y113310D01*
Y113747D01*
Y114185D01*
Y114622D01*
Y115060D01*
Y115497D01*
Y115935D01*
Y116373D01*
Y116810D01*
Y117247D01*
Y117685D01*
Y118123D01*
Y118560D01*
Y118998D01*
Y119435D01*
Y119873D01*
Y120310D01*
X242562D01*
Y119873D01*
D02*
G37*
G36*
X356760D02*
Y119435D01*
Y118998D01*
Y118560D01*
Y118123D01*
Y117685D01*
Y117247D01*
Y116810D01*
Y116373D01*
Y115935D01*
Y115497D01*
Y115060D01*
Y114622D01*
Y114185D01*
Y113747D01*
Y113310D01*
Y112872D01*
Y112435D01*
Y111997D01*
Y111559D01*
Y111122D01*
Y110684D01*
Y110247D01*
Y109809D01*
Y109372D01*
Y108934D01*
Y108497D01*
Y108059D01*
Y107622D01*
X353260D01*
Y108059D01*
Y108497D01*
Y108934D01*
Y109372D01*
Y109809D01*
Y110247D01*
Y110684D01*
Y111122D01*
Y111559D01*
Y111997D01*
Y112435D01*
Y112872D01*
Y113310D01*
Y113747D01*
Y114185D01*
Y114622D01*
Y115060D01*
Y115497D01*
Y115935D01*
Y116373D01*
Y116810D01*
Y117247D01*
Y117685D01*
Y118123D01*
Y118560D01*
Y118998D01*
Y119435D01*
Y119873D01*
Y120310D01*
X356760D01*
Y119873D01*
D02*
G37*
G36*
X384763D02*
Y119435D01*
Y118998D01*
Y118560D01*
Y118123D01*
Y117685D01*
Y117247D01*
Y116810D01*
Y116373D01*
Y115935D01*
Y115497D01*
Y115060D01*
Y114622D01*
Y114185D01*
Y113747D01*
Y113310D01*
Y112872D01*
Y112435D01*
Y111997D01*
Y111559D01*
Y111122D01*
Y110684D01*
Y110247D01*
Y109809D01*
Y109372D01*
Y108934D01*
Y108497D01*
Y108059D01*
Y107622D01*
X381700D01*
Y108059D01*
Y108497D01*
Y108934D01*
Y109372D01*
Y109809D01*
Y110247D01*
Y110684D01*
Y111122D01*
Y111559D01*
Y111997D01*
Y112435D01*
X372512D01*
Y112872D01*
Y113310D01*
Y113747D01*
Y114185D01*
Y114622D01*
Y115060D01*
Y115497D01*
Y115935D01*
Y116373D01*
Y116810D01*
Y117247D01*
Y117685D01*
Y118123D01*
Y118560D01*
Y118998D01*
Y119435D01*
Y119873D01*
Y120310D01*
X384763D01*
Y119873D01*
D02*
G37*
G36*
X351509D02*
Y119435D01*
Y118998D01*
Y118560D01*
Y118123D01*
Y117685D01*
Y117247D01*
Y116810D01*
Y116373D01*
Y115935D01*
Y115497D01*
Y115060D01*
X351947D01*
Y114622D01*
Y114185D01*
Y113747D01*
Y113310D01*
Y112872D01*
Y112435D01*
X351509D01*
Y111997D01*
Y111559D01*
Y111122D01*
Y110684D01*
Y110247D01*
Y109809D01*
Y109372D01*
Y108934D01*
Y108497D01*
Y108059D01*
Y107622D01*
X348447D01*
Y108059D01*
X345384D01*
Y107622D01*
X341884D01*
Y108059D01*
X339258D01*
Y108497D01*
Y108934D01*
Y109372D01*
Y109809D01*
Y110247D01*
Y110684D01*
Y111122D01*
X348447D01*
Y111559D01*
Y111997D01*
Y112435D01*
Y112872D01*
Y113310D01*
Y113747D01*
Y114185D01*
Y114622D01*
Y115060D01*
Y115497D01*
Y115935D01*
Y116373D01*
Y116810D01*
Y117247D01*
Y117685D01*
Y118123D01*
Y118560D01*
Y118998D01*
Y119435D01*
Y119873D01*
Y120310D01*
X351509D01*
Y119873D01*
D02*
G37*
G36*
X225935D02*
Y119435D01*
Y118998D01*
Y118560D01*
Y118123D01*
Y117685D01*
Y117247D01*
Y116810D01*
Y116373D01*
Y115935D01*
Y115497D01*
Y115060D01*
Y114622D01*
Y114185D01*
Y113747D01*
Y113310D01*
Y112872D01*
Y112435D01*
Y111997D01*
Y111559D01*
Y111122D01*
Y110684D01*
Y110247D01*
Y109809D01*
Y109372D01*
Y108934D01*
Y108497D01*
Y108059D01*
Y107622D01*
X213684D01*
Y108059D01*
Y108497D01*
Y108934D01*
Y109372D01*
Y109809D01*
Y110247D01*
Y110684D01*
Y111122D01*
X222872D01*
Y111559D01*
Y111997D01*
Y112435D01*
X213684D01*
Y112872D01*
Y113310D01*
Y113747D01*
Y114185D01*
Y114622D01*
Y115060D01*
Y115497D01*
X222872D01*
Y115935D01*
Y116373D01*
Y116810D01*
X213684D01*
Y117247D01*
Y117685D01*
Y118123D01*
Y118560D01*
Y118998D01*
Y119435D01*
Y119873D01*
X214122D01*
Y120310D01*
X225935D01*
Y119873D01*
D02*
G37*
G36*
X276690Y119435D02*
Y118998D01*
Y118560D01*
Y118123D01*
Y117685D01*
Y117247D01*
Y116810D01*
Y116373D01*
Y115935D01*
Y115497D01*
Y115060D01*
Y114622D01*
Y114185D01*
Y113747D01*
Y113310D01*
Y112872D01*
Y112435D01*
Y111997D01*
Y111559D01*
Y111122D01*
Y110684D01*
Y110247D01*
Y109809D01*
Y109372D01*
Y108934D01*
Y108497D01*
Y108059D01*
Y107622D01*
X264439D01*
Y108059D01*
Y108497D01*
Y108934D01*
Y109372D01*
Y109809D01*
Y110247D01*
Y110684D01*
Y111122D01*
X273190D01*
Y111559D01*
Y111997D01*
Y112435D01*
Y112872D01*
Y113310D01*
Y113747D01*
Y114185D01*
Y114622D01*
Y115060D01*
Y115497D01*
Y115935D01*
Y116373D01*
Y116810D01*
X264876D01*
Y117247D01*
X264439D01*
Y117685D01*
Y118123D01*
Y118560D01*
X264876D01*
Y118998D01*
X264439D01*
Y119435D01*
X264876D01*
Y119873D01*
X276690D01*
Y119435D01*
D02*
G37*
G36*
X315631Y119873D02*
Y119435D01*
Y118998D01*
Y118560D01*
Y118123D01*
Y117685D01*
Y117247D01*
Y116810D01*
Y116373D01*
Y115935D01*
X320882D01*
Y116373D01*
Y116810D01*
Y117247D01*
Y117685D01*
Y118123D01*
Y118560D01*
Y118998D01*
Y119435D01*
Y119873D01*
X324819D01*
Y119435D01*
Y118998D01*
Y118560D01*
Y118123D01*
Y117685D01*
Y117247D01*
Y116810D01*
Y116373D01*
Y115935D01*
Y115497D01*
Y115060D01*
Y114622D01*
Y114185D01*
Y113747D01*
Y113310D01*
Y112872D01*
Y112435D01*
X320007D01*
Y111997D01*
Y111559D01*
Y111122D01*
Y110684D01*
Y110247D01*
Y109809D01*
Y109372D01*
Y108934D01*
Y108497D01*
Y108059D01*
X316506D01*
Y108497D01*
Y108934D01*
Y109372D01*
Y109809D01*
Y110247D01*
Y110684D01*
Y111122D01*
Y111559D01*
Y111997D01*
Y112435D01*
X312131D01*
Y112872D01*
Y113310D01*
Y113747D01*
Y114185D01*
Y114622D01*
Y115060D01*
Y115497D01*
Y115935D01*
Y116373D01*
Y116810D01*
Y117247D01*
Y117685D01*
Y118123D01*
Y118560D01*
Y118998D01*
Y119435D01*
Y119873D01*
Y120310D01*
X315631D01*
Y119873D01*
D02*
G37*
G36*
X337946D02*
Y119435D01*
Y118998D01*
Y118560D01*
Y118123D01*
Y117685D01*
Y117247D01*
Y116810D01*
Y116373D01*
Y115935D01*
Y115497D01*
Y115060D01*
Y114622D01*
Y114185D01*
Y113747D01*
Y113310D01*
Y112872D01*
Y112435D01*
Y111997D01*
Y111559D01*
Y111122D01*
Y110684D01*
Y110247D01*
Y109809D01*
Y109372D01*
Y108934D01*
Y108497D01*
Y108059D01*
X326132D01*
Y108497D01*
Y108934D01*
Y109372D01*
Y109809D01*
Y110247D01*
Y110684D01*
Y111122D01*
X335320D01*
Y111559D01*
Y111997D01*
Y112435D01*
Y112872D01*
Y113310D01*
Y113747D01*
Y114185D01*
Y114622D01*
Y115060D01*
Y115497D01*
Y115935D01*
Y116373D01*
Y116810D01*
Y117247D01*
Y117685D01*
Y118123D01*
Y118560D01*
Y118998D01*
Y119435D01*
Y119873D01*
Y120310D01*
X337946D01*
Y119873D01*
D02*
G37*
G36*
X304693D02*
Y119435D01*
Y118998D01*
Y118560D01*
Y118123D01*
Y117685D01*
Y117247D01*
Y116810D01*
X300317D01*
Y116373D01*
Y115935D01*
Y115497D01*
Y115060D01*
Y114622D01*
Y114185D01*
Y113747D01*
Y113310D01*
Y112872D01*
Y112435D01*
Y111997D01*
Y111559D01*
Y111122D01*
Y110684D01*
Y110247D01*
Y109809D01*
Y109372D01*
Y108934D01*
Y108497D01*
Y108059D01*
X296817D01*
Y108497D01*
Y108934D01*
Y109372D01*
Y109809D01*
Y110247D01*
Y110684D01*
Y111122D01*
Y111559D01*
Y111997D01*
Y112435D01*
Y112872D01*
Y113310D01*
Y113747D01*
Y114185D01*
Y114622D01*
Y115060D01*
Y115497D01*
Y115935D01*
Y116373D01*
Y116810D01*
X292004D01*
Y117247D01*
Y117685D01*
Y118123D01*
Y118560D01*
Y118998D01*
Y119435D01*
Y119873D01*
Y120310D01*
X304693D01*
Y119873D01*
D02*
G37*
G36*
X211934Y119435D02*
Y118998D01*
Y118560D01*
Y118123D01*
Y117685D01*
Y117247D01*
Y116810D01*
Y116373D01*
Y115935D01*
Y115497D01*
Y115060D01*
Y114622D01*
Y114185D01*
Y113747D01*
Y113310D01*
Y112872D01*
Y112435D01*
Y111997D01*
Y111559D01*
Y111122D01*
Y110684D01*
Y110247D01*
Y109809D01*
Y109372D01*
Y108934D01*
Y108497D01*
Y108059D01*
X200120D01*
Y108497D01*
Y108934D01*
Y109372D01*
Y109809D01*
Y110247D01*
Y110684D01*
Y111122D01*
X208434D01*
Y111559D01*
Y111997D01*
Y112435D01*
X199683D01*
Y112872D01*
Y113310D01*
Y113747D01*
Y114185D01*
Y114622D01*
Y115060D01*
Y115497D01*
X208434D01*
Y115935D01*
Y116373D01*
Y116810D01*
Y117247D01*
X207996D01*
Y116810D01*
X200120D01*
Y117247D01*
X199683D01*
Y117685D01*
Y118123D01*
Y118560D01*
Y118998D01*
Y119435D01*
Y119873D01*
X211934D01*
Y119435D01*
D02*
G37*
G36*
X290691Y119873D02*
Y119435D01*
Y118998D01*
Y118560D01*
Y118123D01*
Y117685D01*
Y117247D01*
Y116810D01*
Y116373D01*
Y115935D01*
Y115497D01*
Y115060D01*
Y114622D01*
Y114185D01*
Y113747D01*
Y113310D01*
Y112872D01*
Y112435D01*
Y111997D01*
Y111559D01*
Y111122D01*
Y110684D01*
Y110247D01*
Y109809D01*
Y109372D01*
Y108934D01*
Y108497D01*
Y108059D01*
X278440D01*
Y108497D01*
Y108934D01*
Y109372D01*
Y109809D01*
Y110247D01*
Y110684D01*
Y111122D01*
X287629D01*
Y111559D01*
Y111997D01*
Y112435D01*
X278440D01*
Y112872D01*
Y113310D01*
Y113747D01*
Y114185D01*
Y114622D01*
Y115060D01*
Y115497D01*
X287629D01*
Y115935D01*
Y116373D01*
Y116810D01*
X278003D01*
Y117247D01*
Y117685D01*
Y118123D01*
Y118560D01*
Y118998D01*
Y119435D01*
Y119873D01*
Y120310D01*
X290691D01*
Y119873D01*
D02*
G37*
G36*
X235200Y204400D02*
Y203600D01*
Y202800D01*
Y202000D01*
Y201200D01*
Y200400D01*
Y199600D01*
Y198800D01*
Y198000D01*
Y197200D01*
Y196400D01*
Y195600D01*
Y194800D01*
Y194000D01*
Y193200D01*
Y192400D01*
Y191600D01*
X220800D01*
Y192400D01*
Y193200D01*
Y194000D01*
Y194800D01*
Y195600D01*
Y196400D01*
Y197200D01*
Y198000D01*
Y198800D01*
Y199600D01*
Y200400D01*
Y201200D01*
Y202000D01*
Y202800D01*
Y203600D01*
Y204400D01*
Y205200D01*
X235200D01*
Y204400D01*
D02*
G37*
G36*
X273600Y260400D02*
Y259600D01*
Y258800D01*
Y258000D01*
Y257200D01*
Y256400D01*
Y255600D01*
Y254800D01*
Y254000D01*
Y253200D01*
Y252400D01*
Y251600D01*
Y250800D01*
Y250000D01*
Y249200D01*
Y248400D01*
Y247600D01*
X254400D01*
Y246800D01*
Y246000D01*
Y245200D01*
Y244400D01*
Y243600D01*
Y242800D01*
Y242000D01*
Y241200D01*
Y240400D01*
Y239600D01*
Y238800D01*
Y238000D01*
Y237200D01*
Y236400D01*
Y235600D01*
Y234800D01*
Y234000D01*
Y233200D01*
Y232400D01*
Y231600D01*
Y230800D01*
Y230000D01*
Y229200D01*
Y228400D01*
Y227600D01*
Y226800D01*
Y226000D01*
Y225200D01*
Y224400D01*
Y223600D01*
Y222800D01*
Y222000D01*
Y221200D01*
Y220400D01*
Y219600D01*
Y218800D01*
Y218000D01*
Y217200D01*
Y216400D01*
Y215600D01*
Y214800D01*
Y214000D01*
Y213200D01*
Y212400D01*
Y211600D01*
Y210800D01*
Y210000D01*
Y209200D01*
Y208400D01*
Y207600D01*
Y206800D01*
Y206000D01*
Y205200D01*
Y204400D01*
Y203600D01*
Y202800D01*
Y202000D01*
Y201200D01*
Y200400D01*
Y199600D01*
Y198800D01*
Y198000D01*
Y197200D01*
Y196400D01*
Y195600D01*
Y194800D01*
Y194000D01*
Y193200D01*
Y192400D01*
Y191600D01*
X240000D01*
Y192400D01*
Y193200D01*
Y194000D01*
Y194800D01*
Y195600D01*
Y196400D01*
Y197200D01*
Y198000D01*
Y198800D01*
Y199600D01*
Y200400D01*
Y201200D01*
Y202000D01*
Y202800D01*
Y203600D01*
Y204400D01*
Y205200D01*
Y206000D01*
Y206800D01*
Y207600D01*
Y208400D01*
Y209200D01*
Y210000D01*
Y210800D01*
X216000D01*
Y210000D01*
Y209200D01*
Y208400D01*
Y207600D01*
Y206800D01*
Y206000D01*
Y205200D01*
Y204400D01*
Y203600D01*
Y202800D01*
Y202000D01*
Y201200D01*
Y200400D01*
Y199600D01*
Y198800D01*
Y198000D01*
Y197200D01*
Y196400D01*
Y195600D01*
Y194800D01*
Y194000D01*
Y193200D01*
Y192400D01*
Y191600D01*
Y190800D01*
Y190000D01*
Y189200D01*
Y188400D01*
Y187600D01*
Y186800D01*
X235200D01*
Y186000D01*
Y185200D01*
Y184400D01*
Y183600D01*
Y182800D01*
Y182000D01*
Y181200D01*
Y180400D01*
Y179600D01*
Y178800D01*
Y178000D01*
Y177200D01*
Y176400D01*
Y175600D01*
Y174800D01*
Y174000D01*
Y173200D01*
X204800D01*
Y174000D01*
X203200D01*
Y174800D01*
X202400D01*
Y175600D01*
X201600D01*
Y176400D01*
Y177200D01*
Y178000D01*
Y178800D01*
Y179600D01*
Y180400D01*
Y181200D01*
Y182000D01*
Y182800D01*
Y183600D01*
Y184400D01*
Y185200D01*
Y186000D01*
Y186800D01*
Y187600D01*
Y188400D01*
Y189200D01*
Y190000D01*
Y190800D01*
Y191600D01*
Y192400D01*
Y193200D01*
Y194000D01*
Y194800D01*
Y195600D01*
Y196400D01*
Y197200D01*
Y198000D01*
Y198800D01*
Y199600D01*
Y200400D01*
Y201200D01*
Y202000D01*
Y202800D01*
Y203600D01*
Y204400D01*
Y205200D01*
Y206000D01*
Y206800D01*
Y207600D01*
Y208400D01*
Y209200D01*
Y210000D01*
Y210800D01*
Y211600D01*
Y212400D01*
Y213200D01*
Y214000D01*
Y214800D01*
Y215600D01*
Y216400D01*
Y217200D01*
Y218000D01*
Y218800D01*
Y219600D01*
Y220400D01*
Y221200D01*
X202400D01*
Y222000D01*
X203200D01*
Y222800D01*
X204000D01*
Y223600D01*
X240000D01*
Y224400D01*
Y225200D01*
Y226000D01*
Y226800D01*
Y227600D01*
Y228400D01*
Y229200D01*
Y230000D01*
Y230800D01*
Y231600D01*
Y232400D01*
Y233200D01*
Y234000D01*
Y234800D01*
Y235600D01*
Y236400D01*
Y237200D01*
Y238000D01*
Y238800D01*
Y239600D01*
Y240400D01*
Y241200D01*
Y242000D01*
Y242800D01*
Y243600D01*
Y244400D01*
Y245200D01*
Y246000D01*
Y246800D01*
Y247600D01*
Y248400D01*
Y249200D01*
Y250000D01*
Y250800D01*
Y251600D01*
Y252400D01*
Y253200D01*
Y254000D01*
Y254800D01*
Y255600D01*
Y256400D01*
Y257200D01*
X240800D01*
Y258000D01*
Y258800D01*
Y259600D01*
X241600D01*
Y260400D01*
X243200D01*
Y261200D01*
X273600D01*
Y260400D01*
D02*
G37*
G36*
X364800Y193200D02*
Y192400D01*
Y191600D01*
Y190800D01*
Y190000D01*
X346400D01*
Y189200D01*
Y188400D01*
Y187600D01*
X348000D01*
Y186800D01*
X348800D01*
Y186000D01*
X350400D01*
Y185200D01*
X352000D01*
Y184400D01*
X353600D01*
Y183600D01*
X355200D01*
Y182800D01*
X356000D01*
Y182000D01*
X357600D01*
Y181200D01*
X359200D01*
Y180400D01*
X360000D01*
Y179600D01*
X361600D01*
Y178800D01*
X363200D01*
Y178000D01*
X364000D01*
Y177200D01*
X364800D01*
Y176400D01*
Y175600D01*
Y174800D01*
Y174000D01*
Y173200D01*
X336000D01*
Y174000D01*
X336800D01*
Y174800D01*
Y175600D01*
Y176400D01*
X336000D01*
Y177200D01*
X353600D01*
Y178000D01*
Y178800D01*
Y179600D01*
X352800D01*
Y180400D01*
X351200D01*
Y181200D01*
X349600D01*
Y182000D01*
X348800D01*
Y182800D01*
X347200D01*
Y183600D01*
X346400D01*
Y184400D01*
X344800D01*
Y185200D01*
X342400D01*
Y186000D01*
X341600D01*
Y186800D01*
X340000D01*
Y187600D01*
X339200D01*
Y188400D01*
X337600D01*
Y189200D01*
X336000D01*
Y190000D01*
X336800D01*
Y190800D01*
Y191600D01*
Y192400D01*
Y193200D01*
X336000D01*
Y194000D01*
X364800D01*
Y193200D01*
D02*
G37*
G36*
X312800Y242000D02*
Y241200D01*
Y240400D01*
Y239600D01*
Y238800D01*
Y238000D01*
Y237200D01*
Y236400D01*
Y235600D01*
Y234800D01*
Y234000D01*
Y233200D01*
Y232400D01*
Y231600D01*
Y230800D01*
Y230000D01*
Y229200D01*
X273600D01*
Y228400D01*
Y227600D01*
Y226800D01*
Y226000D01*
Y225200D01*
Y224400D01*
X275200D01*
Y223600D01*
X293600D01*
Y222800D01*
Y222000D01*
Y221200D01*
Y220400D01*
Y219600D01*
Y218800D01*
Y218000D01*
Y217200D01*
Y216400D01*
Y215600D01*
Y214800D01*
Y214000D01*
Y213200D01*
Y212400D01*
Y211600D01*
Y210800D01*
Y210000D01*
X273600D01*
Y209200D01*
Y208400D01*
Y207600D01*
Y206800D01*
Y206000D01*
Y205200D01*
Y204400D01*
Y203600D01*
Y202800D01*
Y202000D01*
Y201200D01*
Y200400D01*
Y199600D01*
Y198800D01*
Y198000D01*
Y197200D01*
Y196400D01*
Y195600D01*
Y194800D01*
Y194000D01*
Y193200D01*
Y192400D01*
Y191600D01*
Y190800D01*
Y190000D01*
Y189200D01*
Y188400D01*
Y187600D01*
Y186800D01*
X298400D01*
Y187600D01*
Y188400D01*
Y189200D01*
Y190000D01*
Y190800D01*
Y191600D01*
Y192400D01*
Y193200D01*
Y194000D01*
Y194800D01*
Y195600D01*
Y196400D01*
Y197200D01*
Y198000D01*
Y198800D01*
Y199600D01*
Y200400D01*
Y201200D01*
Y202000D01*
Y202800D01*
Y203600D01*
Y204400D01*
Y205200D01*
X312800D01*
Y204400D01*
Y203600D01*
Y202800D01*
Y202000D01*
Y201200D01*
Y200400D01*
Y199600D01*
Y198800D01*
Y198000D01*
Y197200D01*
Y196400D01*
Y195600D01*
Y194800D01*
Y194000D01*
Y193200D01*
Y192400D01*
Y191600D01*
Y190800D01*
Y190000D01*
Y189200D01*
Y188400D01*
Y187600D01*
Y186800D01*
Y186000D01*
Y185200D01*
Y184400D01*
Y183600D01*
Y182800D01*
Y182000D01*
Y181200D01*
Y180400D01*
Y179600D01*
Y178800D01*
Y178000D01*
Y177200D01*
Y176400D01*
Y175600D01*
Y174800D01*
Y174000D01*
Y173200D01*
X240000D01*
Y174000D01*
Y174800D01*
Y175600D01*
Y176400D01*
Y177200D01*
Y178000D01*
Y178800D01*
Y179600D01*
Y180400D01*
Y181200D01*
Y182000D01*
Y182800D01*
Y183600D01*
Y184400D01*
Y185200D01*
Y186000D01*
Y186800D01*
X260000D01*
Y187600D01*
Y188400D01*
Y189200D01*
Y190000D01*
Y190800D01*
Y191600D01*
Y192400D01*
Y193200D01*
Y194000D01*
Y194800D01*
Y195600D01*
Y196400D01*
Y197200D01*
Y198000D01*
Y198800D01*
Y199600D01*
Y200400D01*
Y201200D01*
Y202000D01*
Y202800D01*
Y203600D01*
Y204400D01*
Y205200D01*
Y206000D01*
Y206800D01*
Y207600D01*
Y208400D01*
Y209200D01*
Y210000D01*
Y210800D01*
Y211600D01*
Y212400D01*
Y213200D01*
Y214000D01*
Y214800D01*
Y215600D01*
Y216400D01*
Y217200D01*
Y218000D01*
Y218800D01*
Y219600D01*
Y220400D01*
Y221200D01*
Y222000D01*
Y222800D01*
Y223600D01*
Y224400D01*
Y225200D01*
Y226000D01*
Y226800D01*
Y227600D01*
Y228400D01*
Y229200D01*
Y230000D01*
Y230800D01*
Y231600D01*
Y232400D01*
Y233200D01*
Y234000D01*
Y234800D01*
Y235600D01*
Y236400D01*
Y237200D01*
Y238000D01*
Y238800D01*
Y239600D01*
Y240400D01*
Y241200D01*
Y242000D01*
Y242800D01*
X312800D01*
Y242000D01*
D02*
G37*
G36*
X332000Y260400D02*
Y259600D01*
Y258800D01*
Y258000D01*
Y257200D01*
Y256400D01*
Y255600D01*
Y254800D01*
Y254000D01*
Y253200D01*
Y252400D01*
Y251600D01*
Y250800D01*
Y250000D01*
Y249200D01*
Y248400D01*
Y247600D01*
Y246800D01*
Y246000D01*
Y245200D01*
Y244400D01*
Y243600D01*
Y242800D01*
Y242000D01*
Y241200D01*
Y240400D01*
Y239600D01*
Y238800D01*
Y238000D01*
Y237200D01*
Y236400D01*
Y235600D01*
Y234800D01*
Y234000D01*
Y233200D01*
Y232400D01*
Y231600D01*
Y230800D01*
Y230000D01*
Y229200D01*
Y228400D01*
Y227600D01*
Y226800D01*
Y226000D01*
Y225200D01*
Y224400D01*
Y223600D01*
Y222800D01*
Y222000D01*
Y221200D01*
Y220400D01*
Y219600D01*
Y218800D01*
Y218000D01*
Y217200D01*
Y216400D01*
Y215600D01*
Y214800D01*
Y214000D01*
Y213200D01*
Y212400D01*
Y211600D01*
Y210800D01*
Y210000D01*
Y209200D01*
Y208400D01*
Y207600D01*
Y206800D01*
Y206000D01*
Y205200D01*
Y204400D01*
Y203600D01*
Y202800D01*
Y202000D01*
Y201200D01*
Y200400D01*
Y199600D01*
Y198800D01*
Y198000D01*
Y197200D01*
Y196400D01*
Y195600D01*
Y194800D01*
Y194000D01*
Y193200D01*
Y192400D01*
Y191600D01*
Y190800D01*
Y190000D01*
Y189200D01*
Y188400D01*
Y187600D01*
Y186800D01*
Y186000D01*
Y185200D01*
Y184400D01*
Y183600D01*
Y182800D01*
Y182000D01*
Y181200D01*
Y180400D01*
Y179600D01*
Y178800D01*
Y178000D01*
Y177200D01*
Y176400D01*
Y175600D01*
Y174800D01*
Y174000D01*
Y173200D01*
X317600D01*
Y174000D01*
X318400D01*
Y174800D01*
Y175600D01*
Y176400D01*
Y177200D01*
Y178000D01*
Y178800D01*
Y179600D01*
Y180400D01*
Y181200D01*
Y182000D01*
Y182800D01*
Y183600D01*
Y184400D01*
Y185200D01*
Y186000D01*
Y186800D01*
Y187600D01*
Y188400D01*
Y189200D01*
Y190000D01*
Y190800D01*
Y191600D01*
Y192400D01*
Y193200D01*
Y194000D01*
Y194800D01*
Y195600D01*
Y196400D01*
Y197200D01*
Y198000D01*
Y198800D01*
Y199600D01*
Y200400D01*
Y201200D01*
Y202000D01*
Y202800D01*
Y203600D01*
Y204400D01*
Y205200D01*
Y206000D01*
Y206800D01*
Y207600D01*
Y208400D01*
Y209200D01*
Y210000D01*
X316800D01*
Y210800D01*
X298400D01*
Y211600D01*
Y212400D01*
Y213200D01*
Y214000D01*
Y214800D01*
Y215600D01*
Y216400D01*
Y217200D01*
Y218000D01*
Y218800D01*
Y219600D01*
Y220400D01*
Y221200D01*
Y222000D01*
Y222800D01*
Y223600D01*
X316800D01*
Y224400D01*
X318400D01*
Y225200D01*
Y226000D01*
Y226800D01*
Y227600D01*
Y228400D01*
Y229200D01*
Y230000D01*
Y230800D01*
Y231600D01*
Y232400D01*
Y233200D01*
Y234000D01*
Y234800D01*
Y235600D01*
Y236400D01*
Y237200D01*
Y238000D01*
Y238800D01*
Y239600D01*
Y240400D01*
Y241200D01*
Y242000D01*
Y242800D01*
Y243600D01*
Y244400D01*
Y245200D01*
Y246000D01*
Y246800D01*
X316800D01*
Y247600D01*
X279200D01*
Y248400D01*
Y249200D01*
Y250000D01*
Y250800D01*
Y251600D01*
Y252400D01*
Y253200D01*
Y254000D01*
Y254800D01*
Y255600D01*
Y256400D01*
Y257200D01*
Y258000D01*
Y258800D01*
Y259600D01*
Y260400D01*
Y261200D01*
X332000D01*
Y260400D01*
D02*
G37*
G36*
X293600Y204400D02*
Y203600D01*
Y202800D01*
Y202000D01*
Y201200D01*
Y200400D01*
Y199600D01*
Y198800D01*
Y198000D01*
Y197200D01*
Y196400D01*
Y195600D01*
Y194800D01*
Y194000D01*
Y193200D01*
Y192400D01*
Y191600D01*
X279200D01*
Y192400D01*
Y193200D01*
Y194000D01*
Y194800D01*
Y195600D01*
Y196400D01*
Y197200D01*
Y198000D01*
Y198800D01*
Y199600D01*
Y200400D01*
Y201200D01*
Y202000D01*
Y202800D01*
Y203600D01*
Y204400D01*
Y205200D01*
X293600D01*
Y204400D01*
D02*
G37*
G36*
X337600Y241200D02*
X338400D01*
Y240400D01*
X340000D01*
Y239600D01*
X340800D01*
Y238800D01*
X342400D01*
Y238000D01*
X343200D01*
Y237200D01*
X344800D01*
Y236400D01*
X345600D01*
Y235600D01*
X347200D01*
Y234800D01*
X348000D01*
Y234000D01*
X349600D01*
Y233200D01*
X352000D01*
Y234000D01*
X353600D01*
Y234800D01*
X354400D01*
Y235600D01*
X356000D01*
Y236400D01*
X356800D01*
Y237200D01*
X358400D01*
Y238000D01*
X359200D01*
Y238800D01*
X360800D01*
Y239600D01*
X362400D01*
Y240400D01*
X363200D01*
Y241200D01*
X364800D01*
Y240400D01*
Y239600D01*
Y238800D01*
Y238000D01*
Y237200D01*
Y236400D01*
X364000D01*
Y235600D01*
X362400D01*
Y234800D01*
X360800D01*
Y234000D01*
X360000D01*
Y233200D01*
X358400D01*
Y232400D01*
X356800D01*
Y231600D01*
X355200D01*
Y230800D01*
Y230000D01*
Y229200D01*
X356800D01*
Y228400D01*
X358400D01*
Y227600D01*
X359200D01*
Y226800D01*
X360800D01*
Y226000D01*
X362400D01*
Y225200D01*
X363200D01*
Y224400D01*
X364800D01*
Y223600D01*
Y222800D01*
Y222000D01*
Y221200D01*
Y220400D01*
Y219600D01*
Y218800D01*
X364000D01*
Y219600D01*
X363200D01*
Y220400D01*
X361600D01*
Y221200D01*
X360800D01*
Y222000D01*
X359200D01*
Y222800D01*
X358400D01*
Y223600D01*
X356800D01*
Y224400D01*
X355200D01*
Y225200D01*
X354400D01*
Y226000D01*
X352800D01*
Y226800D01*
X352000D01*
Y227600D01*
X349600D01*
Y226800D01*
X348800D01*
Y226000D01*
X347200D01*
Y225200D01*
X346400D01*
Y224400D01*
X344800D01*
Y223600D01*
X344000D01*
Y222800D01*
X342400D01*
Y222000D01*
X341600D01*
Y221200D01*
X340000D01*
Y220400D01*
X339200D01*
Y219600D01*
X337600D01*
Y218800D01*
X336800D01*
Y219600D01*
Y220400D01*
Y221200D01*
Y222000D01*
Y222800D01*
X336000D01*
Y223600D01*
X336800D01*
Y224400D01*
X338400D01*
Y225200D01*
X339200D01*
Y226000D01*
X340800D01*
Y226800D01*
X341600D01*
Y227600D01*
X343200D01*
Y228400D01*
X345600D01*
Y229200D01*
Y230000D01*
Y230800D01*
Y231600D01*
X344800D01*
Y232400D01*
X342400D01*
Y233200D01*
X341600D01*
Y234000D01*
X340000D01*
Y234800D01*
X339200D01*
Y235600D01*
X337600D01*
Y236400D01*
X336800D01*
Y237200D01*
X336000D01*
Y238000D01*
X336800D01*
Y238800D01*
Y239600D01*
Y240400D01*
Y241200D01*
X336000D01*
Y242000D01*
X337600D01*
Y241200D01*
D02*
G37*
G36*
X364800Y259600D02*
Y258800D01*
Y258000D01*
Y257200D01*
Y256400D01*
Y255600D01*
Y254800D01*
Y254000D01*
Y253200D01*
Y252400D01*
Y251600D01*
Y250800D01*
Y250000D01*
Y249200D01*
Y248400D01*
Y247600D01*
Y246800D01*
Y246000D01*
X364000D01*
Y245200D01*
X362400D01*
Y244400D01*
X361600D01*
Y243600D01*
X360800D01*
Y244400D01*
Y245200D01*
Y246000D01*
Y246800D01*
Y247600D01*
Y248400D01*
Y249200D01*
X336000D01*
Y250000D01*
X336800D01*
Y250800D01*
Y251600D01*
Y252400D01*
Y253200D01*
X336000D01*
Y254000D01*
X360800D01*
Y254800D01*
Y255600D01*
Y256400D01*
Y257200D01*
Y258000D01*
Y258800D01*
Y259600D01*
Y260400D01*
X364800D01*
Y259600D01*
D02*
G37*
G36*
X336800Y218000D02*
X336000D01*
Y218800D01*
X336800D01*
Y218000D01*
D02*
G37*
G36*
X362400Y215600D02*
X363200D01*
Y214800D01*
X364800D01*
Y214000D01*
Y213200D01*
Y212400D01*
Y211600D01*
Y210800D01*
Y210000D01*
Y209200D01*
Y208400D01*
Y207600D01*
Y206800D01*
Y206000D01*
Y205200D01*
Y204400D01*
Y203600D01*
Y202800D01*
Y202000D01*
Y201200D01*
Y200400D01*
Y199600D01*
Y198800D01*
X336000D01*
Y199600D01*
X336800D01*
Y200400D01*
Y201200D01*
Y202000D01*
Y202800D01*
Y203600D01*
Y204400D01*
Y205200D01*
Y206000D01*
Y206800D01*
Y207600D01*
Y208400D01*
Y209200D01*
Y210000D01*
Y210800D01*
Y211600D01*
Y212400D01*
Y213200D01*
X336000D01*
Y214000D01*
X337600D01*
Y214800D01*
X338400D01*
Y215600D01*
X340000D01*
Y214800D01*
Y214000D01*
Y213200D01*
Y212400D01*
Y211600D01*
Y210800D01*
Y210000D01*
Y209200D01*
Y208400D01*
Y207600D01*
Y206800D01*
Y206000D01*
Y205200D01*
Y204400D01*
Y203600D01*
Y202800D01*
X340800D01*
Y202000D01*
X348800D01*
Y202800D01*
Y203600D01*
Y204400D01*
Y205200D01*
Y206000D01*
Y206800D01*
Y207600D01*
Y208400D01*
Y209200D01*
Y210000D01*
Y210800D01*
Y211600D01*
Y212400D01*
Y213200D01*
Y214000D01*
Y214800D01*
Y215600D01*
Y216400D01*
X352800D01*
Y215600D01*
Y214800D01*
Y214000D01*
Y213200D01*
Y212400D01*
Y211600D01*
Y210800D01*
Y210000D01*
Y209200D01*
Y208400D01*
Y207600D01*
Y206800D01*
Y206000D01*
Y205200D01*
Y204400D01*
Y203600D01*
Y202800D01*
Y202000D01*
X360800D01*
Y202800D01*
Y203600D01*
Y204400D01*
Y205200D01*
Y206000D01*
Y206800D01*
Y207600D01*
Y208400D01*
Y209200D01*
Y210000D01*
Y210800D01*
Y211600D01*
Y212400D01*
Y213200D01*
Y214000D01*
Y214800D01*
Y215600D01*
Y216400D01*
X362400D01*
Y215600D01*
D02*
G37*
G36*
X340800D02*
X340000D01*
Y216400D01*
X340800D01*
Y215600D01*
D02*
G37*
G36*
X173868Y157064D02*
X174305D01*
Y156626D01*
Y156189D01*
X176931D01*
Y155751D01*
X177368D01*
Y155314D01*
Y154876D01*
X177806D01*
Y154438D01*
X178243D01*
Y154001D01*
X178681D01*
Y153563D01*
X179118D01*
Y153126D01*
X179556D01*
Y152688D01*
X179993D01*
Y152251D01*
X180431D01*
Y151813D01*
X180868D01*
Y151376D01*
X181306D01*
Y150938D01*
X193120D01*
Y150501D01*
Y150063D01*
Y149626D01*
Y149188D01*
Y148750D01*
Y148313D01*
Y147875D01*
Y147438D01*
Y147000D01*
Y146563D01*
Y146125D01*
Y145688D01*
Y145250D01*
Y144813D01*
Y144375D01*
Y143938D01*
Y143500D01*
Y143062D01*
Y142625D01*
Y142187D01*
Y141750D01*
Y141312D01*
Y140875D01*
X205808D01*
Y141312D01*
Y141750D01*
Y142187D01*
Y142625D01*
Y143062D01*
Y143500D01*
Y143938D01*
Y144375D01*
Y144813D01*
Y145250D01*
Y145688D01*
Y146125D01*
Y146563D01*
Y147000D01*
Y147438D01*
Y147875D01*
Y148313D01*
Y148750D01*
Y149188D01*
Y149626D01*
Y150063D01*
Y150501D01*
Y150938D01*
Y151376D01*
X213684D01*
Y150938D01*
Y150501D01*
Y150063D01*
Y149626D01*
Y149188D01*
Y148750D01*
Y148313D01*
Y147875D01*
Y147438D01*
Y147000D01*
Y146563D01*
Y146125D01*
Y145688D01*
Y145250D01*
Y144813D01*
Y144375D01*
Y143938D01*
Y143500D01*
Y143062D01*
Y142625D01*
Y142187D01*
Y141750D01*
Y141312D01*
Y140875D01*
Y140437D01*
Y140000D01*
Y139562D01*
Y139125D01*
Y138687D01*
Y138250D01*
Y137812D01*
Y137374D01*
Y136937D01*
Y136499D01*
Y136062D01*
Y135624D01*
Y135187D01*
Y134749D01*
Y134312D01*
Y133874D01*
Y133437D01*
X193120D01*
Y132999D01*
Y132562D01*
Y132124D01*
Y131686D01*
Y131249D01*
Y130811D01*
Y130374D01*
Y129936D01*
Y129499D01*
Y129061D01*
Y128624D01*
Y128186D01*
Y127749D01*
Y127311D01*
Y126873D01*
Y126436D01*
Y125998D01*
Y125561D01*
Y125123D01*
Y124686D01*
Y124248D01*
Y123811D01*
Y123373D01*
X185681D01*
Y122936D01*
X185244D01*
Y122498D01*
X184806D01*
Y122061D01*
X184369D01*
Y121623D01*
X183931D01*
Y121185D01*
X183494D01*
Y120748D01*
X183056D01*
Y120310D01*
X182619D01*
Y119873D01*
X182181D01*
Y119435D01*
X181744D01*
Y118998D01*
X181306D01*
Y118560D01*
Y118123D01*
X180868D01*
Y117685D01*
X180431D01*
Y117247D01*
X179118D01*
Y117685D01*
X173868D01*
Y117247D01*
X173430D01*
Y116810D01*
X172118D01*
Y117247D01*
X171680D01*
Y117685D01*
Y118123D01*
Y118560D01*
Y118998D01*
Y119435D01*
X172118D01*
Y119873D01*
X173430D01*
Y119435D01*
X173868D01*
Y118998D01*
X179993D01*
Y119435D01*
X180431D01*
Y119873D01*
X180868D01*
Y120310D01*
X181306D01*
Y120748D01*
X181744D01*
Y121185D01*
X182181D01*
Y121623D01*
X182619D01*
Y122061D01*
X183056D01*
Y122498D01*
X183494D01*
Y122936D01*
X183931D01*
Y123373D01*
X184369D01*
Y123811D01*
X184806D01*
Y124248D01*
X185244D01*
Y124686D01*
X185681D01*
Y125123D01*
Y125561D01*
Y125998D01*
Y126436D01*
Y126873D01*
Y127311D01*
Y127749D01*
Y128186D01*
Y128624D01*
Y129061D01*
Y129499D01*
X183494D01*
Y129061D01*
X183056D01*
Y128624D01*
X182619D01*
Y128186D01*
X181744D01*
Y127749D01*
X181306D01*
Y127311D01*
X180868D01*
Y126873D01*
X176056D01*
Y127311D01*
Y127749D01*
Y128186D01*
Y128624D01*
X176493D01*
Y129061D01*
X178681D01*
Y128624D01*
X179118D01*
Y128186D01*
X180431D01*
Y128624D01*
X180868D01*
Y129061D01*
X181306D01*
Y129499D01*
X182181D01*
Y129936D01*
X182619D01*
Y130374D01*
X183056D01*
Y130811D01*
X183931D01*
Y131249D01*
X184369D01*
Y130811D01*
X185681D01*
Y131249D01*
Y131686D01*
Y132124D01*
Y132562D01*
X176493D01*
Y132124D01*
X176056D01*
Y131686D01*
X175618D01*
Y131249D01*
Y130811D01*
X175180D01*
Y130374D01*
X174743D01*
Y129936D01*
X174305D01*
Y129499D01*
X173430D01*
Y129936D01*
X172555D01*
Y130374D01*
X171680D01*
Y129936D01*
Y129499D01*
Y129061D01*
X171243D01*
Y128624D01*
X169492D01*
Y129061D01*
X169055D01*
Y129499D01*
Y129936D01*
Y130374D01*
Y130811D01*
Y131249D01*
Y131686D01*
X169492D01*
Y132124D01*
X171243D01*
Y131686D01*
X172555D01*
Y131249D01*
X174305D01*
Y131686D01*
X174743D01*
Y132124D01*
Y132562D01*
X175180D01*
Y132999D01*
X175618D01*
Y133437D01*
Y133874D01*
X185681D01*
Y134312D01*
Y134749D01*
Y135187D01*
Y135624D01*
Y136062D01*
X179118D01*
Y136499D01*
Y136937D01*
X178681D01*
Y137374D01*
X178243D01*
Y137812D01*
X177806D01*
Y138250D01*
X177368D01*
Y138687D01*
X176931D01*
Y139125D01*
X176493D01*
Y139562D01*
X176056D01*
Y140000D01*
X175618D01*
Y140437D01*
X175180D01*
Y140875D01*
X167742D01*
Y141312D01*
Y141750D01*
Y142187D01*
X168180D01*
Y142625D01*
Y143062D01*
X168617D01*
Y143500D01*
X169492D01*
Y143938D01*
X170805D01*
Y143500D01*
X171243D01*
Y143062D01*
Y142625D01*
Y142187D01*
X176056D01*
Y141750D01*
X176493D01*
Y141312D01*
X176931D01*
Y140875D01*
X177368D01*
Y140437D01*
X177806D01*
Y140000D01*
X178243D01*
Y139562D01*
X178681D01*
Y139125D01*
X179118D01*
Y138687D01*
X179556D01*
Y138250D01*
X179993D01*
Y137812D01*
X180431D01*
Y137374D01*
X185681D01*
Y137812D01*
Y138250D01*
Y138687D01*
Y139125D01*
X179556D01*
Y139562D01*
X179118D01*
Y140000D01*
X178681D01*
Y140437D01*
Y140875D01*
X178243D01*
Y141312D01*
X177806D01*
Y141750D01*
X177368D01*
Y142187D01*
X176931D01*
Y142625D01*
X176493D01*
Y143062D01*
X176056D01*
Y143500D01*
X175618D01*
Y143938D01*
X175180D01*
Y144375D01*
X174743D01*
Y144813D01*
X174305D01*
Y145250D01*
X172555D01*
Y145688D01*
X172118D01*
Y146125D01*
Y146563D01*
Y147000D01*
X172555D01*
Y147438D01*
X174743D01*
Y147000D01*
X175180D01*
Y146563D01*
Y146125D01*
Y145688D01*
X175618D01*
Y145250D01*
X176056D01*
Y144813D01*
X176493D01*
Y144375D01*
X176931D01*
Y143938D01*
X177368D01*
Y143500D01*
X177806D01*
Y143062D01*
X178243D01*
Y142625D01*
X178681D01*
Y142187D01*
X179118D01*
Y141750D01*
X179556D01*
Y141312D01*
X179993D01*
Y140875D01*
X180431D01*
Y140437D01*
X185681D01*
Y140875D01*
Y141312D01*
Y141750D01*
Y142187D01*
Y142625D01*
Y143062D01*
Y143500D01*
Y143938D01*
Y144375D01*
Y144813D01*
Y145250D01*
Y145688D01*
Y146125D01*
Y146563D01*
Y147000D01*
Y147438D01*
Y147875D01*
Y148313D01*
Y148750D01*
Y149188D01*
Y149626D01*
X180868D01*
Y150063D01*
X180431D01*
Y150501D01*
X179993D01*
Y150938D01*
X179556D01*
Y151376D01*
X179118D01*
Y151813D01*
X178681D01*
Y152251D01*
X178243D01*
Y152688D01*
X177806D01*
Y153126D01*
X177368D01*
Y153563D01*
X176931D01*
Y154001D01*
X176056D01*
Y154438D01*
X175618D01*
Y154876D01*
X174305D01*
Y155314D01*
X173868D01*
Y154876D01*
X171680D01*
Y155314D01*
X171243D01*
Y155751D01*
Y156189D01*
Y156626D01*
Y157064D01*
X171680D01*
Y157501D01*
X173868D01*
Y157064D01*
D02*
G37*
G36*
X168180Y154876D02*
X168617D01*
Y154438D01*
X169055D01*
Y154001D01*
X173430D01*
Y153563D01*
Y153126D01*
X173868D01*
Y152688D01*
X174305D01*
Y152251D01*
X174743D01*
Y151813D01*
X175180D01*
Y151376D01*
X175618D01*
Y150938D01*
X176056D01*
Y150501D01*
X176493D01*
Y150063D01*
X176931D01*
Y149626D01*
X177368D01*
Y149188D01*
X177806D01*
Y148750D01*
X178243D01*
Y148313D01*
X178681D01*
Y147875D01*
X181306D01*
Y148313D01*
X183931D01*
Y147875D01*
X184369D01*
Y147438D01*
Y147000D01*
Y146563D01*
X183931D01*
Y146125D01*
X183494D01*
Y145688D01*
X181306D01*
Y146125D01*
X180868D01*
Y146563D01*
X179556D01*
Y146125D01*
X178243D01*
Y146563D01*
X177806D01*
Y147000D01*
X177368D01*
Y147438D01*
Y147875D01*
X176931D01*
Y148313D01*
X176493D01*
Y148750D01*
X176056D01*
Y149188D01*
X175618D01*
Y149626D01*
X175180D01*
Y150063D01*
X174743D01*
Y150501D01*
X174305D01*
Y150938D01*
X173868D01*
Y151376D01*
X173430D01*
Y151813D01*
X172993D01*
Y152251D01*
X172555D01*
Y152688D01*
X169055D01*
Y152251D01*
X168617D01*
Y151813D01*
X167305D01*
Y152251D01*
X166867D01*
Y152688D01*
Y153126D01*
X166430D01*
Y153563D01*
Y154001D01*
Y154438D01*
Y154876D01*
X166867D01*
Y155314D01*
X168180D01*
Y154876D01*
D02*
G37*
G36*
X311693Y151376D02*
Y150938D01*
Y150501D01*
Y150063D01*
Y149626D01*
Y149188D01*
Y148750D01*
Y148313D01*
Y147875D01*
Y147438D01*
Y147000D01*
Y146563D01*
Y146125D01*
Y145688D01*
Y145250D01*
Y144813D01*
Y144375D01*
Y143938D01*
Y143500D01*
Y143062D01*
Y142625D01*
Y142187D01*
Y141750D01*
Y141312D01*
Y140875D01*
Y140437D01*
Y140000D01*
Y139562D01*
Y139125D01*
Y138687D01*
Y138250D01*
Y137812D01*
Y137374D01*
Y136937D01*
Y136499D01*
Y136062D01*
Y135624D01*
Y135187D01*
Y134749D01*
Y134312D01*
Y133874D01*
Y133437D01*
Y132999D01*
Y132562D01*
Y132124D01*
Y131686D01*
Y131249D01*
Y130811D01*
X316506D01*
Y131249D01*
Y131686D01*
Y132124D01*
Y132562D01*
Y132999D01*
Y133437D01*
Y133874D01*
Y134312D01*
Y134749D01*
Y135187D01*
Y135624D01*
Y136062D01*
Y136499D01*
Y136937D01*
Y137374D01*
Y137812D01*
Y138250D01*
Y138687D01*
Y139125D01*
Y139562D01*
Y140000D01*
Y140437D01*
Y140875D01*
Y141312D01*
Y141750D01*
Y142187D01*
Y142625D01*
Y143062D01*
Y143500D01*
Y143938D01*
Y144375D01*
Y144813D01*
Y145250D01*
Y145688D01*
Y146125D01*
Y146563D01*
Y147000D01*
Y147438D01*
Y147875D01*
Y148313D01*
Y148750D01*
Y149188D01*
Y149626D01*
Y150063D01*
Y150501D01*
Y150938D01*
Y151376D01*
X324382D01*
Y150938D01*
Y150501D01*
Y150063D01*
Y149626D01*
Y149188D01*
Y148750D01*
Y148313D01*
Y147875D01*
Y147438D01*
Y147000D01*
Y146563D01*
Y146125D01*
Y145688D01*
Y145250D01*
Y144813D01*
Y144375D01*
Y143938D01*
Y143500D01*
Y143062D01*
Y142625D01*
Y142187D01*
Y141750D01*
Y141312D01*
Y140875D01*
Y140437D01*
Y140000D01*
Y139562D01*
Y139125D01*
Y138687D01*
Y138250D01*
Y137812D01*
Y137374D01*
Y136937D01*
Y136499D01*
Y136062D01*
Y135624D01*
Y135187D01*
Y134749D01*
Y134312D01*
Y133874D01*
Y133437D01*
Y132999D01*
Y132562D01*
Y132124D01*
Y131686D01*
Y131249D01*
Y130811D01*
Y130374D01*
Y129936D01*
Y129499D01*
Y129061D01*
Y128624D01*
Y128186D01*
Y127749D01*
Y127311D01*
Y126873D01*
Y126436D01*
Y125998D01*
Y125561D01*
Y125123D01*
Y124686D01*
Y124248D01*
Y123811D01*
Y123373D01*
X290691D01*
Y123811D01*
Y124248D01*
Y124686D01*
Y125123D01*
Y125561D01*
Y125998D01*
Y126436D01*
Y126873D01*
Y127311D01*
Y127749D01*
Y128186D01*
Y128624D01*
Y129061D01*
Y129499D01*
Y129936D01*
Y130374D01*
Y130811D01*
Y131249D01*
Y131686D01*
Y132124D01*
Y132562D01*
Y132999D01*
Y133437D01*
Y133874D01*
Y134312D01*
Y134749D01*
Y135187D01*
Y135624D01*
Y136062D01*
Y136499D01*
Y136937D01*
Y137374D01*
Y137812D01*
Y138250D01*
Y138687D01*
Y139125D01*
Y139562D01*
Y140000D01*
Y140437D01*
Y140875D01*
Y141312D01*
Y141750D01*
Y142187D01*
Y142625D01*
Y143062D01*
Y143500D01*
Y143938D01*
Y144375D01*
Y144813D01*
Y145250D01*
Y145688D01*
Y146125D01*
Y146563D01*
Y147000D01*
Y147438D01*
Y147875D01*
Y148313D01*
Y148750D01*
Y149188D01*
Y149626D01*
Y150063D01*
Y150501D01*
Y150938D01*
Y151376D01*
X297692D01*
Y150938D01*
Y150501D01*
Y150063D01*
Y149626D01*
Y149188D01*
Y148750D01*
Y148313D01*
Y147875D01*
Y147438D01*
Y147000D01*
Y146563D01*
Y146125D01*
Y145688D01*
Y145250D01*
Y144813D01*
Y144375D01*
Y143938D01*
Y143500D01*
Y143062D01*
Y142625D01*
Y142187D01*
Y141750D01*
Y141312D01*
Y140875D01*
Y140437D01*
Y140000D01*
Y139562D01*
Y139125D01*
Y138687D01*
Y138250D01*
Y137812D01*
Y137374D01*
Y136937D01*
Y136499D01*
Y136062D01*
Y135624D01*
Y135187D01*
Y134749D01*
Y134312D01*
Y133874D01*
Y133437D01*
Y132999D01*
Y132562D01*
Y132124D01*
Y131686D01*
Y131249D01*
Y130811D01*
X303380D01*
Y131249D01*
Y131686D01*
Y132124D01*
Y132562D01*
Y132999D01*
Y133437D01*
Y133874D01*
Y134312D01*
Y134749D01*
Y135187D01*
Y135624D01*
Y136062D01*
Y136499D01*
Y136937D01*
Y137374D01*
Y137812D01*
Y138250D01*
Y138687D01*
Y139125D01*
Y139562D01*
Y140000D01*
Y140437D01*
Y140875D01*
Y141312D01*
Y141750D01*
Y142187D01*
Y142625D01*
Y143062D01*
Y143500D01*
Y143938D01*
Y144375D01*
Y144813D01*
Y145250D01*
Y145688D01*
Y146125D01*
Y146563D01*
Y147000D01*
Y147438D01*
Y147875D01*
Y148313D01*
Y148750D01*
Y149188D01*
Y149626D01*
Y150063D01*
Y150501D01*
Y150938D01*
Y151376D01*
Y151813D01*
X311693D01*
Y151376D01*
D02*
G37*
G36*
X174743Y139125D02*
X175180D01*
Y138687D01*
X175618D01*
Y138250D01*
Y137812D01*
Y137374D01*
Y136937D01*
X175180D01*
Y136499D01*
X164680D01*
Y136937D01*
Y137374D01*
Y137812D01*
Y138250D01*
Y138687D01*
X165117D01*
Y139125D01*
X165555D01*
Y139562D01*
X167305D01*
Y139125D01*
X167742D01*
Y138687D01*
Y138250D01*
Y137812D01*
X172555D01*
Y138250D01*
X172993D01*
Y138687D01*
Y139125D01*
X173430D01*
Y139562D01*
X174743D01*
Y139125D01*
D02*
G37*
G36*
X405327Y157064D02*
X405765D01*
Y156626D01*
Y156189D01*
Y155751D01*
Y155314D01*
X405327D01*
Y154876D01*
X404889D01*
Y154438D01*
X404452D01*
Y154001D01*
X402264D01*
Y154438D01*
X401827D01*
Y154876D01*
X395701D01*
Y154438D01*
X395264D01*
Y154001D01*
X393513D01*
Y154438D01*
X393076D01*
Y154876D01*
X392638D01*
Y155314D01*
X392201D01*
Y155751D01*
Y156189D01*
Y156626D01*
X392638D01*
Y157064D01*
X395264D01*
Y156626D01*
X395701D01*
Y156189D01*
X401827D01*
Y156626D01*
X402264D01*
Y157064D01*
X404014D01*
Y157501D01*
X405327D01*
Y157064D01*
D02*
G37*
G36*
X401389Y160127D02*
X401827D01*
Y159689D01*
Y159251D01*
Y158814D01*
Y158376D01*
Y157939D01*
X401389D01*
Y157501D01*
X399201D01*
Y157939D01*
X392638D01*
Y157501D01*
X392201D01*
Y157064D01*
X391763D01*
Y156626D01*
X391326D01*
Y156189D01*
X390888D01*
Y155751D01*
X390451D01*
Y155314D01*
X390013D01*
Y154876D01*
X389576D01*
Y154438D01*
X389138D01*
Y154001D01*
X388701D01*
Y153563D01*
X388263D01*
Y153126D01*
X387825D01*
Y152688D01*
X391763D01*
Y153126D01*
X393951D01*
Y152688D01*
X394389D01*
Y152251D01*
X394826D01*
Y151813D01*
Y151376D01*
X394389D01*
Y150938D01*
X393951D01*
Y150501D01*
X391763D01*
Y150938D01*
X391326D01*
Y151376D01*
X388701D01*
Y150938D01*
X388263D01*
Y150501D01*
X387825D01*
Y150063D01*
X387388D01*
Y149626D01*
X386950D01*
Y149188D01*
Y148750D01*
X386513D01*
Y148313D01*
X386075D01*
Y147875D01*
X385638D01*
Y147438D01*
X385200D01*
Y147000D01*
X384763D01*
Y146563D01*
Y146125D01*
Y145688D01*
Y145250D01*
Y144813D01*
Y144375D01*
Y143938D01*
Y143500D01*
Y143062D01*
X388263D01*
Y143500D01*
X388701D01*
Y143938D01*
X389138D01*
Y144375D01*
X389576D01*
Y144813D01*
X390013D01*
Y145250D01*
X390451D01*
Y145688D01*
Y146125D01*
X390888D01*
Y146563D01*
X391326D01*
Y147000D01*
X391763D01*
Y147438D01*
X392201D01*
Y147875D01*
X392638D01*
Y148313D01*
X393076D01*
Y148750D01*
Y149188D01*
X397889D01*
Y149626D01*
Y150063D01*
X398326D01*
Y150501D01*
X400077D01*
Y150063D01*
X400514D01*
Y149626D01*
X400952D01*
Y149188D01*
Y148750D01*
Y148313D01*
Y147875D01*
Y147438D01*
Y147000D01*
X400514D01*
Y146563D01*
X398326D01*
Y147000D01*
X397889D01*
Y147438D01*
Y147875D01*
X393951D01*
Y147438D01*
X393513D01*
Y147000D01*
X393076D01*
Y146563D01*
X392638D01*
Y146125D01*
X392201D01*
Y145688D01*
X391763D01*
Y145250D01*
Y144813D01*
X391326D01*
Y144375D01*
X390888D01*
Y143938D01*
X390451D01*
Y143500D01*
X390013D01*
Y143062D01*
X389576D01*
Y142625D01*
Y142187D01*
Y141750D01*
X384763D01*
Y141312D01*
Y140875D01*
Y140437D01*
X397889D01*
Y140000D01*
Y139562D01*
X398326D01*
Y139125D01*
X399201D01*
Y138687D01*
X399639D01*
Y138250D01*
X404889D01*
Y138687D01*
X406640D01*
Y138250D01*
X407077D01*
Y137812D01*
X407515D01*
Y137374D01*
Y136937D01*
Y136499D01*
Y136062D01*
X407077D01*
Y135624D01*
X404889D01*
Y136062D01*
X404452D01*
Y136499D01*
Y136937D01*
X399201D01*
Y137374D01*
X398764D01*
Y137812D01*
X397889D01*
Y138250D01*
X397451D01*
Y138687D01*
X397014D01*
Y139125D01*
X384763D01*
Y138687D01*
Y138250D01*
Y137812D01*
Y137374D01*
Y136937D01*
Y136499D01*
Y136062D01*
Y135624D01*
X385200D01*
Y135187D01*
X385638D01*
Y134749D01*
X386075D01*
Y134312D01*
X386513D01*
Y133874D01*
X397451D01*
Y134312D01*
Y134749D01*
Y135187D01*
X397889D01*
Y135624D01*
X400077D01*
Y135187D01*
X400514D01*
Y134749D01*
X400952D01*
Y134312D01*
Y133874D01*
Y133437D01*
Y132999D01*
X400514D01*
Y132562D01*
X400077D01*
Y132124D01*
X397889D01*
Y132562D01*
X385638D01*
Y132999D01*
X385200D01*
Y133437D01*
Y133874D01*
X384763D01*
Y133437D01*
Y132999D01*
Y132562D01*
Y132124D01*
Y131686D01*
Y131249D01*
Y130811D01*
Y130374D01*
Y129936D01*
Y129499D01*
Y129061D01*
Y128624D01*
Y128186D01*
Y127749D01*
Y127311D01*
Y126873D01*
Y126436D01*
Y125998D01*
Y125561D01*
Y125123D01*
Y124686D01*
Y124248D01*
X392638D01*
Y123811D01*
X393076D01*
Y123373D01*
Y122936D01*
X393513D01*
Y122498D01*
X393951D01*
Y122061D01*
X394389D01*
Y121623D01*
X394826D01*
Y121185D01*
X395264D01*
Y120748D01*
X395701D01*
Y120310D01*
X396139D01*
Y119873D01*
X396576D01*
Y119435D01*
X397014D01*
Y118998D01*
X397451D01*
Y118560D01*
X397889D01*
Y118123D01*
X398326D01*
Y117685D01*
X398764D01*
Y117247D01*
X400952D01*
Y116810D01*
X401389D01*
Y116373D01*
Y115935D01*
Y115497D01*
Y115060D01*
Y114622D01*
X400952D01*
Y114185D01*
Y113747D01*
X400514D01*
Y113310D01*
X398764D01*
Y113747D01*
X398326D01*
Y114185D01*
Y114622D01*
Y115060D01*
Y115497D01*
Y115935D01*
X397889D01*
Y116373D01*
Y116810D01*
X397451D01*
Y117247D01*
X397014D01*
Y117685D01*
X396576D01*
Y118123D01*
X396139D01*
Y118560D01*
X395701D01*
Y118998D01*
X395264D01*
Y119435D01*
X394826D01*
Y119873D01*
X394389D01*
Y120310D01*
X393951D01*
Y120748D01*
X393513D01*
Y121185D01*
X393076D01*
Y121623D01*
X392638D01*
Y122061D01*
X392201D01*
Y122498D01*
X391763D01*
Y122936D01*
X384763D01*
Y122498D01*
X376012D01*
Y122936D01*
Y123373D01*
Y123811D01*
Y124248D01*
Y124686D01*
Y125123D01*
Y125561D01*
Y125998D01*
Y126436D01*
Y126873D01*
Y127311D01*
Y127749D01*
Y128186D01*
Y128624D01*
Y129061D01*
Y129499D01*
Y129936D01*
Y130374D01*
Y130811D01*
Y131249D01*
Y131686D01*
Y132124D01*
X356323D01*
Y132562D01*
Y132999D01*
Y133437D01*
Y133874D01*
Y134312D01*
Y134749D01*
Y135187D01*
Y135624D01*
Y136062D01*
Y136499D01*
Y136937D01*
Y137374D01*
Y137812D01*
Y138250D01*
Y138687D01*
Y139125D01*
Y139562D01*
Y140000D01*
Y140437D01*
Y140875D01*
Y141312D01*
Y141750D01*
Y142187D01*
Y142625D01*
Y143062D01*
Y143500D01*
Y143938D01*
Y144375D01*
Y144813D01*
Y145250D01*
Y145688D01*
Y146125D01*
Y146563D01*
Y147000D01*
Y147438D01*
Y147875D01*
Y148313D01*
Y148750D01*
Y149188D01*
Y149626D01*
Y150063D01*
Y150501D01*
Y150938D01*
Y151376D01*
X384763D01*
Y151813D01*
X385200D01*
Y152251D01*
X385638D01*
Y152688D01*
X386075D01*
Y153126D01*
X386513D01*
Y153563D01*
X386950D01*
Y154001D01*
X387388D01*
Y154438D01*
X387825D01*
Y154876D01*
X388263D01*
Y155314D01*
X388701D01*
Y155751D01*
X389138D01*
Y156189D01*
X389576D01*
Y156626D01*
X390013D01*
Y157064D01*
X390451D01*
Y157501D01*
X390888D01*
Y157939D01*
Y158376D01*
X391326D01*
Y158814D01*
Y159251D01*
X398326D01*
Y159689D01*
Y160127D01*
X399201D01*
Y160564D01*
X401389D01*
Y160127D01*
D02*
G37*
%LPC*%
G36*
X250000Y143500D02*
X236874D01*
Y143062D01*
Y142625D01*
Y142187D01*
Y141750D01*
Y141312D01*
Y140875D01*
Y140437D01*
Y140000D01*
Y139562D01*
Y139125D01*
Y138687D01*
Y138250D01*
Y137812D01*
Y137374D01*
Y136937D01*
Y136499D01*
Y136062D01*
Y135624D01*
Y135187D01*
Y134749D01*
Y134312D01*
Y133874D01*
Y133437D01*
Y132999D01*
Y132562D01*
Y132124D01*
Y131686D01*
Y131249D01*
Y130811D01*
X250000D01*
Y131249D01*
Y131686D01*
Y132124D01*
Y132562D01*
Y132999D01*
Y133437D01*
Y133874D01*
Y134312D01*
Y134749D01*
Y135187D01*
Y135624D01*
Y136062D01*
Y136499D01*
Y136937D01*
Y137374D01*
Y137812D01*
Y138250D01*
Y138687D01*
Y139125D01*
Y139562D01*
Y140000D01*
Y140437D01*
Y140875D01*
Y141312D01*
Y141750D01*
Y142187D01*
Y142625D01*
Y143062D01*
Y143500D01*
D02*
G37*
G36*
X376887Y144375D02*
X363761D01*
Y143938D01*
Y143500D01*
Y143062D01*
Y142625D01*
Y142187D01*
Y141750D01*
Y141312D01*
Y140875D01*
Y140437D01*
Y140000D01*
X376887D01*
Y140437D01*
Y140875D01*
Y141312D01*
Y141750D01*
Y142187D01*
Y142625D01*
Y143062D01*
Y143500D01*
Y143938D01*
Y144375D01*
D02*
G37*
G36*
X385638Y150063D02*
X385200D01*
Y149626D01*
X384763D01*
Y149188D01*
Y148750D01*
X385200D01*
Y149188D01*
X385638D01*
Y149626D01*
Y150063D01*
D02*
G37*
G36*
X387825Y152688D02*
X387388D01*
Y152251D01*
X386950D01*
Y151813D01*
X386513D01*
Y151376D01*
X386075D01*
Y150938D01*
X385638D01*
Y150501D01*
Y150063D01*
X386075D01*
Y150501D01*
X386513D01*
Y150938D01*
X386950D01*
Y151376D01*
X387388D01*
Y151813D01*
X387825D01*
Y152251D01*
Y152688D01*
D02*
G37*
G36*
X381700Y116810D02*
X375137D01*
Y116373D01*
Y115935D01*
Y115497D01*
X381700D01*
Y115935D01*
Y116373D01*
Y116810D01*
D02*
G37*
%LPD*%
M02*
