M48
;Layer_Color=9474304
;FILE_FORMAT=2:5
INCH,LZ
;TYPE=PLATED
T1F00S00C0.01400
T2F00S00C0.02800
T3F00S00C0.03200
T4F00S00C0.03346
T5F00S00C0.03543
T6F00S00C0.03600
T7F00S00C0.04000
T8F00S00C0.09000
;TYPE=NON_PLATED
T9F00S00C0.17700
%
T01
X0278Y0155
X0283
X033475Y0115
X03525Y016
Y0165
Y017
X030775Y017175
X0298Y017625
X029375
X029125Y01725
X028Y016625
X0275
X0264Y0159
X0257Y01885
Y01935
Y0199
X02535Y02015
Y0196
Y0191
X0302Y01905
X03025Y0198
X03035Y021
X02995
X03075
X03115
X02965Y02205
X02995Y0182
T02
X02655Y01705
X029Y01635
X025575Y0211
T03
X02675Y01075
Y01175
X02875
Y01075
X03075
Y01175
T04
X02725Y013
Y0139
Y01475
X03025
Y0139
Y013
T05
X013875Y01125
X014875
X015875
X016875
X017875
X018875
X019875
X020875
X021875
X022875
X035Y011
X036
X037
Y012
X036
X035
T06
X0282579Y02332
Y0241
X02925
Y02332
T07
X01747Y01411
X02003
X02411Y01528
X02589
Y01272
X02411
X03161
X03339
Y01528
X03161
X03747Y01411
X04003
Y01589
X03747
X03628Y01786
Y01964
X03372
Y01786
X04122
Y01964
X04378
Y01786
X04003Y02161
Y02339
X03747
Y02161
X02378Y01964
Y01786
X02122
Y01964
X02003Y02161
Y02339
X01747
Y02161
X01628Y01964
Y01786
X01747Y01589
X02003
X01372Y01786
Y01964
T08
X02638Y02517
X03112
T09
X015Y015
X0435Y0115
Y026
X014
M30
