%FSLAX25Y25*%
%MOIN*%
G70*
G01*
G75*
G04 Layer_Color=8388736*
G04:AMPARAMS|DCode=10|XSize=40mil|YSize=40mil|CornerRadius=20mil|HoleSize=0mil|Usage=FLASHONLY|Rotation=0.000|XOffset=0mil|YOffset=0mil|HoleType=Round|Shape=RoundedRectangle|*
%AMROUNDEDRECTD10*
21,1,0.04000,0.00000,0,0,0.0*
21,1,0.00000,0.04000,0,0,0.0*
1,1,0.04000,0.00000,0.00000*
1,1,0.04000,0.00000,0.00000*
1,1,0.04000,0.00000,0.00000*
1,1,0.04000,0.00000,0.00000*
%
%ADD10ROUNDEDRECTD10*%
%ADD11R,0.03200X0.01200*%
%ADD12R,0.01200X0.03200*%
%ADD13R,0.04800X0.03200*%
%ADD14R,0.03200X0.04800*%
%ADD15R,0.03600X0.02800*%
%ADD16R,0.05512X0.04331*%
%ADD17R,0.04331X0.05512*%
%ADD18R,0.02800X0.03600*%
%ADD19R,0.07500X0.05600*%
%ADD20C,0.01000*%
%ADD21C,0.03000*%
%ADD22C,0.01200*%
%ADD23C,0.00800*%
%ADD24C,0.02000*%
%ADD25R,0.18000X0.18000*%
%ADD26C,0.06000*%
%ADD27C,0.05906*%
%ADD28R,0.05906X0.05906*%
%ADD29C,0.07400*%
%ADD30C,0.13500*%
%ADD31C,0.06600*%
%ADD32C,0.05512*%
%ADD33C,0.02400*%
%ADD34C,0.05000*%
%ADD35C,0.02300*%
%ADD36C,0.00000*%
%ADD37C,0.00787*%
%ADD38C,0.00600*%
%ADD39C,0.01600*%
%ADD40R,0.02800X0.01600*%
%ADD41C,0.05000*%
%ADD42R,0.18000X0.17500*%
G04:AMPARAMS|DCode=43|XSize=48mil|YSize=48mil|CornerRadius=24mil|HoleSize=0mil|Usage=FLASHONLY|Rotation=0.000|XOffset=0mil|YOffset=0mil|HoleType=Round|Shape=RoundedRectangle|*
%AMROUNDEDRECTD43*
21,1,0.04800,0.00000,0,0,0.0*
21,1,0.00000,0.04800,0,0,0.0*
1,1,0.04800,0.00000,0.00000*
1,1,0.04800,0.00000,0.00000*
1,1,0.04800,0.00000,0.00000*
1,1,0.04800,0.00000,0.00000*
%
%ADD43ROUNDEDRECTD43*%
%ADD44R,0.04000X0.02000*%
%ADD45R,0.02000X0.04000*%
%ADD46R,0.05600X0.04000*%
%ADD47R,0.04000X0.05600*%
%ADD48R,0.04400X0.03600*%
%ADD49R,0.06312X0.05131*%
%ADD50R,0.05131X0.06312*%
%ADD51R,0.03600X0.04400*%
%ADD52R,0.08300X0.06400*%
%ADD53C,0.06800*%
%ADD54C,0.06706*%
%ADD55R,0.06706X0.06706*%
%ADD56C,0.08200*%
%ADD57C,0.14300*%
%ADD58C,0.06312*%
%ADD59C,0.03100*%
%ADD60C,0.03200*%
%ADD61C,0.05800*%
D29*
X282579Y241000D02*
D03*
X292500D02*
D03*
Y233200D02*
D03*
X282579D02*
D03*
D41*
X240600Y208000D02*
G03*
X240600Y208000I-3600J0D01*
G01*
X143600Y241000D02*
G03*
X143600Y241000I-3600J0D01*
G01*
X417600Y115000D02*
G03*
X417600Y115000I-3600J0D01*
G01*
D42*
X283000Y196750D02*
D03*
D43*
X237000Y208000D02*
D03*
X140000Y241000D02*
D03*
X414000Y115000D02*
D03*
D44*
X296386Y202000D02*
D03*
Y205900D02*
D03*
Y203900D02*
D03*
Y200000D02*
D03*
X269600Y186158D02*
D03*
Y188126D02*
D03*
Y190094D02*
D03*
Y192063D02*
D03*
Y194032D02*
D03*
Y196000D02*
D03*
Y198000D02*
D03*
Y200000D02*
D03*
Y202000D02*
D03*
Y203900D02*
D03*
Y205900D02*
D03*
X296386Y198000D02*
D03*
Y196000D02*
D03*
Y194032D02*
D03*
Y192063D02*
D03*
Y190094D02*
D03*
Y188126D02*
D03*
Y186158D02*
D03*
D45*
X273100Y209400D02*
D03*
X275100D02*
D03*
X277000D02*
D03*
X279000D02*
D03*
X281000D02*
D03*
X283000D02*
D03*
X284968D02*
D03*
X286937D02*
D03*
X288906D02*
D03*
X290874D02*
D03*
X292843D02*
D03*
Y182614D02*
D03*
X290874D02*
D03*
X288906D02*
D03*
X286937D02*
D03*
X284968D02*
D03*
X283000D02*
D03*
X281000D02*
D03*
X279000D02*
D03*
X277000D02*
D03*
X275100D02*
D03*
X273100D02*
D03*
D46*
X248500Y211350D02*
D03*
Y204207D02*
D03*
D47*
X311100Y176500D02*
D03*
X303957D02*
D03*
D48*
X274750Y176100D02*
D03*
Y170941D02*
D03*
X280250Y176100D02*
D03*
Y170941D02*
D03*
D49*
X258500Y178047D02*
D03*
Y183953D02*
D03*
X263000Y205047D02*
D03*
Y210953D02*
D03*
X252250Y237453D02*
D03*
Y231547D02*
D03*
D50*
X277797Y160500D02*
D03*
X283703D02*
D03*
X299953Y215500D02*
D03*
X294047D02*
D03*
D51*
X319400Y205750D02*
D03*
X324559D02*
D03*
X313100Y183000D02*
D03*
X307941D02*
D03*
D52*
X326661Y189700D02*
D03*
X309300D02*
D03*
Y199224D02*
D03*
X326661D02*
D03*
D53*
X435000Y260000D02*
D03*
Y115000D02*
D03*
X150000Y150000D02*
D03*
X140000Y260000D02*
D03*
D54*
X158750Y112500D02*
D03*
X228750D02*
D03*
X218750D02*
D03*
X208750D02*
D03*
X198750D02*
D03*
X188750D02*
D03*
X178750D02*
D03*
X168750D02*
D03*
X148750D02*
D03*
X360000Y110000D02*
D03*
X370000D02*
D03*
X350000Y120000D02*
D03*
X360000D02*
D03*
X370000D02*
D03*
D55*
X138750Y112500D02*
D03*
X350000Y110000D02*
D03*
D56*
X137200Y196400D02*
D03*
X162800D02*
D03*
X137200Y178600D02*
D03*
X162800D02*
D03*
X174700Y233900D02*
D03*
X200300D02*
D03*
X174700Y216100D02*
D03*
X200300D02*
D03*
X174700Y158900D02*
D03*
X200300D02*
D03*
X174700Y141100D02*
D03*
X200300D02*
D03*
X212200Y196400D02*
D03*
X237800D02*
D03*
X212200Y178600D02*
D03*
X237800D02*
D03*
X437800D02*
D03*
X412200D02*
D03*
X437800Y196400D02*
D03*
X412200D02*
D03*
X400300Y141100D02*
D03*
X374700D02*
D03*
X400300Y158900D02*
D03*
X374700D02*
D03*
X400300Y216100D02*
D03*
X374700D02*
D03*
X400300Y233900D02*
D03*
X374700D02*
D03*
X362800Y178600D02*
D03*
X337200D02*
D03*
X362800Y196400D02*
D03*
X337200D02*
D03*
X316100Y127200D02*
D03*
Y152800D02*
D03*
X333900Y127200D02*
D03*
Y152800D02*
D03*
X241100Y127200D02*
D03*
Y152800D02*
D03*
X258900Y127200D02*
D03*
Y152800D02*
D03*
X267500Y107500D02*
D03*
Y117500D02*
D03*
X287500Y107500D02*
D03*
Y117500D02*
D03*
X307500Y107500D02*
D03*
Y117500D02*
D03*
D57*
X311200Y251700D02*
D03*
X263800D02*
D03*
D58*
X302500Y130000D02*
D03*
X272500D02*
D03*
X302500Y139000D02*
D03*
X272500D02*
D03*
X302500Y147500D02*
D03*
X272500D02*
D03*
D59*
X334750Y115000D02*
D03*
D60*
X307750Y171750D02*
D03*
D61*
X290000Y163500D02*
D03*
M02*
