%FSLAX25Y25*%
%MOIN*%
G70*
G01*
G75*
G04 Layer_Color=65535*
G04:AMPARAMS|DCode=10|XSize=40mil|YSize=40mil|CornerRadius=20mil|HoleSize=0mil|Usage=FLASHONLY|Rotation=0.000|XOffset=0mil|YOffset=0mil|HoleType=Round|Shape=RoundedRectangle|*
%AMROUNDEDRECTD10*
21,1,0.04000,0.00000,0,0,0.0*
21,1,0.00000,0.04000,0,0,0.0*
1,1,0.04000,0.00000,0.00000*
1,1,0.04000,0.00000,0.00000*
1,1,0.04000,0.00000,0.00000*
1,1,0.04000,0.00000,0.00000*
%
%ADD10ROUNDEDRECTD10*%
%ADD11R,0.03200X0.01200*%
%ADD12R,0.01200X0.03200*%
%ADD13R,0.04800X0.03200*%
%ADD14R,0.03200X0.04800*%
%ADD15R,0.03600X0.02800*%
%ADD16R,0.05512X0.04331*%
%ADD17R,0.04331X0.05512*%
%ADD18R,0.02800X0.03600*%
%ADD19R,0.07500X0.05600*%
%ADD20C,0.01000*%
%ADD21C,0.03000*%
%ADD22C,0.01200*%
%ADD23C,0.00800*%
%ADD24C,0.02000*%
%ADD25R,0.18000X0.18000*%
%ADD26C,0.06000*%
%ADD27C,0.05906*%
%ADD28R,0.05906X0.05906*%
%ADD29C,0.07400*%
%ADD30C,0.13500*%
%ADD31C,0.06600*%
%ADD32C,0.05512*%
%ADD33C,0.02400*%
%ADD34C,0.05000*%
%ADD35C,0.02300*%
%ADD36C,0.00000*%
%ADD37C,0.00787*%
%ADD38C,0.00600*%
%ADD39C,0.01600*%
%ADD40R,0.02800X0.01600*%
G36*
X395064Y269927D02*
X395338D01*
Y269653D01*
X395612D01*
Y269379D01*
X395885D01*
Y269106D01*
Y268832D01*
X396159D01*
Y268558D01*
Y268284D01*
Y268011D01*
Y267737D01*
Y267463D01*
Y267190D01*
Y266916D01*
Y266642D01*
Y266369D01*
Y266095D01*
Y265821D01*
Y265547D01*
Y265274D01*
Y265000D01*
Y264726D01*
Y264453D01*
Y264179D01*
Y263905D01*
Y263632D01*
Y263358D01*
Y263084D01*
Y262810D01*
Y262537D01*
Y262263D01*
Y261989D01*
Y261716D01*
Y261442D01*
Y261168D01*
Y260894D01*
Y260621D01*
Y260347D01*
Y260073D01*
Y259800D01*
Y259526D01*
Y259252D01*
Y258979D01*
Y258705D01*
Y258431D01*
Y258157D01*
Y257884D01*
Y257610D01*
Y257336D01*
X407928D01*
Y257063D01*
X408202D01*
Y256789D01*
X408475D01*
Y256515D01*
X408749D01*
Y256242D01*
Y255968D01*
Y255694D01*
Y255420D01*
Y255147D01*
Y254873D01*
Y254599D01*
Y254326D01*
Y254052D01*
Y253778D01*
Y253505D01*
Y253231D01*
Y252957D01*
Y252683D01*
Y252410D01*
Y252136D01*
Y251862D01*
Y251589D01*
Y251315D01*
Y251041D01*
Y250768D01*
Y250494D01*
Y250220D01*
Y249946D01*
Y249673D01*
Y249399D01*
Y249125D01*
Y248852D01*
Y248578D01*
Y248304D01*
Y248031D01*
Y247757D01*
Y247483D01*
Y247210D01*
Y246936D01*
Y246662D01*
Y246388D01*
Y246115D01*
Y245841D01*
Y245567D01*
Y245294D01*
Y245020D01*
Y244746D01*
Y244473D01*
Y244199D01*
Y243925D01*
Y243651D01*
Y243378D01*
Y243104D01*
Y242830D01*
Y242557D01*
Y242283D01*
Y242009D01*
Y241736D01*
Y241462D01*
Y241188D01*
Y240914D01*
Y240641D01*
Y240367D01*
X408475D01*
Y240093D01*
X408202D01*
Y239820D01*
X407654D01*
Y239546D01*
X397254D01*
Y239820D01*
Y240093D01*
Y240367D01*
Y240641D01*
Y240914D01*
Y241188D01*
Y241462D01*
Y241736D01*
Y242009D01*
Y242283D01*
Y242557D01*
Y242830D01*
Y243104D01*
Y243378D01*
Y243651D01*
Y243925D01*
Y244199D01*
Y244473D01*
Y244746D01*
X403549D01*
Y245020D01*
Y245294D01*
Y245567D01*
Y245841D01*
Y246115D01*
Y246388D01*
Y246662D01*
Y246936D01*
Y247210D01*
Y247483D01*
Y247757D01*
Y248031D01*
Y248304D01*
Y248578D01*
Y248852D01*
Y249125D01*
Y249399D01*
Y249673D01*
Y249946D01*
Y250220D01*
Y250494D01*
Y250768D01*
Y251041D01*
Y251315D01*
Y251589D01*
Y251862D01*
Y252136D01*
Y252410D01*
X396159D01*
Y252136D01*
Y251862D01*
Y251589D01*
Y251315D01*
Y251041D01*
Y250768D01*
Y250494D01*
Y250220D01*
Y249946D01*
Y249673D01*
Y249399D01*
Y249125D01*
Y248852D01*
Y248578D01*
Y248304D01*
Y248031D01*
Y247757D01*
Y247483D01*
Y247210D01*
Y246936D01*
Y246662D01*
Y246388D01*
Y246115D01*
X395885D01*
Y245841D01*
X390959D01*
Y246115D01*
Y246388D01*
Y246662D01*
Y246936D01*
Y247210D01*
Y247483D01*
Y247757D01*
Y248031D01*
Y248304D01*
Y248578D01*
Y248852D01*
Y249125D01*
Y249399D01*
Y249673D01*
Y249946D01*
Y250220D01*
Y250494D01*
Y250768D01*
Y251041D01*
Y251315D01*
Y251589D01*
Y251862D01*
Y252136D01*
Y252410D01*
Y252683D01*
Y252957D01*
Y253231D01*
Y253505D01*
Y253778D01*
Y254052D01*
Y254326D01*
Y254599D01*
Y254873D01*
Y255147D01*
Y255420D01*
Y255694D01*
Y255968D01*
Y256242D01*
Y256515D01*
Y256789D01*
Y257063D01*
Y257336D01*
Y257610D01*
Y257884D01*
Y258157D01*
Y258431D01*
Y258705D01*
Y258979D01*
Y259252D01*
Y259526D01*
Y259800D01*
Y260073D01*
Y260347D01*
Y260621D01*
Y260894D01*
Y261168D01*
Y261442D01*
Y261716D01*
Y261989D01*
Y262263D01*
Y262537D01*
Y262810D01*
Y263084D01*
Y263358D01*
Y263632D01*
Y263905D01*
Y264179D01*
Y264453D01*
Y264726D01*
Y265000D01*
X384664D01*
Y265274D01*
Y265547D01*
Y265821D01*
Y266095D01*
Y266369D01*
Y266642D01*
Y266916D01*
Y267190D01*
Y267463D01*
Y267737D01*
Y268011D01*
Y268284D01*
Y268558D01*
Y268832D01*
Y269106D01*
Y269379D01*
Y269653D01*
Y269927D01*
Y270200D01*
X395064D01*
Y269927D01*
D02*
G37*
G36*
X389590Y263632D02*
Y263358D01*
Y263084D01*
Y262810D01*
Y262537D01*
Y262263D01*
Y261989D01*
Y261716D01*
Y261442D01*
Y261168D01*
Y260894D01*
Y260621D01*
Y260347D01*
Y260073D01*
Y259800D01*
Y259526D01*
Y259252D01*
Y258979D01*
Y258705D01*
Y258431D01*
Y258157D01*
Y257884D01*
Y257610D01*
Y257336D01*
Y257063D01*
Y256789D01*
Y256515D01*
Y256242D01*
Y255968D01*
Y255694D01*
Y255420D01*
Y255147D01*
Y254873D01*
Y254599D01*
Y254326D01*
Y254052D01*
Y253778D01*
Y253505D01*
Y253231D01*
Y252957D01*
Y252683D01*
Y252410D01*
Y252136D01*
Y251862D01*
Y251589D01*
Y251315D01*
Y251041D01*
Y250768D01*
Y250494D01*
Y250220D01*
Y249946D01*
Y249673D01*
Y249399D01*
Y249125D01*
Y248852D01*
Y248578D01*
Y248304D01*
Y248031D01*
Y247757D01*
Y247483D01*
Y247210D01*
Y246936D01*
Y246662D01*
Y246388D01*
Y246115D01*
Y245841D01*
Y245567D01*
Y245294D01*
Y245020D01*
Y244746D01*
X395885D01*
Y244473D01*
X396159D01*
Y244199D01*
Y243925D01*
Y243651D01*
Y243378D01*
Y243104D01*
Y242830D01*
Y242557D01*
Y242283D01*
Y242009D01*
Y241736D01*
Y241462D01*
Y241188D01*
Y240914D01*
Y240641D01*
Y240367D01*
Y240093D01*
Y239820D01*
X395885D01*
Y239546D01*
X371800D01*
Y239820D01*
Y240093D01*
Y240367D01*
Y240641D01*
Y240914D01*
Y241188D01*
Y241462D01*
Y241736D01*
Y242009D01*
Y242283D01*
Y242557D01*
Y242830D01*
Y243104D01*
Y243378D01*
Y243651D01*
Y243925D01*
Y244199D01*
Y244473D01*
Y244746D01*
Y245020D01*
Y245294D01*
Y245567D01*
Y245841D01*
Y246115D01*
Y246388D01*
Y246662D01*
Y246936D01*
Y247210D01*
Y247483D01*
Y247757D01*
Y248031D01*
Y248304D01*
Y248578D01*
Y248852D01*
Y249125D01*
Y249399D01*
Y249673D01*
Y249946D01*
Y250220D01*
Y250494D01*
Y250768D01*
Y251041D01*
X377000D01*
Y250768D01*
Y250494D01*
Y250220D01*
Y249946D01*
Y249673D01*
Y249399D01*
Y249125D01*
Y248852D01*
Y248578D01*
Y248304D01*
Y248031D01*
Y247757D01*
Y247483D01*
Y247210D01*
Y246936D01*
Y246662D01*
Y246388D01*
Y246115D01*
Y245841D01*
Y245567D01*
Y245294D01*
Y245020D01*
Y244746D01*
X384664D01*
Y245020D01*
Y245294D01*
Y245567D01*
Y245841D01*
Y246115D01*
Y246388D01*
Y246662D01*
Y246936D01*
Y247210D01*
Y247483D01*
Y247757D01*
Y248031D01*
Y248304D01*
Y248578D01*
Y248852D01*
Y249125D01*
Y249399D01*
Y249673D01*
Y249946D01*
Y250220D01*
Y250494D01*
Y250768D01*
Y251041D01*
Y251315D01*
Y251589D01*
Y251862D01*
Y252136D01*
X378368D01*
Y252410D01*
X378095D01*
Y252683D01*
Y252957D01*
Y253231D01*
Y253505D01*
Y253778D01*
Y254052D01*
Y254326D01*
Y254599D01*
Y254873D01*
Y255147D01*
Y255420D01*
Y255694D01*
Y255968D01*
Y256242D01*
Y256515D01*
Y256789D01*
Y257063D01*
Y257336D01*
X384390D01*
Y257610D01*
X384664D01*
Y257884D01*
Y258157D01*
Y258431D01*
Y258705D01*
X371800D01*
Y258979D01*
Y259252D01*
Y259526D01*
Y259800D01*
Y260073D01*
Y260347D01*
Y260621D01*
Y260894D01*
Y261168D01*
Y261442D01*
Y261716D01*
Y261989D01*
Y262263D01*
Y262537D01*
Y262810D01*
Y263084D01*
Y263358D01*
Y263632D01*
X372073D01*
Y263905D01*
X389590D01*
Y263632D01*
D02*
G37*
G36*
X364410Y246936D02*
Y246662D01*
Y246388D01*
Y246115D01*
Y245841D01*
Y245567D01*
Y245294D01*
Y245020D01*
X363862D01*
Y244746D01*
X363315D01*
Y244473D01*
X363041D01*
Y244199D01*
X362494D01*
Y243925D01*
X362220D01*
Y243651D01*
X361673D01*
Y243378D01*
X361125D01*
Y243104D01*
X360852D01*
Y242830D01*
X360304D01*
Y242557D01*
X360031D01*
Y242283D01*
X359483D01*
Y242009D01*
X358936D01*
Y241736D01*
X358662D01*
Y241462D01*
X364410D01*
Y241188D01*
Y240914D01*
Y240641D01*
Y240367D01*
Y240093D01*
Y239820D01*
Y239546D01*
X354830D01*
Y239820D01*
Y240093D01*
Y240367D01*
Y240641D01*
Y240914D01*
Y241188D01*
Y241462D01*
X355104D01*
Y241736D01*
X355378D01*
Y242009D01*
X355925D01*
Y242283D01*
X356472D01*
Y242557D01*
X356746D01*
Y242830D01*
X357294D01*
Y243104D01*
X357841D01*
Y243378D01*
X358115D01*
Y243651D01*
X358662D01*
Y243925D01*
X358936D01*
Y244199D01*
X359483D01*
Y244473D01*
X360031D01*
Y244746D01*
X360304D01*
Y245020D01*
X360852D01*
Y245294D01*
X354830D01*
Y245567D01*
Y245841D01*
Y246115D01*
Y246388D01*
Y246662D01*
Y246936D01*
Y247210D01*
X364410D01*
Y246936D01*
D02*
G37*
G36*
X383295Y269927D02*
Y269653D01*
Y269379D01*
Y269106D01*
Y268832D01*
Y268558D01*
Y268284D01*
Y268011D01*
Y267737D01*
Y267463D01*
Y267190D01*
Y266916D01*
Y266642D01*
Y266369D01*
Y266095D01*
Y265821D01*
Y265547D01*
Y265274D01*
Y265000D01*
X370705D01*
Y264726D01*
X370431D01*
Y264453D01*
Y264179D01*
Y263905D01*
Y263632D01*
Y263358D01*
Y263084D01*
Y262810D01*
Y262537D01*
Y262263D01*
Y261989D01*
Y261716D01*
Y261442D01*
Y261168D01*
Y260894D01*
Y260621D01*
Y260347D01*
Y260073D01*
Y259800D01*
Y259526D01*
Y259252D01*
Y258979D01*
Y258705D01*
Y258431D01*
Y258157D01*
X370705D01*
Y257884D01*
X370431D01*
Y257610D01*
X370705D01*
Y257336D01*
X377000D01*
Y257063D01*
Y256789D01*
Y256515D01*
Y256242D01*
Y255968D01*
Y255694D01*
Y255420D01*
Y255147D01*
Y254873D01*
Y254599D01*
Y254326D01*
Y254052D01*
Y253778D01*
Y253505D01*
Y253231D01*
Y252957D01*
Y252683D01*
Y252410D01*
X370705D01*
Y252136D01*
X370431D01*
Y251862D01*
X370705D01*
Y251589D01*
X370431D01*
Y251315D01*
Y251041D01*
Y250768D01*
Y250494D01*
Y250220D01*
Y249946D01*
Y249673D01*
Y249399D01*
Y249125D01*
Y248852D01*
Y248578D01*
Y248304D01*
Y248031D01*
Y247757D01*
Y247483D01*
Y247210D01*
Y246936D01*
Y246662D01*
Y246388D01*
Y246115D01*
Y245841D01*
Y245567D01*
Y245294D01*
Y245020D01*
Y244746D01*
Y244473D01*
Y244199D01*
Y243925D01*
Y243651D01*
Y243378D01*
Y243104D01*
Y242830D01*
Y242557D01*
Y242283D01*
Y242009D01*
Y241736D01*
Y241462D01*
Y241188D01*
Y240914D01*
Y240641D01*
Y240367D01*
Y240093D01*
X370705D01*
Y239820D01*
X370431D01*
Y239546D01*
X365505D01*
Y239820D01*
Y240093D01*
Y240367D01*
Y240641D01*
Y240914D01*
Y241188D01*
Y241462D01*
Y241736D01*
Y242009D01*
Y242283D01*
Y242557D01*
Y242830D01*
Y243104D01*
Y243378D01*
Y243651D01*
Y243925D01*
Y244199D01*
Y244473D01*
Y244746D01*
Y245020D01*
Y245294D01*
Y245567D01*
Y245841D01*
Y246115D01*
Y246388D01*
Y246662D01*
Y246936D01*
Y247210D01*
Y247483D01*
Y247757D01*
Y248031D01*
Y248304D01*
Y248578D01*
Y248852D01*
Y249125D01*
Y249399D01*
Y249673D01*
Y249946D01*
Y250220D01*
Y250494D01*
Y250768D01*
Y251041D01*
Y251315D01*
Y251589D01*
Y251862D01*
Y252136D01*
Y252410D01*
Y252683D01*
Y252957D01*
Y253231D01*
Y253505D01*
Y253778D01*
Y254052D01*
Y254326D01*
Y254599D01*
Y254873D01*
Y255147D01*
Y255420D01*
Y255694D01*
Y255968D01*
Y256242D01*
Y256515D01*
Y256789D01*
Y257063D01*
Y257336D01*
Y257610D01*
Y257884D01*
Y258157D01*
Y258431D01*
Y258705D01*
Y258979D01*
Y259252D01*
Y259526D01*
Y259800D01*
Y260073D01*
Y260347D01*
Y260621D01*
Y260894D01*
Y261168D01*
Y261442D01*
Y261716D01*
Y261989D01*
Y262263D01*
Y262537D01*
Y262810D01*
Y263084D01*
Y263358D01*
Y263632D01*
Y263905D01*
Y264179D01*
Y264453D01*
Y264726D01*
Y265000D01*
Y265274D01*
Y265547D01*
Y265821D01*
Y266095D01*
Y266369D01*
Y266642D01*
Y266916D01*
Y267190D01*
Y267463D01*
Y267737D01*
Y268011D01*
Y268284D01*
Y268558D01*
Y268832D01*
Y269106D01*
Y269379D01*
Y269653D01*
Y269927D01*
Y270200D01*
X383295D01*
Y269927D01*
D02*
G37*
G36*
Y250768D02*
Y250494D01*
Y250220D01*
Y249946D01*
Y249673D01*
Y249399D01*
Y249125D01*
Y248852D01*
Y248578D01*
Y248304D01*
Y248031D01*
Y247757D01*
Y247483D01*
Y247210D01*
Y246936D01*
Y246662D01*
Y246388D01*
Y246115D01*
Y245841D01*
X378095D01*
Y246115D01*
Y246388D01*
Y246662D01*
Y246936D01*
Y247210D01*
Y247483D01*
Y247757D01*
Y248031D01*
Y248304D01*
Y248578D01*
Y248852D01*
Y249125D01*
Y249399D01*
Y249673D01*
Y249946D01*
Y250220D01*
Y250494D01*
Y250768D01*
X378368D01*
Y251041D01*
X383295D01*
Y250768D01*
D02*
G37*
G36*
X364410Y263358D02*
Y263084D01*
Y262810D01*
Y262537D01*
Y262263D01*
Y261989D01*
Y261716D01*
Y261442D01*
X364136D01*
Y261168D01*
X363862D01*
Y260894D01*
X363315D01*
Y260621D01*
X363041D01*
Y260347D01*
X362494D01*
Y260073D01*
X362220D01*
Y259800D01*
X361673D01*
Y259526D01*
X361399D01*
Y259252D01*
Y258979D01*
X361947D01*
Y258705D01*
X362494D01*
Y258431D01*
X362768D01*
Y258157D01*
X363315D01*
Y257884D01*
X363589D01*
Y257610D01*
X364136D01*
Y257336D01*
X364410D01*
Y257063D01*
Y256789D01*
Y256515D01*
Y256242D01*
Y255968D01*
Y255694D01*
Y255420D01*
Y255147D01*
Y254873D01*
X364136D01*
Y255147D01*
X363862D01*
Y255420D01*
X363315D01*
Y255694D01*
X363041D01*
Y255968D01*
X362494D01*
Y256242D01*
X362220D01*
Y256515D01*
X361673D01*
Y256789D01*
X361399D01*
Y257063D01*
X360852D01*
Y257336D01*
X360578D01*
Y257610D01*
X360031D01*
Y257884D01*
X359757D01*
Y258157D01*
X359209D01*
Y257884D01*
X358936D01*
Y257610D01*
X358388D01*
Y257336D01*
X358115D01*
Y257063D01*
X357567D01*
Y256789D01*
X357020D01*
Y256515D01*
X356746D01*
Y256242D01*
X356199D01*
Y255968D01*
X355925D01*
Y255694D01*
X355378D01*
Y255420D01*
X355104D01*
Y255147D01*
X354830D01*
Y255420D01*
Y255694D01*
Y255968D01*
Y256242D01*
Y256515D01*
Y256789D01*
Y257063D01*
Y257336D01*
Y257610D01*
X355378D01*
Y257884D01*
X355651D01*
Y258157D01*
X356199D01*
Y258431D01*
X356746D01*
Y258705D01*
X357020D01*
Y258979D01*
X357567D01*
Y259252D01*
X357841D01*
Y259526D01*
X357567D01*
Y259800D01*
X357020D01*
Y260073D01*
X356472D01*
Y260347D01*
X356199D01*
Y260621D01*
X355651D01*
Y260894D01*
X355104D01*
Y261168D01*
X354830D01*
Y261442D01*
Y261716D01*
Y261989D01*
Y262263D01*
Y262537D01*
Y262810D01*
Y263084D01*
Y263358D01*
X355378D01*
Y263084D01*
X355651D01*
Y262810D01*
X356199D01*
Y262537D01*
X356746D01*
Y262263D01*
X357020D01*
Y261989D01*
X357567D01*
Y261716D01*
X357841D01*
Y261442D01*
X358388D01*
Y261168D01*
X358662D01*
Y260894D01*
X359209D01*
Y260621D01*
X359757D01*
Y260894D01*
X360304D01*
Y261168D01*
X360578D01*
Y261442D01*
X361125D01*
Y261716D01*
X361399D01*
Y261989D01*
X361947D01*
Y262263D01*
X362220D01*
Y262537D01*
X362768D01*
Y262810D01*
X363041D01*
Y263084D01*
X363589D01*
Y263358D01*
X363862D01*
Y263632D01*
X364410D01*
Y263358D01*
D02*
G37*
G36*
X356472Y269653D02*
Y269379D01*
Y269106D01*
Y268832D01*
Y268558D01*
Y268284D01*
Y268011D01*
Y267737D01*
X364410D01*
Y267463D01*
Y267190D01*
Y266916D01*
Y266642D01*
Y266369D01*
Y266095D01*
Y265821D01*
Y265547D01*
X356472D01*
Y265274D01*
Y265000D01*
Y264726D01*
Y264453D01*
Y264179D01*
Y263905D01*
Y263632D01*
X355925D01*
Y263905D01*
X355651D01*
Y264179D01*
X355104D01*
Y264453D01*
X354830D01*
Y264726D01*
Y265000D01*
Y265274D01*
Y265547D01*
Y265821D01*
Y266095D01*
Y266369D01*
Y266642D01*
Y266916D01*
Y267190D01*
Y267463D01*
Y267737D01*
Y268011D01*
Y268284D01*
Y268558D01*
Y268832D01*
Y269106D01*
Y269379D01*
Y269653D01*
Y269927D01*
X356472D01*
Y269653D01*
D02*
G37*
G36*
X402454Y250768D02*
Y250494D01*
Y250220D01*
Y249946D01*
Y249673D01*
Y249399D01*
Y249125D01*
Y248852D01*
Y248578D01*
Y248304D01*
Y248031D01*
Y247757D01*
Y247483D01*
Y247210D01*
Y246936D01*
Y246662D01*
Y246388D01*
Y246115D01*
X402180D01*
Y245841D01*
X397254D01*
Y246115D01*
Y246388D01*
Y246662D01*
Y246936D01*
Y247210D01*
Y247483D01*
Y247757D01*
Y248031D01*
Y248304D01*
Y248578D01*
Y248852D01*
Y249125D01*
Y249399D01*
Y249673D01*
Y249946D01*
Y250220D01*
Y250494D01*
Y250768D01*
Y251041D01*
X402454D01*
Y250768D01*
D02*
G37*
G36*
X356472Y254873D02*
Y254599D01*
Y254326D01*
Y254052D01*
Y253778D01*
Y253505D01*
Y253231D01*
Y252957D01*
Y252683D01*
Y252410D01*
Y252136D01*
Y251862D01*
Y251589D01*
Y251315D01*
Y251041D01*
Y250768D01*
Y250494D01*
Y250220D01*
Y249946D01*
X358662D01*
Y250220D01*
Y250494D01*
Y250768D01*
Y251041D01*
Y251315D01*
Y251589D01*
Y251862D01*
Y252136D01*
Y252410D01*
Y252683D01*
Y252957D01*
Y253231D01*
Y253505D01*
Y253778D01*
Y254052D01*
Y254326D01*
Y254599D01*
Y254873D01*
X360304D01*
Y254599D01*
Y254326D01*
Y254052D01*
Y253778D01*
Y253505D01*
Y253231D01*
Y252957D01*
Y252683D01*
Y252410D01*
Y252136D01*
Y251862D01*
Y251589D01*
Y251315D01*
Y251041D01*
Y250768D01*
Y250494D01*
Y250220D01*
Y249946D01*
X362768D01*
Y250220D01*
Y250494D01*
Y250768D01*
Y251041D01*
Y251315D01*
Y251589D01*
Y251862D01*
Y252136D01*
Y252410D01*
Y252683D01*
Y252957D01*
Y253231D01*
Y253505D01*
Y253778D01*
Y254052D01*
Y254326D01*
Y254599D01*
Y254873D01*
X363041D01*
Y254599D01*
X363589D01*
Y254326D01*
X363862D01*
Y254052D01*
X364410D01*
Y253778D01*
Y253505D01*
Y253231D01*
Y252957D01*
Y252683D01*
Y252410D01*
Y252136D01*
Y251862D01*
Y251589D01*
Y251315D01*
Y251041D01*
Y250768D01*
Y250494D01*
Y250220D01*
Y249946D01*
Y249673D01*
Y249399D01*
Y249125D01*
Y248852D01*
Y248578D01*
Y248304D01*
X354830D01*
Y248578D01*
Y248852D01*
Y249125D01*
Y249399D01*
Y249673D01*
Y249946D01*
Y250220D01*
Y250494D01*
Y250768D01*
Y251041D01*
Y251315D01*
Y251589D01*
Y251862D01*
Y252136D01*
Y252410D01*
Y252683D01*
Y252957D01*
Y253231D01*
Y253505D01*
Y253778D01*
Y254052D01*
Y254326D01*
X355378D01*
Y254599D01*
X355651D01*
Y254873D01*
X356199D01*
Y255147D01*
X356472D01*
Y254873D01*
D02*
G37*
D20*
X263531Y119446D02*
G03*
X259500Y112500I3969J-6946D01*
G01*
D02*
G03*
X262332Y106300I8100J-47D01*
G01*
X275500Y112500D02*
G03*
X271300Y119559I-7982J29D01*
G01*
X272700Y106300D02*
G03*
X275500Y112500I-5219J6089D01*
G01*
X283531Y119446D02*
G03*
X279500Y112500I3969J-6946D01*
G01*
D02*
G03*
X282332Y106300I8100J-47D01*
G01*
X295500Y112500D02*
G03*
X291300Y119559I-7982J29D01*
G01*
X292700Y106300D02*
G03*
X295500Y112500I-5219J6089D01*
G01*
X303531Y119446D02*
G03*
X299500Y112500I3969J-6946D01*
G01*
D02*
G03*
X302332Y106300I8100J-47D01*
G01*
X315500Y112500D02*
G03*
X311300Y119559I-7982J29D01*
G01*
X312700Y106300D02*
G03*
X315500Y112500I-5219J6089D01*
G01*
X262400Y106300D02*
X264200D01*
X270600D02*
X272600D01*
X282400D02*
X284200D01*
X290600D02*
X292600D01*
X302400D02*
X304200D01*
X310600D02*
X312600D01*
X227002Y120000D02*
X231001D01*
X233000Y121999D01*
X231001Y123999D01*
X227002D01*
X228002Y129997D02*
X227002Y128997D01*
Y126998D01*
X228002Y125998D01*
X232000D01*
X233000Y126998D01*
Y128997D01*
X232000Y129997D01*
X228002Y135995D02*
X227002Y134995D01*
Y132996D01*
X228002Y131996D01*
X232000D01*
X233000Y132996D01*
Y134995D01*
X232000Y135995D01*
X217002Y123999D02*
X216002Y122999D01*
Y121000D01*
X217002Y120000D01*
X221000D01*
X222000Y121000D01*
Y122999D01*
X221000Y123999D01*
X219001D01*
Y121999D01*
X222000Y125998D02*
X216002D01*
X222000Y129997D01*
X216002D01*
Y131996D02*
X222000D01*
Y134995D01*
X221000Y135995D01*
X217002D01*
X216002Y134995D01*
Y131996D01*
X206002Y120000D02*
X212000D01*
Y122999D01*
X211000Y123999D01*
X207002D01*
X206002Y122999D01*
Y120000D01*
X212000Y125998D02*
Y127997D01*
Y126998D01*
X206002D01*
X207002Y125998D01*
X196002Y120000D02*
X202000D01*
Y122999D01*
X201000Y123999D01*
X197002D01*
X196002Y122999D01*
Y120000D01*
X197002Y125998D02*
X196002Y126998D01*
Y128997D01*
X197002Y129997D01*
X201000D01*
X202000Y128997D01*
Y126998D01*
X201000Y125998D01*
X197002D01*
X192000Y120000D02*
X188001D01*
X186002Y121999D01*
X188001Y123999D01*
X192000D01*
X189001D01*
Y120000D01*
X186002Y129997D02*
Y125998D01*
X189001D01*
X188001Y127997D01*
Y128997D01*
X189001Y129997D01*
X191000D01*
X192000Y128997D01*
Y126998D01*
X191000Y125998D01*
X182000Y120000D02*
X178001D01*
X176002Y121999D01*
X178001Y123999D01*
X182000D01*
X179001D01*
Y120000D01*
X182000Y128997D02*
X176002D01*
X179001Y125998D01*
Y129997D01*
X172000Y120000D02*
X168001D01*
X166002Y121999D01*
X168001Y123999D01*
X172000D01*
X169001D01*
Y120000D01*
X167002Y125998D02*
X166002Y126998D01*
Y128997D01*
X167002Y129997D01*
X168001D01*
X169001Y128997D01*
Y127997D01*
Y128997D01*
X170001Y129997D01*
X171000D01*
X172000Y128997D01*
Y126998D01*
X171000Y125998D01*
X162000Y120000D02*
X158001D01*
X156002Y121999D01*
X158001Y123999D01*
X162000D01*
X159001D01*
Y120000D01*
X162000Y129997D02*
Y125998D01*
X158001Y129997D01*
X157002D01*
X156002Y128997D01*
Y126998D01*
X157002Y125998D01*
X152000Y120000D02*
X148001D01*
X146002Y121999D01*
X148001Y123999D01*
X152000D01*
X149001D01*
Y120000D01*
X152000Y125998D02*
Y127997D01*
Y126998D01*
X146002D01*
X147002Y125998D01*
X142000Y120000D02*
X138001D01*
X136002Y121999D01*
X138001Y123999D01*
X142000D01*
X139001D01*
Y120000D01*
X137002Y125998D02*
X136002Y126998D01*
Y128997D01*
X137002Y129997D01*
X141000D01*
X142000Y128997D01*
Y126998D01*
X141000Y125998D01*
X137002D01*
X135500Y207998D02*
Y202000D01*
X139499D01*
X145497Y207998D02*
X141498D01*
Y202000D01*
X145497D01*
X141498Y204999D02*
X143497D01*
X151495Y207998D02*
X147496D01*
Y204999D01*
X149495D01*
X147496D01*
Y202000D01*
X153494Y207998D02*
X157493D01*
X155493D01*
Y202000D01*
X301000Y207499D02*
Y204167D01*
X301666Y203500D01*
X302999D01*
X303666Y204167D01*
Y207499D01*
X304999Y203500D02*
X306332D01*
X305665D01*
Y207499D01*
X304999Y206832D01*
X182500Y244998D02*
Y240000D01*
X183500Y239000D01*
X185499D01*
X186499Y240000D01*
Y244998D01*
X188498Y239000D02*
Y244998D01*
X191497D01*
X192497Y243998D01*
Y241999D01*
X191497Y240999D01*
X188498D01*
X176500Y170998D02*
Y165000D01*
X179499D01*
X180499Y166000D01*
Y169998D01*
X179499Y170998D01*
X176500D01*
X185497D02*
X183498D01*
X182498Y169998D01*
Y166000D01*
X183498Y165000D01*
X185497D01*
X186497Y166000D01*
Y169998D01*
X185497Y170998D01*
X188496D02*
Y165000D01*
X190496Y166999D01*
X192495Y165000D01*
Y170998D01*
X194494Y165000D02*
Y170998D01*
X198493Y165000D01*
Y170998D01*
X214500Y202000D02*
Y207998D01*
X217499D01*
X218499Y206998D01*
Y204999D01*
X217499Y203999D01*
X214500D01*
X216499D02*
X218499Y202000D01*
X220498Y207998D02*
X222497D01*
X221498D01*
Y202000D01*
X220498D01*
X222497D01*
X229495Y206998D02*
X228496Y207998D01*
X226496D01*
X225496Y206998D01*
Y203000D01*
X226496Y202000D01*
X228496D01*
X229495Y203000D01*
Y204999D01*
X227496D01*
X231494Y207998D02*
Y202000D01*
Y204999D01*
X235493D01*
Y207998D01*
Y202000D01*
X237493Y207998D02*
X241491D01*
X239492D01*
Y202000D01*
X442500Y185000D02*
Y188999D01*
X444499Y190998D01*
X446499Y188999D01*
Y185000D01*
Y187999D01*
X442500D01*
X405000Y153498D02*
Y147500D01*
X407999D01*
X408999Y148500D01*
Y149499D01*
X407999Y150499D01*
X405000D01*
X407999D01*
X408999Y151499D01*
Y152498D01*
X407999Y153498D01*
X405000D01*
Y228498D02*
X408999Y222500D01*
Y228498D02*
X405000Y222500D01*
X367500Y190998D02*
Y189998D01*
X369499Y187999D01*
X371499Y189998D01*
Y190998D01*
X369499Y187999D02*
Y185000D01*
X315499Y163998D02*
X314499Y164998D01*
X312500D01*
X311500Y163998D01*
Y162999D01*
X312500Y161999D01*
X314499D01*
X315499Y160999D01*
Y160000D01*
X314499Y159000D01*
X312500D01*
X311500Y160000D01*
X317498Y164998D02*
X321497D01*
X319497D01*
Y159000D01*
X323496D02*
Y162999D01*
X325496Y164998D01*
X327495Y162999D01*
Y159000D01*
Y161999D01*
X323496D01*
X329494Y159000D02*
Y164998D01*
X332493D01*
X333493Y163998D01*
Y161999D01*
X332493Y160999D01*
X329494D01*
X331493D02*
X333493Y159000D01*
X335492Y164998D02*
X339491D01*
X337492D01*
Y159000D01*
X238999Y162498D02*
X237999Y163498D01*
X236000D01*
X235000Y162498D01*
Y161499D01*
X236000Y160499D01*
X237999D01*
X238999Y159499D01*
Y158500D01*
X237999Y157500D01*
X236000D01*
X235000Y158500D01*
X244997Y163498D02*
X240998D01*
Y157500D01*
X244997D01*
X240998Y160499D02*
X242997D01*
X246996Y163498D02*
Y157500D01*
X250995D01*
X256993Y163498D02*
X252994D01*
Y157500D01*
X256993D01*
X252994Y160499D02*
X254994D01*
X262991Y162498D02*
X261991Y163498D01*
X259992D01*
X258992Y162498D01*
Y158500D01*
X259992Y157500D01*
X261991D01*
X262991Y158500D01*
X264990Y163498D02*
X268989D01*
X266990D01*
Y157500D01*
X284000Y128000D02*
Y131999D01*
X285999D01*
X286666Y131332D01*
Y129999D01*
X285999Y129333D01*
X284000D01*
X285333D02*
X286666Y128000D01*
X287999Y131332D02*
X288665Y131999D01*
X289998D01*
X290665Y131332D01*
Y130666D01*
X289998Y129999D01*
X290665Y129333D01*
Y128666D01*
X289998Y128000D01*
X288665D01*
X287999Y128666D01*
Y129333D01*
X288665Y129999D01*
X287999Y130666D01*
Y131332D01*
X288665Y129999D02*
X289998D01*
X284000Y137000D02*
Y140999D01*
X285999D01*
X286666Y140332D01*
Y138999D01*
X285999Y138333D01*
X284000D01*
X285333D02*
X286666Y137000D01*
X287999Y140999D02*
X290665D01*
Y140332D01*
X287999Y137666D01*
Y137000D01*
X284000Y145500D02*
Y149499D01*
X285999D01*
X286666Y148832D01*
Y147499D01*
X285999Y146833D01*
X284000D01*
X285333D02*
X286666Y145500D01*
X290665Y149499D02*
X289332Y148832D01*
X287999Y147499D01*
Y146167D01*
X288665Y145500D01*
X289998D01*
X290665Y146167D01*
Y146833D01*
X289998Y147499D01*
X287999D01*
X246500Y215250D02*
Y219249D01*
X248499D01*
X249166Y218582D01*
Y217249D01*
X248499Y216583D01*
X246500D01*
X247833D02*
X249166Y215250D01*
X252498D02*
Y219249D01*
X250499Y217249D01*
X253165D01*
X264000Y171500D02*
Y175499D01*
X265999D01*
X266666Y174832D01*
Y173499D01*
X265999Y172833D01*
X264000D01*
X265333D02*
X266666Y171500D01*
X267999Y174832D02*
X268665Y175499D01*
X269998D01*
X270665Y174832D01*
Y174166D01*
X269998Y173499D01*
X269332D01*
X269998D01*
X270665Y172833D01*
Y172167D01*
X269998Y171500D01*
X268665D01*
X267999Y172167D01*
X286000Y171500D02*
Y175499D01*
X287999D01*
X288666Y174832D01*
Y173499D01*
X287999Y172833D01*
X286000D01*
X287333D02*
X288666Y171500D01*
X292665D02*
X289999D01*
X292665Y174166D01*
Y174832D01*
X291998Y175499D01*
X290665D01*
X289999Y174832D01*
X315250Y174000D02*
Y177999D01*
X317249D01*
X317916Y177332D01*
Y175999D01*
X317249Y175333D01*
X315250D01*
X316583D02*
X317916Y174000D01*
X319249D02*
X320582D01*
X319915D01*
Y177999D01*
X319249Y177332D01*
X332000Y206999D02*
X334666Y203000D01*
Y206999D02*
X332000Y203000D01*
X335999D02*
X337332D01*
X336665D01*
Y206999D01*
X335999Y206332D01*
X349500Y133998D02*
X351499D01*
X350500D01*
Y128000D01*
X349500D01*
X351499D01*
X358497Y132998D02*
X357497Y133998D01*
X355498D01*
X354498Y132998D01*
Y129000D01*
X355498Y128000D01*
X357497D01*
X358497Y129000D01*
X364495Y132998D02*
X363495Y133998D01*
X361496D01*
X360496Y132998D01*
Y131999D01*
X361496Y130999D01*
X363495D01*
X364495Y129999D01*
Y129000D01*
X363495Y128000D01*
X361496D01*
X360496Y129000D01*
X366494Y128000D02*
Y133998D01*
X369494D01*
X370493Y132998D01*
Y130999D01*
X369494Y129999D01*
X366494D01*
X251000Y112500D02*
Y116499D01*
X252999D01*
X253666Y115832D01*
Y114499D01*
X252999Y113833D01*
X251000D01*
X252333D02*
X253666Y112500D01*
X254999Y116499D02*
X257664Y112500D01*
Y116499D02*
X254999Y112500D01*
X275000Y124499D02*
X277666D01*
X276333D01*
Y120500D01*
X278999Y124499D02*
X281664Y120500D01*
Y124499D02*
X278999Y120500D01*
X317500Y112500D02*
Y116499D01*
X319499D01*
X320166Y115832D01*
Y114499D01*
X319499Y113833D01*
X317500D01*
X321499Y116499D02*
Y112500D01*
X322832Y113833D01*
X324165Y112500D01*
Y116499D01*
X325497Y112500D02*
Y116499D01*
X327497D01*
X328163Y115832D01*
Y114499D01*
X327497Y113833D01*
X325497D01*
X326830D02*
X328163Y112500D01*
X322666Y213082D02*
X321999Y213749D01*
X320666D01*
X320000Y213082D01*
Y210416D01*
X320666Y209750D01*
X321999D01*
X322666Y210416D01*
X323999Y213749D02*
X326664D01*
Y213082D01*
X323999Y210416D01*
Y209750D01*
X319166Y184332D02*
X318499Y184999D01*
X317166D01*
X316500Y184332D01*
Y181667D01*
X317166Y181000D01*
X318499D01*
X319166Y181667D01*
X323165Y184999D02*
X321832Y184332D01*
X320499Y182999D01*
Y181667D01*
X321165Y181000D01*
X322498D01*
X323165Y181667D01*
Y182333D01*
X322498Y182999D01*
X320499D01*
X258166Y190832D02*
X257499Y191499D01*
X256166D01*
X255500Y190832D01*
Y188166D01*
X256166Y187500D01*
X257499D01*
X258166Y188166D01*
X262164Y191499D02*
X259499D01*
Y189499D01*
X260832Y190166D01*
X261498D01*
X262164Y189499D01*
Y188166D01*
X261498Y187500D01*
X260165D01*
X259499Y188166D01*
X291416Y161832D02*
X290749Y162499D01*
X289416D01*
X288750Y161832D01*
Y159167D01*
X289416Y158500D01*
X290749D01*
X291416Y159167D01*
X294748Y158500D02*
Y162499D01*
X292749Y160499D01*
X295414D01*
X263166Y218332D02*
X262499Y218999D01*
X261166D01*
X260500Y218332D01*
Y215666D01*
X261166Y215000D01*
X262499D01*
X263166Y215666D01*
X264499Y218332D02*
X265165Y218999D01*
X266498D01*
X267164Y218332D01*
Y217666D01*
X266498Y216999D01*
X265832D01*
X266498D01*
X267164Y216333D01*
Y215666D01*
X266498Y215000D01*
X265165D01*
X264499Y215666D01*
X285666Y217332D02*
X284999Y217999D01*
X283666D01*
X283000Y217332D01*
Y214666D01*
X283666Y214000D01*
X284999D01*
X285666Y214666D01*
X289665Y214000D02*
X286999D01*
X289665Y216666D01*
Y217332D01*
X288998Y217999D01*
X287665D01*
X286999Y217332D01*
X243166Y237332D02*
X242499Y237999D01*
X241166D01*
X240500Y237332D01*
Y234666D01*
X241166Y234000D01*
X242499D01*
X243166Y234666D01*
X244499Y234000D02*
X245832D01*
X245165D01*
Y237999D01*
X244499Y237332D01*
X314500Y270498D02*
Y265500D01*
X315500Y264500D01*
X317499D01*
X318499Y265500D01*
Y270498D01*
X324497Y269498D02*
X323497Y270498D01*
X321498D01*
X320498Y269498D01*
Y268499D01*
X321498Y267499D01*
X323497D01*
X324497Y266499D01*
Y265500D01*
X323497Y264500D01*
X321498D01*
X320498Y265500D01*
X326496Y270498D02*
Y264500D01*
X329495D01*
X330495Y265500D01*
Y266499D01*
X329495Y267499D01*
X326496D01*
X329495D01*
X330495Y268499D01*
Y269498D01*
X329495Y270498D01*
X326496D01*
X155000Y249998D02*
Y245000D01*
X158332D01*
X159998D02*
Y249998D01*
X162498D01*
X163331Y249165D01*
Y247499D01*
X162498Y246666D01*
X159998D01*
X161664D02*
X163331Y245000D01*
X168329Y249165D02*
X167496Y249998D01*
X165830D01*
X164997Y249165D01*
Y245833D01*
X165830Y245000D01*
X167496D01*
X168329Y245833D01*
Y247499D01*
X166663D01*
X158332Y259165D02*
X157499Y259998D01*
X155833D01*
X155000Y259165D01*
Y255833D01*
X155833Y255000D01*
X157499D01*
X158332Y255833D01*
Y257499D01*
X156666D01*
X160831Y258332D02*
X162498D01*
X163331Y257499D01*
Y255000D01*
X160831D01*
X159998Y255833D01*
X160831Y256666D01*
X163331D01*
X164997Y255000D02*
Y258332D01*
X165830D01*
X166663Y257499D01*
Y255000D01*
Y257499D01*
X167496Y258332D01*
X168329Y257499D01*
Y255000D01*
X172494D02*
X170828D01*
X169995Y255833D01*
Y257499D01*
X170828Y258332D01*
X172494D01*
X173327Y257499D01*
Y256666D01*
X169995D01*
X174994Y255000D02*
Y259998D01*
X177493D01*
X178326Y259165D01*
Y257499D01*
X177493Y256666D01*
X174994D01*
X180825Y258332D02*
X182491D01*
X183324Y257499D01*
Y255000D01*
X180825D01*
X179992Y255833D01*
X180825Y256666D01*
X183324D01*
X188322Y259998D02*
Y255000D01*
X185823D01*
X184990Y255833D01*
Y257499D01*
X185823Y258332D01*
X188322D01*
X190822Y254167D02*
X191655Y255000D01*
Y255833D01*
X190822D01*
Y255000D01*
X191655D01*
X190822Y254167D01*
X189989Y253334D01*
X199985Y255000D02*
Y259998D01*
X202485D01*
X203318Y259165D01*
Y257499D01*
X202485Y256666D01*
X199985D01*
X204984Y259998D02*
X208316D01*
X206650D01*
Y255000D01*
X209982Y259998D02*
Y255000D01*
X211648Y256666D01*
X213314Y255000D01*
Y259998D01*
X214981Y255000D02*
X216647D01*
X215814D01*
Y259998D01*
X214981Y259165D01*
X221645Y255000D02*
Y259998D01*
X219146Y257499D01*
X222478D01*
X155000Y265000D02*
Y269998D01*
X158332Y265000D01*
Y269998D01*
X162498Y265000D02*
X160831D01*
X159998Y265833D01*
Y267499D01*
X160831Y268332D01*
X162498D01*
X163331Y267499D01*
Y266666D01*
X159998D01*
X164997Y268332D02*
X168329Y265000D01*
X166663Y266666D01*
X168329Y268332D01*
X164997Y265000D01*
X170828Y269165D02*
Y268332D01*
X169995D01*
X171661D01*
X170828D01*
Y265833D01*
X171661Y265000D01*
X177493Y269998D02*
X174161D01*
Y267499D01*
X175827D01*
X174161D01*
Y265000D01*
X179992Y268332D02*
X181658D01*
X182491Y267499D01*
Y265000D01*
X179992D01*
X179159Y265833D01*
X179992Y266666D01*
X182491D01*
X184157Y269998D02*
Y265000D01*
X186656D01*
X187489Y265833D01*
Y266666D01*
Y267499D01*
X186656Y268332D01*
X184157D01*
X197486Y269165D02*
X196653Y269998D01*
X194987D01*
X194154Y269165D01*
Y268332D01*
X194987Y267499D01*
X196653D01*
X197486Y266666D01*
Y265833D01*
X196653Y265000D01*
X194987D01*
X194154Y265833D01*
X199985Y269165D02*
Y268332D01*
X199152D01*
X200818D01*
X199985D01*
Y265833D01*
X200818Y265000D01*
X203318Y268332D02*
Y265833D01*
X204151Y265000D01*
X206650D01*
Y268332D01*
X211648Y269998D02*
Y265000D01*
X209149D01*
X208316Y265833D01*
Y267499D01*
X209149Y268332D01*
X211648D01*
X213314Y265000D02*
X214981D01*
X214147D01*
Y268332D01*
X213314D01*
X218313Y265000D02*
X219979D01*
X220812Y265833D01*
Y267499D01*
X219979Y268332D01*
X218313D01*
X217480Y267499D01*
Y265833D01*
X218313Y265000D01*
X227477Y269998D02*
Y265000D01*
X230809D01*
X232475Y269998D02*
Y265000D01*
X235807D01*
X240806Y269165D02*
X239972Y269998D01*
X238306D01*
X237473Y269165D01*
Y265833D01*
X238306Y265000D01*
X239972D01*
X240806Y265833D01*
D23*
X157000Y187500D02*
G03*
X157000Y187500I-7000J0D01*
G01*
X194500Y225000D02*
G03*
X194500Y225000I-7000J0D01*
G01*
Y150000D02*
G03*
X194500Y150000I-7000J0D01*
G01*
X232000Y187500D02*
G03*
X232000Y187500I-7000J0D01*
G01*
X432000D02*
G03*
X432000Y187500I-7000J0D01*
G01*
X394500Y150000D02*
G03*
X394500Y150000I-7000J0D01*
G01*
Y225000D02*
G03*
X394500Y225000I-7000J0D01*
G01*
X357000Y187500D02*
G03*
X357000Y187500I-7000J0D01*
G01*
X332000Y140000D02*
G03*
X332000Y140000I-7000J0D01*
G01*
X257000D02*
G03*
X257000Y140000I-7000J0D01*
G01*
X162000Y183400D02*
Y191500D01*
X138000Y183500D02*
Y191500D01*
X141500Y199500D02*
X158500D01*
X141500Y175500D02*
X158500D01*
X269200Y184189D02*
X271100Y182220D01*
X269200Y208300D02*
Y209800D01*
X270700D01*
X295205Y182220D02*
X296779D01*
Y183795D01*
X295205Y209800D02*
X296779D01*
Y208300D02*
Y209800D01*
X199500Y220900D02*
Y229000D01*
X175500Y221000D02*
Y229000D01*
X179000Y237000D02*
X196000D01*
X179000Y213000D02*
X196000D01*
X199500Y145900D02*
Y154000D01*
X175500Y146000D02*
Y154000D01*
X179000Y162000D02*
X196000D01*
X179000Y138000D02*
X196000D01*
X237000Y183400D02*
Y191500D01*
X213000Y183500D02*
Y191500D01*
X216500Y199500D02*
X233500D01*
X216500Y175500D02*
X233500D01*
X413000Y183500D02*
Y191600D01*
X437000Y183500D02*
Y191500D01*
X416500Y175500D02*
X433500D01*
X416500Y199500D02*
X433500D01*
X311200Y228000D02*
Y243362D01*
X263878Y228000D02*
X311200D01*
X263878D02*
Y243362D01*
Y259898D02*
Y274858D01*
X311200Y259898D02*
Y274858D01*
X375500Y146000D02*
Y154100D01*
X399500Y146000D02*
Y154000D01*
X379000Y138000D02*
X396000D01*
X379000Y162000D02*
X396000D01*
X329417Y193300D02*
Y195681D01*
X313800Y200996D02*
X322134D01*
X306500Y193300D02*
Y195681D01*
X313800Y188000D02*
X322134D01*
X375500Y221000D02*
Y229100D01*
X399500Y221000D02*
Y229000D01*
X379000Y213000D02*
X396000D01*
X379000Y237000D02*
X396000D01*
X338000Y183500D02*
Y191600D01*
X362000Y183500D02*
Y191500D01*
X341500Y175500D02*
X358500D01*
X341500Y199500D02*
X358500D01*
X321000Y152000D02*
X329100D01*
X321000Y128000D02*
X329000D01*
X313000Y131500D02*
Y148500D01*
X337000Y131500D02*
Y148500D01*
X246000Y152000D02*
X254100D01*
X246000Y128000D02*
X254000D01*
X238000Y131500D02*
Y148500D01*
X262000Y131500D02*
Y148500D01*
X342499Y118000D02*
Y122998D01*
X340000Y120499D01*
X343332D01*
X342000Y108000D02*
X343666D01*
X342833D01*
Y112998D01*
X342000Y112165D01*
X378000D02*
X378833Y112998D01*
X380499D01*
X381332Y112165D01*
Y111332D01*
X380499Y110499D01*
X379666D01*
X380499D01*
X381332Y109666D01*
Y108833D01*
X380499Y108000D01*
X378833D01*
X378000Y108833D01*
X381332Y122998D02*
X379666Y122165D01*
X378000Y120499D01*
Y118833D01*
X378833Y118000D01*
X380499D01*
X381332Y118833D01*
Y119666D01*
X380499Y120499D01*
X378000D01*
D36*
X326871Y195287D02*
G03*
X326871Y195287I-800J0D01*
G01*
D37*
X141250Y117500D02*
X233750D01*
X133750D02*
X141250D01*
X133750Y107500D02*
Y117500D01*
Y107500D02*
X233750D01*
Y117500D01*
X297500Y130000D02*
Y133000D01*
X277500D02*
X297500D01*
X277500Y127000D02*
Y133000D01*
Y127000D02*
X297500D01*
Y130000D01*
X276600D02*
X277500D01*
X297500D02*
X298400D01*
X297500Y139000D02*
Y142000D01*
X277500D02*
X297500D01*
X277500Y136000D02*
Y142000D01*
Y136000D02*
X297500D01*
Y139000D01*
X276600D02*
X277500D01*
X297500D02*
X298400D01*
X297500Y147500D02*
Y150500D01*
X277500D02*
X297500D01*
X277500Y144500D02*
Y150500D01*
Y144500D02*
X297500D01*
Y147500D01*
X276600D02*
X277500D01*
X297500D02*
X298400D01*
X375000Y105000D02*
Y125000D01*
X345000D02*
X375000D01*
X345000Y105000D02*
Y125000D01*
Y105000D02*
X375000D01*
D38*
X250862Y206569D02*
Y208950D01*
X246100Y206569D02*
Y208950D01*
X306319Y174138D02*
X308700D01*
X306319Y178900D02*
X308700D01*
D39*
X322000Y205550D02*
Y205870D01*
X310500Y182880D02*
Y183200D01*
D40*
X274750Y173500D02*
D03*
X280250D02*
D03*
M02*
